<?xml version="1.0" encoding="UTF-8" standalone="no"?>
<!DOCTYPE svg PUBLIC "-//W3C//DTD SVG 1.1//EN"
 "http://www.w3.org/Graphics/SVG/1.1/DTD/svg11.dtd">
<!-- Generated by graphviz version 2.43.0 (0)
 -->
<!-- Title: flexxlam::SetEthernetCommunicationConfigProtocol::init_from_payload_ Pages: 1 -->
<svg width="365pt" height="56pt"
 viewBox="0.00 0.00 365.00 56.00" xmlns="http://www.w3.org/2000/svg" xmlns:xlink="http://www.w3.org/1999/xlink">
<g id="graph0" class="graph" transform="scale(1 1) rotate(0) translate(4 52)">
<title>flexxlam::SetEthernetCommunicationConfigProtocol::init_from_payload_</title>
<!-- Node1 -->
<g id="Node000001" class="node">
<title>Node1</title>
<g id="a_Node000001"><a xlink:title="Initialize enabled_ and port_ from payload">
<polygon fill="#999999" stroke="#666666" points="200,-30 0,-30 0,0 200,0 200,-30"/>
<text text-anchor="start" x="8" y="-18" font-family="Helvetica,sans-Serif" font-size="10.00">flexxlam::SetEthernetCommunication</text>
<text text-anchor="middle" x="100" y="-7" font-family="Helvetica,sans-Serif" font-size="10.00">ConfigProtocol::init_from_payload_</text>
</a>
</g>
</g>
<!-- Node2 -->
<g id="Node000002" class="node">
<title>Node2</title>
<g id="a_Node000002"><a xlink:href="namespaceflexxlam_1_1from__bytes.html#ab8c3593a8c91bb527232a403823449e9" target="_top" xlink:title="Convert 1~4 bytes to int.">
<polygon fill="white" stroke="#666666" points="357,-30 236,-30 236,0 357,0 357,-30"/>
<text text-anchor="start" x="244" y="-18" font-family="Helvetica,sans-Serif" font-size="10.00">flexxlam::from_bytes</text>
<text text-anchor="middle" x="296.5" y="-7" font-family="Helvetica,sans-Serif" font-size="10.00">::to_int</text>
</a>
</g>
</g>
<!-- Node1&#45;&gt;Node2 -->
<g id="edge1_Node000001_Node000002" class="edge">
<title>Node1&#45;&gt;Node2</title>
<g id="a_edge1_Node000001_Node000002"><a xlink:title=" ">
<path fill="none" stroke="#63b8ff" d="M200.24,-15C208.9,-15 217.53,-15 225.87,-15"/>
<polygon fill="#63b8ff" stroke="#63b8ff" points="225.88,-18.5 235.88,-15 225.88,-11.5 225.88,-18.5"/>
</a>
</g>
</g>
<!-- Node2&#45;&gt;Node2 -->
<g id="edge2_Node000002_Node000002" class="edge">
<title>Node2&#45;&gt;Node2</title>
<g id="a_edge2_Node000002_Node000002"><a xlink:title=" ">
<path fill="none" stroke="#63b8ff" d="M262.05,-30.28C254.39,-39.41 265.88,-48 296.5,-48 314.68,-48 326.12,-44.97 330.81,-40.6"/>
<polygon fill="#63b8ff" stroke="#63b8ff" points="334.31,-40.32 330.95,-30.28 327.31,-40.22 334.31,-40.32"/>
</a>
</g>
</g>
</g>
</svg>
