<?xml version="1.0" encoding="UTF-8" standalone="no"?>
<!DOCTYPE svg PUBLIC "-//W3C//DTD SVG 1.1//EN"
 "http://www.w3.org/Graphics/SVG/1.1/DTD/svg11.dtd">
<!-- Generated by graphviz version 2.43.0 (0)
 -->
<!-- Title: flexxlam::BaseProtocol::is_valid Pages: 1 -->
<svg width="609pt" height="134pt"
 viewBox="0.00 0.00 609.00 134.00" xmlns="http://www.w3.org/2000/svg" xmlns:xlink="http://www.w3.org/1999/xlink">
<g id="graph0" class="graph" transform="scale(1 1) rotate(0) translate(4 130)">
<title>flexxlam::BaseProtocol::is_valid</title>
<!-- Node1 -->
<g id="Node000001" class="node">
<title>Node1</title>
<g id="a_Node000001"><a xlink:title="Get the validity of the protocol.">
<polygon fill="#999999" stroke="#666666" points="601,-78 472,-78 472,-48 601,-48 601,-78"/>
<text text-anchor="start" x="480" y="-66" font-family="Helvetica,sans-Serif" font-size="10.00">flexxlam::BaseProtocol</text>
<text text-anchor="middle" x="536.5" y="-55" font-family="Helvetica,sans-Serif" font-size="10.00">::is_valid</text>
</a>
</g>
</g>
<!-- Node2 -->
<g id="Node000002" class="node">
<title>Node2</title>
<g id="a_Node000002"><a xlink:href="classflexxlam_1_1CommandSavePCDProtocol.html#a938780e4b831b158fac7da2a5229e96b" target="_top" xlink:title="initialize save_ and reset_ from payload">
<polygon fill="white" stroke="#666666" points="436,-126 236,-126 236,-96 436,-96 436,-126"/>
<text text-anchor="start" x="244" y="-114" font-family="Helvetica,sans-Serif" font-size="10.00">flexxlam::CommandSavePCDProtocol</text>
<text text-anchor="middle" x="336" y="-103" font-family="Helvetica,sans-Serif" font-size="10.00">::init_from_payload_</text>
</a>
</g>
</g>
<!-- Node1&#45;&gt;Node2 -->
<g id="edge1_Node000001_Node000002" class="edge">
<title>Node1&#45;&gt;Node2</title>
<g id="a_edge1_Node000001_Node000002"><a xlink:title=" ">
<path fill="none" stroke="#63b8ff" d="M463.37,-80.44C442.29,-85.54 419.44,-91.07 399.04,-96"/>
<polygon fill="#63b8ff" stroke="#63b8ff" points="464.34,-83.81 473.24,-78.06 462.7,-77 464.34,-83.81"/>
</a>
</g>
</g>
<!-- Node4 -->
<g id="Node000004" class="node">
<title>Node4</title>
<g id="a_Node000004"><a xlink:href="classflexxlam_1_1PushOdometryProtocol.html#a4e8b63e90e05faab134c031c8889f31d" target="_top" xlink:title="Initialize odom from payload">
<polygon fill="white" stroke="#666666" points="424.5,-78 247.5,-78 247.5,-48 424.5,-48 424.5,-78"/>
<text text-anchor="start" x="255.5" y="-66" font-family="Helvetica,sans-Serif" font-size="10.00">flexxlam::PushOdometryProtocol</text>
<text text-anchor="middle" x="336" y="-55" font-family="Helvetica,sans-Serif" font-size="10.00">::init_from_payload_</text>
</a>
</g>
</g>
<!-- Node1&#45;&gt;Node4 -->
<g id="edge3_Node000001_Node000004" class="edge">
<title>Node1&#45;&gt;Node4</title>
<g id="a_edge3_Node000001_Node000004"><a xlink:title=" ">
<path fill="none" stroke="#63b8ff" d="M461.81,-63C449.66,-63 436.96,-63 424.51,-63"/>
<polygon fill="#63b8ff" stroke="#63b8ff" points="461.87,-66.5 471.87,-63 461.87,-59.5 461.87,-66.5"/>
</a>
</g>
</g>
<!-- Node6 -->
<g id="Node000006" class="node">
<title>Node6</title>
<g id="a_Node000006"><a xlink:href="classflexxlam_1_1PushPointCloudProtocol.html#a4b9dcb8534b3f736fc93cf1d4c9811ed" target="_top" xlink:title="Initialize pointcloud from payload">
<polygon fill="white" stroke="#666666" points="414,-30 258,-30 258,0 414,0 414,-30"/>
<text text-anchor="start" x="266" y="-18" font-family="Helvetica,sans-Serif" font-size="10.00">flexxlam::PushPointCloud</text>
<text text-anchor="middle" x="336" y="-7" font-family="Helvetica,sans-Serif" font-size="10.00">Protocol::init_from_payload_</text>
</a>
</g>
</g>
<!-- Node1&#45;&gt;Node6 -->
<g id="edge5_Node000001_Node000006" class="edge">
<title>Node1&#45;&gt;Node6</title>
<g id="a_edge5_Node000001_Node000006"><a xlink:title=" ">
<path fill="none" stroke="#63b8ff" d="M463.37,-45.56C442.29,-40.46 419.44,-34.93 399.04,-30"/>
<polygon fill="#63b8ff" stroke="#63b8ff" points="462.7,-49 473.24,-47.94 464.34,-42.19 462.7,-49"/>
</a>
</g>
</g>
<!-- Node3 -->
<g id="Node000003" class="node">
<title>Node3</title>
<g id="a_Node000003"><a xlink:href="classflexxlam_1_1CommandSavePCDProtocol.html#a7f0f6ba4f7be86f304f9368ea9504284" target="_top" xlink:title="Command save PCD protocoll constructor.">
<polygon fill="white" stroke="#666666" points="200,-126 0,-126 0,-96 200,-96 200,-126"/>
<text text-anchor="start" x="8" y="-114" font-family="Helvetica,sans-Serif" font-size="10.00">flexxlam::CommandSavePCDProtocol</text>
<text text-anchor="middle" x="100" y="-103" font-family="Helvetica,sans-Serif" font-size="10.00">::CommandSavePCDProtocol</text>
</a>
</g>
</g>
<!-- Node2&#45;&gt;Node3 -->
<g id="edge2_Node000002_Node000003" class="edge">
<title>Node2&#45;&gt;Node3</title>
<g id="a_edge2_Node000002_Node000003"><a xlink:title=" ">
<path fill="none" stroke="#63b8ff" d="M225.73,-111C217.15,-111 208.52,-111 200.02,-111"/>
<polygon fill="#63b8ff" stroke="#63b8ff" points="225.76,-114.5 235.76,-111 225.76,-107.5 225.76,-114.5"/>
</a>
</g>
</g>
<!-- Node5 -->
<g id="Node000005" class="node">
<title>Node5</title>
<g id="a_Node000005"><a xlink:href="classflexxlam_1_1PushOdometryProtocol.html#ac01d14478663a33160a74bcf1809d1f4" target="_top" xlink:title="Get odometry protocol constructor.">
<polygon fill="white" stroke="#666666" points="188.5,-78 11.5,-78 11.5,-48 188.5,-48 188.5,-78"/>
<text text-anchor="start" x="19.5" y="-66" font-family="Helvetica,sans-Serif" font-size="10.00">flexxlam::PushOdometryProtocol</text>
<text text-anchor="middle" x="100" y="-55" font-family="Helvetica,sans-Serif" font-size="10.00">::PushOdometryProtocol</text>
</a>
</g>
</g>
<!-- Node4&#45;&gt;Node5 -->
<g id="edge4_Node000004_Node000005" class="edge">
<title>Node4&#45;&gt;Node5</title>
<g id="a_edge4_Node000004_Node000005"><a xlink:title=" ">
<path fill="none" stroke="#63b8ff" d="M236.76,-63C220.74,-63 204.25,-63 188.51,-63"/>
<polygon fill="#63b8ff" stroke="#63b8ff" points="237.2,-66.5 247.2,-63 237.2,-59.5 237.2,-66.5"/>
</a>
</g>
</g>
<!-- Node7 -->
<g id="Node000007" class="node">
<title>Node7</title>
<g id="a_Node000007"><a xlink:href="classflexxlam_1_1PushPointCloudProtocol.html#aa46030c98085966e0537562e80476560" target="_top" xlink:title="PushPointCloudProtocol constructor.">
<polygon fill="white" stroke="#666666" points="189,-30 11,-30 11,0 189,0 189,-30"/>
<text text-anchor="start" x="19" y="-18" font-family="Helvetica,sans-Serif" font-size="10.00">flexxlam::PushPointCloud</text>
<text text-anchor="middle" x="100" y="-7" font-family="Helvetica,sans-Serif" font-size="10.00">Protocol::PushPointCloudProtocol</text>
</a>
</g>
</g>
<!-- Node6&#45;&gt;Node7 -->
<g id="edge6_Node000006_Node000007" class="edge">
<title>Node6&#45;&gt;Node7</title>
<g id="a_edge6_Node000006_Node000007"><a xlink:title=" ">
<path fill="none" stroke="#63b8ff" d="M247.56,-15C228.46,-15 208.24,-15 189.12,-15"/>
<polygon fill="#63b8ff" stroke="#63b8ff" points="247.73,-18.5 257.73,-15 247.73,-11.5 247.73,-18.5"/>
</a>
</g>
</g>
</g>
</svg>
