<?xml version="1.0" encoding="UTF-8" standalone="no"?>
<!DOCTYPE svg PUBLIC "-//W3C//DTD SVG 1.1//EN"
 "http://www.w3.org/Graphics/SVG/1.1/DTD/svg11.dtd">
<!-- Generated by graphviz version 2.43.0 (0)
 -->
<!-- Title: flexxlam::ResponseMavlinkCommunicationConfig::ResponseMavlinkCommunicationConfig Pages: 1 -->
<svg width="570pt" height="62pt"
 viewBox="0.00 0.00 570.00 61.50" xmlns="http://www.w3.org/2000/svg" xmlns:xlink="http://www.w3.org/1999/xlink">
<g id="graph0" class="graph" transform="scale(1 1) rotate(0) translate(4 57.5)">
<title>flexxlam::ResponseMavlinkCommunicationConfig::ResponseMavlinkCommunicationConfig</title>
<!-- Node1 -->
<g id="Node000001" class="node">
<title>Node1</title>
<g id="a_Node000001"><a xlink:title="Response data status protocol constructor.">
<polygon fill="#999999" stroke="#666666" points="217,-41 0,-41 0,0 217,0 217,-41"/>
<text text-anchor="start" x="8" y="-29" font-family="Helvetica,sans-Serif" font-size="10.00">flexxlam::ResponseMavlink</text>
<text text-anchor="start" x="8" y="-18" font-family="Helvetica,sans-Serif" font-size="10.00">CommunicationConfig::ResponseMavlink</text>
<text text-anchor="middle" x="108.5" y="-7" font-family="Helvetica,sans-Serif" font-size="10.00">CommunicationConfig</text>
</a>
</g>
</g>
<!-- Node2 -->
<g id="Node000002" class="node">
<title>Node2</title>
<g id="a_Node000002"><a xlink:href="classflexxlam_1_1ResponseMavlinkCommunicationConfig.html#a88e00f432b94518f1149c0a180b5dea2" target="_top" xlink:title="Initialize enabled_ and baudrate_ from payload">
<polygon fill="white" stroke="#666666" points="405,-41 253,-41 253,0 405,0 405,-41"/>
<text text-anchor="start" x="261" y="-29" font-family="Helvetica,sans-Serif" font-size="10.00">flexxlam::ResponseMavlink</text>
<text text-anchor="start" x="261" y="-18" font-family="Helvetica,sans-Serif" font-size="10.00">CommunicationConfig::init</text>
<text text-anchor="middle" x="329" y="-7" font-family="Helvetica,sans-Serif" font-size="10.00">_from_payload_</text>
</a>
</g>
</g>
<!-- Node1&#45;&gt;Node2 -->
<g id="edge1_Node000001_Node000002" class="edge">
<title>Node1&#45;&gt;Node2</title>
<g id="a_edge1_Node000001_Node000002"><a xlink:title=" ">
<path fill="none" stroke="#63b8ff" d="M217.15,-20.5C225.73,-20.5 234.32,-20.5 242.71,-20.5"/>
<polygon fill="#63b8ff" stroke="#63b8ff" points="242.83,-24 252.83,-20.5 242.83,-17 242.83,-24"/>
</a>
</g>
</g>
<!-- Node3 -->
<g id="Node000003" class="node">
<title>Node3</title>
<g id="a_Node000003"><a xlink:href="namespaceflexxlam_1_1from__bytes.html#ab8c3593a8c91bb527232a403823449e9" target="_top" xlink:title="Convert 1~4 bytes to int.">
<polygon fill="white" stroke="#666666" points="562,-35.5 441,-35.5 441,-5.5 562,-5.5 562,-35.5"/>
<text text-anchor="start" x="449" y="-23.5" font-family="Helvetica,sans-Serif" font-size="10.00">flexxlam::from_bytes</text>
<text text-anchor="middle" x="501.5" y="-12.5" font-family="Helvetica,sans-Serif" font-size="10.00">::to_int</text>
</a>
</g>
</g>
<!-- Node2&#45;&gt;Node3 -->
<g id="edge2_Node000002_Node000003" class="edge">
<title>Node2&#45;&gt;Node3</title>
<g id="a_edge2_Node000002_Node000003"><a xlink:title=" ">
<path fill="none" stroke="#63b8ff" d="M405.28,-20.5C413.78,-20.5 422.41,-20.5 430.83,-20.5"/>
<polygon fill="#63b8ff" stroke="#63b8ff" points="430.98,-24 440.98,-20.5 430.98,-17 430.98,-24"/>
</a>
</g>
</g>
<!-- Node3&#45;&gt;Node3 -->
<g id="edge3_Node000003_Node000003" class="edge">
<title>Node3&#45;&gt;Node3</title>
<g id="a_edge3_Node000003_Node000003"><a xlink:title=" ">
<path fill="none" stroke="#63b8ff" d="M471.27,-35.78C464.55,-44.91 474.62,-53.5 501.5,-53.5 517.46,-53.5 527.49,-50.47 531.61,-46.1"/>
<polygon fill="#63b8ff" stroke="#63b8ff" points="535.11,-45.82 531.73,-35.78 528.11,-45.73 535.11,-45.82"/>
</a>
</g>
</g>
</g>
</svg>
