<?xml version="1.0" encoding="UTF-8" standalone="no"?>
<!DOCTYPE svg PUBLIC "-//W3C//DTD SVG 1.1//EN"
 "http://www.w3.org/Graphics/SVG/1.1/DTD/svg11.dtd">
<!-- Generated by graphviz version 2.43.0 (0)
 -->
<!-- Title: flexxlam::ResponseMavlinkCommunicationConfig::ResponseMavlinkCommunicationConfig Pages: 1 -->
<svg width="368pt" height="62pt"
 viewBox="0.00 0.00 368.00 61.50" xmlns="http://www.w3.org/2000/svg" xmlns:xlink="http://www.w3.org/1999/xlink">
<g id="graph0" class="graph" transform="scale(1 1) rotate(0) translate(4 57.5)">
<title>flexxlam::ResponseMavlinkCommunicationConfig::ResponseMavlinkCommunicationConfig</title>
<!-- Node1 -->
<g id="Node000001" class="node">
<title>Node1</title>
<g id="a_Node000001"><a xlink:title="Response mavlink communication config protocol constructor.">
<polygon fill="#999999" stroke="#666666" points="217,-41 0,-41 0,0 217,0 217,-41"/>
<text text-anchor="start" x="8" y="-29" font-family="Helvetica,sans-Serif" font-size="10.00">flexxlam::ResponseMavlink</text>
<text text-anchor="start" x="8" y="-18" font-family="Helvetica,sans-Serif" font-size="10.00">CommunicationConfig::ResponseMavlink</text>
<text text-anchor="middle" x="108.5" y="-7" font-family="Helvetica,sans-Serif" font-size="10.00">CommunicationConfig</text>
</a>
</g>
</g>
<!-- Node2 -->
<g id="Node000002" class="node">
<title>Node2</title>
<g id="a_Node000002"><a xlink:href="namespaceflexxlam_1_1to__bytes.html#a3a4e276d701d00ad7432e6bdbba14340" target="_top" xlink:title="Convert double to 4 bytes This function converts double to float and then convert it to 4 bytes.">
<polygon fill="white" stroke="#666666" points="360,-35.5 253,-35.5 253,-5.5 360,-5.5 360,-35.5"/>
<text text-anchor="start" x="261" y="-23.5" font-family="Helvetica,sans-Serif" font-size="10.00">flexxlam::to_bytes</text>
<text text-anchor="middle" x="306.5" y="-12.5" font-family="Helvetica,sans-Serif" font-size="10.00">::four</text>
</a>
</g>
</g>
<!-- Node1&#45;&gt;Node2 -->
<g id="edge1_Node000001_Node000002" class="edge">
<title>Node1&#45;&gt;Node2</title>
<g id="a_edge1_Node000001_Node000002"><a xlink:title=" ">
<path fill="none" stroke="#63b8ff" d="M217.25,-20.5C225.88,-20.5 234.41,-20.5 242.56,-20.5"/>
<polygon fill="#63b8ff" stroke="#63b8ff" points="242.68,-24 252.68,-20.5 242.68,-17 242.68,-24"/>
</a>
</g>
</g>
<!-- Node2&#45;&gt;Node2 -->
<g id="edge2_Node000002_Node000002" class="edge">
<title>Node2&#45;&gt;Node2</title>
<g id="a_edge2_Node000002_Node000002"><a xlink:title=" ">
<path fill="none" stroke="#63b8ff" d="M271.7,-35.78C263.96,-44.91 275.56,-53.5 306.5,-53.5 324.87,-53.5 336.42,-50.47 341.16,-46.1"/>
<polygon fill="#63b8ff" stroke="#63b8ff" points="344.66,-45.82 341.3,-35.78 337.66,-45.72 344.66,-45.82"/>
</a>
</g>
</g>
</g>
</svg>
