<?xml version="1.0" encoding="UTF-8" standalone="no"?>
<!DOCTYPE svg PUBLIC "-//W3C//DTD SVG 1.1//EN"
 "http://www.w3.org/Graphics/SVG/1.1/DTD/svg11.dtd">
<!-- Generated by graphviz version 2.43.0 (0)
 -->
<!-- Title: flexxlam::SetSerialCommunicationConfigProtocol::SetSerialCommunicationConfigProtocol Pages: 1 -->
<svg width="601pt" height="62pt"
 viewBox="0.00 0.00 601.00 61.50" xmlns="http://www.w3.org/2000/svg" xmlns:xlink="http://www.w3.org/1999/xlink">
<g id="graph0" class="graph" transform="scale(1 1) rotate(0) translate(4 57.5)">
<title>flexxlam::SetSerialCommunicationConfigProtocol::SetSerialCommunicationConfigProtocol</title>
<!-- Node1 -->
<g id="Node000001" class="node">
<title>Node1</title>
<g id="a_Node000001"><a xlink:title="Set serial communication config protocol constructor.">
<polygon fill="#999999" stroke="#666666" points="214,-41 0,-41 0,0 214,0 214,-41"/>
<text text-anchor="start" x="8" y="-29" font-family="Helvetica,sans-Serif" font-size="10.00">flexxlam::SetSerialCommunication</text>
<text text-anchor="start" x="8" y="-18" font-family="Helvetica,sans-Serif" font-size="10.00">ConfigProtocol::SetSerialCommunication</text>
<text text-anchor="middle" x="107" y="-7" font-family="Helvetica,sans-Serif" font-size="10.00">ConfigProtocol</text>
</a>
</g>
</g>
<!-- Node2 -->
<g id="Node000002" class="node">
<title>Node2</title>
<g id="a_Node000002"><a xlink:href="classflexxlam_1_1SetSerialCommunicationConfigProtocol.html#a89e809d1a2ae19fb0db5bd7c3a9a9096" target="_top" xlink:title="Initialize enabled_ and baudrate_ from payload">
<polygon fill="white" stroke="#666666" points="436,-41 250,-41 250,0 436,0 436,-41"/>
<text text-anchor="start" x="258" y="-29" font-family="Helvetica,sans-Serif" font-size="10.00">flexxlam::SetSerialCommunication</text>
<text text-anchor="start" x="258" y="-18" font-family="Helvetica,sans-Serif" font-size="10.00">ConfigProtocol::init_from</text>
<text text-anchor="middle" x="343" y="-7" font-family="Helvetica,sans-Serif" font-size="10.00">_payload_</text>
</a>
</g>
</g>
<!-- Node1&#45;&gt;Node2 -->
<g id="edge1_Node000001_Node000002" class="edge">
<title>Node1&#45;&gt;Node2</title>
<g id="a_edge1_Node000001_Node000002"><a xlink:title=" ">
<path fill="none" stroke="#63b8ff" d="M214.05,-20.5C222.65,-20.5 231.33,-20.5 239.91,-20.5"/>
<polygon fill="#63b8ff" stroke="#63b8ff" points="239.92,-24 249.92,-20.5 239.92,-17 239.92,-24"/>
</a>
</g>
</g>
<!-- Node3 -->
<g id="Node000003" class="node">
<title>Node3</title>
<g id="a_Node000003"><a xlink:href="namespaceflexxlam_1_1from__bytes.html#ab8c3593a8c91bb527232a403823449e9" target="_top" xlink:title="Convert 1~4 bytes to int.">
<polygon fill="white" stroke="#666666" points="593,-35.5 472,-35.5 472,-5.5 593,-5.5 593,-35.5"/>
<text text-anchor="start" x="480" y="-23.5" font-family="Helvetica,sans-Serif" font-size="10.00">flexxlam::from_bytes</text>
<text text-anchor="middle" x="532.5" y="-12.5" font-family="Helvetica,sans-Serif" font-size="10.00">::to_int</text>
</a>
</g>
</g>
<!-- Node2&#45;&gt;Node3 -->
<g id="edge2_Node000002_Node000003" class="edge">
<title>Node2&#45;&gt;Node3</title>
<g id="a_edge2_Node000002_Node000003"><a xlink:title=" ">
<path fill="none" stroke="#63b8ff" d="M436.1,-20.5C444.73,-20.5 453.37,-20.5 461.74,-20.5"/>
<polygon fill="#63b8ff" stroke="#63b8ff" points="461.8,-24 471.8,-20.5 461.8,-17 461.8,-24"/>
</a>
</g>
</g>
<!-- Node3&#45;&gt;Node3 -->
<g id="edge3_Node000003_Node000003" class="edge">
<title>Node3&#45;&gt;Node3</title>
<g id="a_edge3_Node000003_Node000003"><a xlink:title=" ">
<path fill="none" stroke="#63b8ff" d="M499.45,-35.78C492.11,-44.91 503.12,-53.5 532.5,-53.5 549.94,-53.5 560.91,-50.47 565.41,-46.1"/>
<polygon fill="#63b8ff" stroke="#63b8ff" points="568.91,-45.82 565.55,-35.78 561.91,-45.73 568.91,-45.82"/>
</a>
</g>
</g>
</g>
</svg>
