<?xml version="1.0" encoding="UTF-8" standalone="no"?>
<!DOCTYPE svg PUBLIC "-//W3C//DTD SVG 1.1//EN"
 "http://www.w3.org/Graphics/SVG/1.1/DTD/svg11.dtd">
<!-- Generated by graphviz version 2.43.0 (0)
 -->
<!-- Title: flexxlam::PingProtocol Pages: 1 -->
<svg width="203pt" height="820pt"
 viewBox="0.00 0.00 203.00 820.00" xmlns="http://www.w3.org/2000/svg" xmlns:xlink="http://www.w3.org/1999/xlink">
<g id="graph0" class="graph" transform="scale(1 1) rotate(0) translate(4 816)">
<title>flexxlam::PingProtocol</title>
<!-- Node1 -->
<g id="Node000001" class="node">
<title>Node1</title>
<g id="a_Node000001"><a xlink:title="Ping protocol.">
<polygon fill="#999999" stroke="transparent" points="183.5,-171 11.5,-171 11.5,0 183.5,0 183.5,-171"/>
<text text-anchor="start" x="42.5" y="-158.5" font-family="Helvetica,sans-Serif" font-size="10.00">flexxlam::PingProtocol</text>
<text text-anchor="start" x="95.5" y="-143.5" font-family="Helvetica,sans-Serif" font-size="10.00"> </text>
<text text-anchor="start" x="15.5" y="-128.5" font-family="Helvetica,sans-Serif" font-size="10.00">+</text>
<text text-anchor="start" x="28.5" y="-128.5" font-family="Helvetica,sans-Serif" font-size="10.00">PingProtocol()</text>
<text text-anchor="start" x="15.5" y="-113.5" font-family="Helvetica,sans-Serif" font-size="10.00">+</text>
<text text-anchor="start" x="28.5" y="-113.5" font-family="Helvetica,sans-Serif" font-size="10.00">PingProtocol(const</text>
<text text-anchor="start" x="28.5" y="-102.5" font-family="Helvetica,sans-Serif" font-size="10.00"> std::vector&lt; uint8</text>
<text text-anchor="start" x="28.5" y="-91.5" font-family="Helvetica,sans-Serif" font-size="10.00">_t &gt; &amp;bytes, bool payload</text>
<text text-anchor="start" x="28.5" y="-80.5" font-family="Helvetica,sans-Serif" font-size="10.00">_only=false)</text>
<text text-anchor="start" x="15.5" y="-65.5" font-family="Helvetica,sans-Serif" font-size="10.00">+</text>
<text text-anchor="start" x="28.5" y="-65.5" font-family="Helvetica,sans-Serif" font-size="10.00">void handle_callback</text>
<text text-anchor="start" x="28.5" y="-54.5" font-family="Helvetica,sans-Serif" font-size="10.00">(const vector&lt; ParsedMessage</text>
<text text-anchor="start" x="28.5" y="-43.5" font-family="Helvetica,sans-Serif" font-size="10.00">Interface * &gt; &amp;callbacks)</text>
<text text-anchor="start" x="28.5" y="-32.5" font-family="Helvetica,sans-Serif" font-size="10.00"> override</text>
<text text-anchor="start" x="15.5" y="-17.5" font-family="Helvetica,sans-Serif" font-size="10.00">#</text>
<text text-anchor="start" x="28.5" y="-17.5" font-family="Helvetica,sans-Serif" font-size="10.00">void init_from_payload</text>
<text text-anchor="start" x="28.5" y="-6.5" font-family="Helvetica,sans-Serif" font-size="10.00">_() override</text>
<polygon fill="#666666" stroke="#666666" points="11.5,-153.5 11.5,-153.5 183.5,-153.5 183.5,-153.5 11.5,-153.5"/>
<polygon fill="#666666" stroke="#666666" points="11.5,-138.5 11.5,-138.5 183.5,-138.5 183.5,-138.5 11.5,-138.5"/>
<polygon fill="none" stroke="#666666" points="11.5,0 11.5,-171 183.5,-171 183.5,0 11.5,0"/>
</a>
</g>
</g>
<!-- Node2 -->
<g id="Node000002" class="node">
<title>Node2</title>
<g id="a_Node000002"><a xlink:href="classflexxlam_1_1BaseProtocol.html" target="_top" xlink:title="Base protocol for communication.">
<polygon fill="white" stroke="transparent" points="195,-620 0,-620 0,-208 195,-208 195,-620"/>
<text text-anchor="start" x="41.5" y="-608" font-family="Helvetica,sans-Serif" font-size="10.00">flexxlam::BaseProtocol</text>
<text text-anchor="start" x="4.5" y="-593" font-family="Helvetica,sans-Serif" font-size="10.00">#</text>
<text text-anchor="start" x="17.5" y="-593" font-family="Helvetica,sans-Serif" font-size="10.00">std::array&lt; uint8_t,</text>
<text text-anchor="start" x="17.5" y="-582" font-family="Helvetica,sans-Serif" font-size="10.00"> 2 &gt; mode_</text>
<text text-anchor="start" x="4.5" y="-567" font-family="Helvetica,sans-Serif" font-size="10.00">#</text>
<text text-anchor="start" x="17.5" y="-567" font-family="Helvetica,sans-Serif" font-size="10.00">bool is_valid_</text>
<text text-anchor="start" x="4.5" y="-552" font-family="Helvetica,sans-Serif" font-size="10.00">+</text>
<text text-anchor="start" x="17.5" y="-552" font-family="Helvetica,sans-Serif" font-size="10.00">BaseProtocol(const</text>
<text text-anchor="start" x="17.5" y="-541" font-family="Helvetica,sans-Serif" font-size="10.00"> std::array&lt; uint8_t,</text>
<text text-anchor="start" x="17.5" y="-530" font-family="Helvetica,sans-Serif" font-size="10.00"> 2 &gt; mode)</text>
<text text-anchor="start" x="4.5" y="-515" font-family="Helvetica,sans-Serif" font-size="10.00">+</text>
<text text-anchor="start" x="17.5" y="-515" font-family="Helvetica,sans-Serif" font-size="10.00">BaseProtocol(const</text>
<text text-anchor="start" x="17.5" y="-504" font-family="Helvetica,sans-Serif" font-size="10.00"> vector&lt; uint8_t &gt; &amp;bytes,</text>
<text text-anchor="start" x="17.5" y="-493" font-family="Helvetica,sans-Serif" font-size="10.00"> std::array&lt; uint8_t, 2</text>
<text text-anchor="start" x="17.5" y="-482" font-family="Helvetica,sans-Serif" font-size="10.00"> &gt; mode, bool payload_only=false)</text>
<text text-anchor="start" x="4.5" y="-467" font-family="Helvetica,sans-Serif" font-size="10.00">+</text>
<text text-anchor="start" x="17.5" y="-467" font-family="Helvetica,sans-Serif" font-size="10.00">~BaseProtocol()</text>
<text text-anchor="start" x="4.5" y="-452" font-family="Helvetica,sans-Serif" font-size="10.00">+</text>
<text text-anchor="start" x="17.5" y="-452" font-family="Helvetica,sans-Serif" font-size="10.00">vector&lt; uint8_t &gt; get</text>
<text text-anchor="start" x="17.5" y="-441" font-family="Helvetica,sans-Serif" font-size="10.00">_payload()</text>
<text text-anchor="start" x="4.5" y="-426" font-family="Helvetica,sans-Serif" font-size="10.00">+</text>
<text text-anchor="start" x="17.5" y="-426" font-family="Helvetica,sans-Serif" font-size="10.00">bool is_valid()</text>
<text text-anchor="start" x="4.5" y="-411" font-family="Helvetica,sans-Serif" font-size="10.00">+</text>
<text text-anchor="start" x="17.5" y="-411" font-family="Helvetica,sans-Serif" font-size="10.00">virtual vector&lt; uint8</text>
<text text-anchor="start" x="17.5" y="-400" font-family="Helvetica,sans-Serif" font-size="10.00">_t &gt; encapsulate()</text>
<text text-anchor="start" x="4.5" y="-385" font-family="Helvetica,sans-Serif" font-size="10.00">+</text>
<text text-anchor="start" x="17.5" y="-385" font-family="Helvetica,sans-Serif" font-size="10.00">virtual void handle</text>
<text text-anchor="start" x="17.5" y="-374" font-family="Helvetica,sans-Serif" font-size="10.00">_callback(const vector</text>
<text text-anchor="start" x="17.5" y="-363" font-family="Helvetica,sans-Serif" font-size="10.00">&lt; ParsedMessageInterface</text>
<text text-anchor="start" x="17.5" y="-352" font-family="Helvetica,sans-Serif" font-size="10.00"> * &gt; &amp;callbacks)=0</text>
<text text-anchor="start" x="4.5" y="-337" font-family="Helvetica,sans-Serif" font-size="10.00">+</text>
<text text-anchor="start" x="17.5" y="-337" font-family="Helvetica,sans-Serif" font-size="10.00">static std::array&lt;</text>
<text text-anchor="start" x="17.5" y="-326" font-family="Helvetica,sans-Serif" font-size="10.00"> uint8_t, 2 &gt; get_checksum</text>
<text text-anchor="start" x="17.5" y="-315" font-family="Helvetica,sans-Serif" font-size="10.00">(vector&lt; uint8_t &gt; mode,</text>
<text text-anchor="start" x="17.5" y="-304" font-family="Helvetica,sans-Serif" font-size="10.00"> vector&lt; uint8_t &gt; length,</text>
<text text-anchor="start" x="17.5" y="-293" font-family="Helvetica,sans-Serif" font-size="10.00"> vector&lt; uint8_t &gt; payload)</text>
<text text-anchor="start" x="4.5" y="-278" font-family="Helvetica,sans-Serif" font-size="10.00">#</text>
<text text-anchor="start" x="17.5" y="-278" font-family="Helvetica,sans-Serif" font-size="10.00">vector&lt; uint8_t &gt; encapsulate</text>
<text text-anchor="start" x="17.5" y="-267" font-family="Helvetica,sans-Serif" font-size="10.00">_(vector&lt; uint8_t &gt; payload)</text>
<text text-anchor="start" x="4.5" y="-252" font-family="Helvetica,sans-Serif" font-size="10.00">#</text>
<text text-anchor="start" x="17.5" y="-252" font-family="Helvetica,sans-Serif" font-size="10.00">vector&lt; uint8_t &gt; decapsulate</text>
<text text-anchor="start" x="17.5" y="-241" font-family="Helvetica,sans-Serif" font-size="10.00">_(vector&lt; uint8_t &gt; bytes)</text>
<text text-anchor="start" x="4.5" y="-226" font-family="Helvetica,sans-Serif" font-size="10.00">#</text>
<text text-anchor="start" x="17.5" y="-226" font-family="Helvetica,sans-Serif" font-size="10.00">virtual void init_from</text>
<text text-anchor="start" x="17.5" y="-215" font-family="Helvetica,sans-Serif" font-size="10.00">_payload_()=0</text>
<polygon fill="#666666" stroke="#666666" points="0.5,-603 0.5,-603 195.5,-603 195.5,-603 0.5,-603"/>
<polygon fill="#666666" stroke="#666666" points="0.5,-562 0.5,-562 15.5,-562 15.5,-562 0.5,-562"/>
<polygon fill="#666666" stroke="#666666" points="15.5,-562 15.5,-562 195.5,-562 195.5,-562 15.5,-562"/>
<polygon fill="none" stroke="#666666" points="0,-208 0,-620 195,-620 195,-208 0,-208"/>
</a>
</g>
</g>
<!-- Node2&#45;&gt;Node1 -->
<g id="edge1_Node000001_Node000002" class="edge">
<title>Node2&#45;&gt;Node1</title>
<g id="a_edge1_Node000001_Node000002"><a xlink:title=" ">
<path fill="none" stroke="#63b8ff" d="M97.5,-197.33C97.5,-188.3 97.5,-179.52 97.5,-171.1"/>
<polygon fill="none" stroke="#63b8ff" points="94,-197.61 97.5,-207.61 101,-197.61 94,-197.61"/>
</a>
</g>
</g>
<!-- Node3 -->
<g id="Node000003" class="node">
<title>Node3</title>
<g id="a_Node000003"><a xlink:title=" ">
<polygon fill="white" stroke="transparent" points="146.5,-716 48.5,-716 48.5,-667 146.5,-667 146.5,-716"/>
<text text-anchor="start" x="53.5" y="-703.5" font-family="Helvetica,sans-Serif" font-size="10.00">vector&lt; uint8_t &gt;</text>
<text text-anchor="start" x="95.5" y="-688.5" font-family="Helvetica,sans-Serif" font-size="10.00"> </text>
<text text-anchor="start" x="95.5" y="-673.5" font-family="Helvetica,sans-Serif" font-size="10.00"> </text>
<polygon fill="#bfbfbf" stroke="#bfbfbf" points="48.5,-698.5 48.5,-698.5 146.5,-698.5 146.5,-698.5 48.5,-698.5"/>
<polygon fill="#bfbfbf" stroke="#bfbfbf" points="48.5,-683.5 48.5,-683.5 146.5,-683.5 146.5,-683.5 48.5,-683.5"/>
<polygon fill="none" stroke="#bfbfbf" points="48.5,-667 48.5,-716 146.5,-716 146.5,-667 48.5,-667"/>
</a>
</g>
</g>
<!-- Node3&#45;&gt;Node2 -->
<g id="edge2_Node000002_Node000003" class="edge">
<title>Node3&#45;&gt;Node2</title>
<g id="a_edge2_Node000002_Node000003"><a xlink:title=" ">
<path fill="none" stroke="#63b8ff" d="M97.5,-666.53C97.5,-657.21 97.5,-645.62 97.5,-632.56"/>
<polygon fill="none" stroke="#63b8ff" points="97.5,-632.19 93.5,-626.19 97.5,-620.19 101.5,-626.19 97.5,-632.19"/>
</a>
</g>
<text text-anchor="middle" x="125.5" y="-641" font-family="Helvetica,sans-Serif" font-size="10.00" fill="grey"> #payload_</text>
</g>
<!-- Node4 -->
<g id="Node000004" class="node">
<title>Node4</title>
<g id="a_Node000004"><a xlink:title=" ">
<polygon fill="white" stroke="transparent" points="118,-812 77,-812 77,-763 118,-763 118,-812"/>
<text text-anchor="start" x="82.5" y="-799.5" font-family="Helvetica,sans-Serif" font-size="10.00">vector</text>
<text text-anchor="start" x="96" y="-784.5" font-family="Helvetica,sans-Serif" font-size="10.00"> </text>
<text text-anchor="start" x="96" y="-769.5" font-family="Helvetica,sans-Serif" font-size="10.00"> </text>
<polygon fill="#bfbfbf" stroke="#bfbfbf" points="77.5,-794.5 77.5,-794.5 118.5,-794.5 118.5,-794.5 77.5,-794.5"/>
<polygon fill="#bfbfbf" stroke="#bfbfbf" points="77.5,-779.5 77.5,-779.5 118.5,-779.5 118.5,-779.5 77.5,-779.5"/>
<polygon fill="none" stroke="#bfbfbf" points="77,-763 77,-812 118,-812 118,-763 77,-763"/>
</a>
</g>
</g>
<!-- Node4&#45;&gt;Node3 -->
<g id="edge3_Node000003_Node000004" class="edge">
<title>Node4&#45;&gt;Node3</title>
<g id="a_edge3_Node000003_Node000004"><a xlink:title=" ">
<path fill="none" stroke="orange" d="M97.5,-752.6C97.5,-740.54 97.5,-727.23 97.5,-716.21"/>
<polygon fill="orange" stroke="orange" points="94,-752.78 97.5,-762.78 101,-752.78 94,-752.78"/>
</a>
</g>
<text text-anchor="middle" x="127.5" y="-737" font-family="Helvetica,sans-Serif" font-size="10.00" fill="grey"> &lt; uint8_t &gt;</text>
</g>
</g>
</svg>
