<?xml version="1.0" encoding="UTF-8" standalone="no"?>
<!DOCTYPE svg PUBLIC "-//W3C//DTD SVG 1.1//EN"
 "http://www.w3.org/Graphics/SVG/1.1/DTD/svg11.dtd">
<!-- Generated by graphviz version 2.43.0 (0)
 -->
<!-- Title: flexxlam::UDPCommunication::run Pages: 1 -->
<svg width="393pt" height="86pt"
 viewBox="0.00 0.00 393.00 86.00" xmlns="http://www.w3.org/2000/svg" xmlns:xlink="http://www.w3.org/1999/xlink">
<g id="graph0" class="graph" transform="scale(1 1) rotate(0) translate(4 82)">
<title>flexxlam::UDPCommunication::run</title>
<!-- Node1 -->
<g id="Node000001" class="node">
<title>Node1</title>
<g id="a_Node000001"><a xlink:title="Start UDP communication thread Once this function is called, UDP communication thread is started in t...">
<polygon fill="#999999" stroke="#666666" points="185,-48.5 0,-48.5 0,-29.5 185,-29.5 185,-48.5"/>
<text text-anchor="middle" x="92.5" y="-36.5" font-family="Helvetica,sans-Serif" font-size="10.00">flexxlam::UDPCommunication::run</text>
</a>
</g>
</g>
<!-- Node2 -->
<g id="Node000002" class="node">
<title>Node2</title>
<g id="a_Node000002"><a xlink:href="classflexxlam_1_1UDPCommunication.html#a1da2c80d9bdeadfd9aa183c5f48f65e6" target="_top" xlink:title="Open serial port.">
<polygon fill="white" stroke="#666666" points="385,-78 221,-78 221,-48 385,-48 385,-78"/>
<text text-anchor="start" x="229" y="-66" font-family="Helvetica,sans-Serif" font-size="10.00">flexxlam::UDPCommunication</text>
<text text-anchor="middle" x="303" y="-55" font-family="Helvetica,sans-Serif" font-size="10.00">::open_</text>
</a>
</g>
</g>
<!-- Node1&#45;&gt;Node2 -->
<g id="edge1_Node000001_Node000002" class="edge">
<title>Node1&#45;&gt;Node2</title>
<g id="a_edge1_Node000001_Node000002"><a xlink:title=" ">
<path fill="none" stroke="#63b8ff" d="M176.2,-48.52C187.55,-49.83 199.25,-51.17 210.73,-52.49"/>
<polygon fill="#63b8ff" stroke="#63b8ff" points="210.42,-55.98 220.76,-53.65 211.22,-49.03 210.42,-55.98"/>
</a>
</g>
</g>
<!-- Node3 -->
<g id="Node000003" class="node">
<title>Node3</title>
<g id="a_Node000003"><a xlink:href="classflexxlam_1_1UDPCommunication.html#a135db49a51f7fa86cfbe6d8bdd888741" target="_top" xlink:title="Serial communication thread.">
<polygon fill="white" stroke="#666666" points="385,-30 221,-30 221,0 385,0 385,-30"/>
<text text-anchor="start" x="229" y="-18" font-family="Helvetica,sans-Serif" font-size="10.00">flexxlam::UDPCommunication</text>
<text text-anchor="middle" x="303" y="-7" font-family="Helvetica,sans-Serif" font-size="10.00">::run_</text>
</a>
</g>
</g>
<!-- Node1&#45;&gt;Node3 -->
<g id="edge2_Node000001_Node000003" class="edge">
<title>Node1&#45;&gt;Node3</title>
<g id="a_edge2_Node000001_Node000003"><a xlink:title=" ">
<path fill="none" stroke="#63b8ff" d="M176.2,-29.48C187.55,-28.17 199.25,-26.83 210.73,-25.51"/>
<polygon fill="#63b8ff" stroke="#63b8ff" points="211.22,-28.97 220.76,-24.35 210.42,-22.02 211.22,-28.97"/>
</a>
</g>
</g>
</g>
</svg>
