<?xml version="1.0" encoding="UTF-8" standalone="no"?>
<!DOCTYPE svg PUBLIC "-//W3C//DTD SVG 1.1//EN"
 "http://www.w3.org/Graphics/SVG/1.1/DTD/svg11.dtd">
<!-- Generated by graphviz version 2.43.0 (0)
 -->
<!-- Title: flexxlam::CommandSavePCDProtocol::CommandSavePCDProtocol Pages: 1 -->
<svg width="609pt" height="38pt"
 viewBox="0.00 0.00 609.00 38.00" xmlns="http://www.w3.org/2000/svg" xmlns:xlink="http://www.w3.org/1999/xlink">
<g id="graph0" class="graph" transform="scale(1 1) rotate(0) translate(4 34)">
<title>flexxlam::CommandSavePCDProtocol::CommandSavePCDProtocol</title>
<!-- Node1 -->
<g id="Node000001" class="node">
<title>Node1</title>
<g id="a_Node000001"><a xlink:title="Command save PCD protocoll constructor.">
<polygon fill="#999999" stroke="#666666" points="200,-30 0,-30 0,0 200,0 200,-30"/>
<text text-anchor="start" x="8" y="-18" font-family="Helvetica,sans-Serif" font-size="10.00">flexxlam::CommandSavePCDProtocol</text>
<text text-anchor="middle" x="100" y="-7" font-family="Helvetica,sans-Serif" font-size="10.00">::CommandSavePCDProtocol</text>
</a>
</g>
</g>
<!-- Node2 -->
<g id="Node000002" class="node">
<title>Node2</title>
<g id="a_Node000002"><a xlink:href="classflexxlam_1_1CommandSavePCDProtocol.html#a938780e4b831b158fac7da2a5229e96b" target="_top" xlink:title="initialize save_ and reset_ from payload">
<polygon fill="white" stroke="#666666" points="436,-30 236,-30 236,0 436,0 436,-30"/>
<text text-anchor="start" x="244" y="-18" font-family="Helvetica,sans-Serif" font-size="10.00">flexxlam::CommandSavePCDProtocol</text>
<text text-anchor="middle" x="336" y="-7" font-family="Helvetica,sans-Serif" font-size="10.00">::init_from_payload_</text>
</a>
</g>
</g>
<!-- Node1&#45;&gt;Node2 -->
<g id="edge1_Node000001_Node000002" class="edge">
<title>Node1&#45;&gt;Node2</title>
<g id="a_edge1_Node000001_Node000002"><a xlink:title=" ">
<path fill="none" stroke="#63b8ff" d="M200.24,-15C208.74,-15 217.38,-15 225.95,-15"/>
<polygon fill="#63b8ff" stroke="#63b8ff" points="225.98,-18.5 235.98,-15 225.98,-11.5 225.98,-18.5"/>
</a>
</g>
</g>
<!-- Node3 -->
<g id="Node000003" class="node">
<title>Node3</title>
<g id="a_Node000003"><a xlink:href="classflexxlam_1_1BaseProtocol.html#a38447cf7f8d44a513e18010adb8b24ac" target="_top" xlink:title="Get the validity of the protocol.">
<polygon fill="white" stroke="#666666" points="601,-30 472,-30 472,0 601,0 601,-30"/>
<text text-anchor="start" x="480" y="-18" font-family="Helvetica,sans-Serif" font-size="10.00">flexxlam::BaseProtocol</text>
<text text-anchor="middle" x="536.5" y="-7" font-family="Helvetica,sans-Serif" font-size="10.00">::is_valid</text>
</a>
</g>
</g>
<!-- Node2&#45;&gt;Node3 -->
<g id="edge2_Node000002_Node000003" class="edge">
<title>Node2&#45;&gt;Node3</title>
<g id="a_edge2_Node000002_Node000003"><a xlink:title=" ">
<path fill="none" stroke="#63b8ff" d="M436.25,-15C444.86,-15 453.48,-15 461.83,-15"/>
<polygon fill="#63b8ff" stroke="#63b8ff" points="461.87,-18.5 471.87,-15 461.87,-11.5 461.87,-18.5"/>
</a>
</g>
</g>
</g>
</svg>
