<?xml version="1.0" encoding="UTF-8" standalone="no"?>
<!DOCTYPE svg PUBLIC "-//W3C//DTD SVG 1.1//EN"
 "http://www.w3.org/Graphics/SVG/1.1/DTD/svg11.dtd">
<!-- Generated by graphviz version 2.43.0 (0)
 -->
<!-- Title: flexxlam::SerialCommunication Pages: 1 -->
<svg width="172pt" height="261pt"
 viewBox="0.00 0.00 172.00 261.00" xmlns="http://www.w3.org/2000/svg" xmlns:xlink="http://www.w3.org/1999/xlink">
<g id="graph0" class="graph" transform="scale(1 1) rotate(0) translate(4 257)">
<title>flexxlam::SerialCommunication</title>
<!-- Node1 -->
<g id="Node000001" class="node">
<title>Node1</title>
<g id="a_Node000001"><a xlink:title="Serial communication.">
<polygon fill="#999999" stroke="transparent" points="164,-253 0,-253 0,0 164,0 164,-253"/>
<text text-anchor="start" x="5" y="-240.5" font-family="Helvetica,sans-Serif" font-size="10.00">flexxlam::SerialCommunication</text>
<text text-anchor="start" x="8" y="-225.5" font-family="Helvetica,sans-Serif" font-size="10.00">+</text>
<text text-anchor="start" x="25" y="-225.5" font-family="Helvetica,sans-Serif" font-size="10.00">static const std::map</text>
<text text-anchor="start" x="25" y="-214.5" font-family="Helvetica,sans-Serif" font-size="10.00">&lt; int, LibSerial::BaudRate</text>
<text text-anchor="start" x="25" y="-203.5" font-family="Helvetica,sans-Serif" font-size="10.00"> &gt; kBaudRateMap</text>
<text text-anchor="start" x="8" y="-188.5" font-family="Helvetica,sans-Serif" font-size="10.00">+</text>
<text text-anchor="start" x="25" y="-188.5" font-family="Helvetica,sans-Serif" font-size="10.00">SerialCommunication</text>
<text text-anchor="start" x="25" y="-177.5" font-family="Helvetica,sans-Serif" font-size="10.00">(const std::string &amp;port</text>
<text text-anchor="start" x="25" y="-166.5" font-family="Helvetica,sans-Serif" font-size="10.00">_name, int baud_rate)</text>
<text text-anchor="start" x="8" y="-151.5" font-family="Helvetica,sans-Serif" font-size="10.00">+</text>
<text text-anchor="start" x="25" y="-151.5" font-family="Helvetica,sans-Serif" font-size="10.00">~SerialCommunication()</text>
<text text-anchor="start" x="8" y="-136.5" font-family="Helvetica,sans-Serif" font-size="10.00">+</text>
<text text-anchor="start" x="25" y="-136.5" font-family="Helvetica,sans-Serif" font-size="10.00">void run()</text>
<text text-anchor="start" x="8" y="-121.5" font-family="Helvetica,sans-Serif" font-size="10.00">+</text>
<text text-anchor="start" x="25" y="-121.5" font-family="Helvetica,sans-Serif" font-size="10.00">void stop()</text>
<text text-anchor="start" x="8" y="-106.5" font-family="Helvetica,sans-Serif" font-size="10.00">+</text>
<text text-anchor="start" x="25" y="-106.5" font-family="Helvetica,sans-Serif" font-size="10.00">bool is_running()</text>
<text text-anchor="start" x="8" y="-91.5" font-family="Helvetica,sans-Serif" font-size="10.00">+</text>
<text text-anchor="start" x="25" y="-91.5" font-family="Helvetica,sans-Serif" font-size="10.00">void write(std::vector</text>
<text text-anchor="start" x="25" y="-80.5" font-family="Helvetica,sans-Serif" font-size="10.00">&lt; uint8_t &gt; bytes)</text>
<text text-anchor="start" x="8" y="-65.5" font-family="Helvetica,sans-Serif" font-size="10.00">+</text>
<text text-anchor="start" x="25" y="-65.5" font-family="Helvetica,sans-Serif" font-size="10.00">void set_callback(std</text>
<text text-anchor="start" x="25" y="-54.5" font-family="Helvetica,sans-Serif" font-size="10.00">::function&lt; void(std</text>
<text text-anchor="start" x="25" y="-43.5" font-family="Helvetica,sans-Serif" font-size="10.00">::vector&lt; uint8_t &gt;)&gt;</text>
<text text-anchor="start" x="25" y="-32.5" font-family="Helvetica,sans-Serif" font-size="10.00"> callback)</text>
<text text-anchor="start" x="8" y="-17.5" font-family="Helvetica,sans-Serif" font-size="10.00">+</text>
<text text-anchor="start" x="25" y="-17.5" font-family="Helvetica,sans-Serif" font-size="10.00">void set_callback(void</text>
<text text-anchor="start" x="25" y="-6.5" font-family="Helvetica,sans-Serif" font-size="10.00">(T::*fp)(M), T *obj)</text>
<polygon fill="#666666" stroke="#666666" points="0,-235.5 0,-235.5 164,-235.5 164,-235.5 0,-235.5"/>
<polygon fill="#666666" stroke="#666666" points="0,-198.5 0,-198.5 23,-198.5 23,-198.5 0,-198.5"/>
<polygon fill="#666666" stroke="#666666" points="23,-198.5 23,-198.5 164,-198.5 164,-198.5 23,-198.5"/>
<polygon fill="none" stroke="#666666" points="0,0 0,-253 164,-253 164,0 0,0"/>
</a>
</g>
</g>
</g>
</svg>
