<?xml version="1.0" encoding="UTF-8" standalone="no"?>
<!DOCTYPE svg PUBLIC "-//W3C//DTD SVG 1.1//EN"
 "http://www.w3.org/Graphics/SVG/1.1/DTD/svg11.dtd">
<!-- Generated by graphviz version 2.43.0 (0)
 -->
<!-- Title: flexxlam::SetEthernetCommunicationConfigProtocol::SetEthernetCommunicationConfigProtocol Pages: 1 -->
<svg width="628pt" height="62pt"
 viewBox="0.00 0.00 628.00 61.50" xmlns="http://www.w3.org/2000/svg" xmlns:xlink="http://www.w3.org/1999/xlink">
<g id="graph0" class="graph" transform="scale(1 1) rotate(0) translate(4 57.5)">
<title>flexxlam::SetEthernetCommunicationConfigProtocol::SetEthernetCommunicationConfigProtocol</title>
<!-- Node1 -->
<g id="Node000001" class="node">
<title>Node1</title>
<g id="a_Node000001"><a xlink:title="Set ethernet communication config protocol constructor.">
<polygon fill="#999999" stroke="#666666" points="227,-41 0,-41 0,0 227,0 227,-41"/>
<text text-anchor="start" x="8" y="-29" font-family="Helvetica,sans-Serif" font-size="10.00">flexxlam::SetEthernetCommunication</text>
<text text-anchor="start" x="8" y="-18" font-family="Helvetica,sans-Serif" font-size="10.00">ConfigProtocol::SetEthernetCommunication</text>
<text text-anchor="middle" x="113.5" y="-7" font-family="Helvetica,sans-Serif" font-size="10.00">ConfigProtocol</text>
</a>
</g>
</g>
<!-- Node2 -->
<g id="Node000002" class="node">
<title>Node2</title>
<g id="a_Node000002"><a xlink:href="classflexxlam_1_1SetEthernetCommunicationConfigProtocol.html#a572cf36439a7eb1a1aee730c9a3f3f73" target="_top" xlink:title="Initialize enabled_ and port_ from payload">
<polygon fill="white" stroke="#666666" points="463,-35.5 263,-35.5 263,-5.5 463,-5.5 463,-35.5"/>
<text text-anchor="start" x="271" y="-23.5" font-family="Helvetica,sans-Serif" font-size="10.00">flexxlam::SetEthernetCommunication</text>
<text text-anchor="middle" x="363" y="-12.5" font-family="Helvetica,sans-Serif" font-size="10.00">ConfigProtocol::init_from_payload_</text>
</a>
</g>
</g>
<!-- Node1&#45;&gt;Node2 -->
<g id="edge1_Node000001_Node000002" class="edge">
<title>Node1&#45;&gt;Node2</title>
<g id="a_edge1_Node000001_Node000002"><a xlink:title=" ">
<path fill="none" stroke="#63b8ff" d="M227.02,-20.5C235.47,-20.5 243.98,-20.5 252.41,-20.5"/>
<polygon fill="#63b8ff" stroke="#63b8ff" points="252.63,-24 262.63,-20.5 252.63,-17 252.63,-24"/>
</a>
</g>
</g>
<!-- Node3 -->
<g id="Node000003" class="node">
<title>Node3</title>
<g id="a_Node000003"><a xlink:href="namespaceflexxlam_1_1from__bytes.html#ab8c3593a8c91bb527232a403823449e9" target="_top" xlink:title="Convert 1~4 bytes to int.">
<polygon fill="white" stroke="#666666" points="620,-35.5 499,-35.5 499,-5.5 620,-5.5 620,-35.5"/>
<text text-anchor="start" x="507" y="-23.5" font-family="Helvetica,sans-Serif" font-size="10.00">flexxlam::from_bytes</text>
<text text-anchor="middle" x="559.5" y="-12.5" font-family="Helvetica,sans-Serif" font-size="10.00">::to_int</text>
</a>
</g>
</g>
<!-- Node2&#45;&gt;Node3 -->
<g id="edge2_Node000002_Node000003" class="edge">
<title>Node2&#45;&gt;Node3</title>
<g id="a_edge2_Node000002_Node000003"><a xlink:title=" ">
<path fill="none" stroke="#63b8ff" d="M463.24,-20.5C471.9,-20.5 480.53,-20.5 488.87,-20.5"/>
<polygon fill="#63b8ff" stroke="#63b8ff" points="488.88,-24 498.88,-20.5 488.88,-17 488.88,-24"/>
</a>
</g>
</g>
<!-- Node3&#45;&gt;Node3 -->
<g id="edge3_Node000003_Node000003" class="edge">
<title>Node3&#45;&gt;Node3</title>
<g id="a_edge3_Node000003_Node000003"><a xlink:title=" ">
<path fill="none" stroke="#63b8ff" d="M525.05,-35.78C517.39,-44.91 528.88,-53.5 559.5,-53.5 577.68,-53.5 589.12,-50.47 593.81,-46.1"/>
<polygon fill="#63b8ff" stroke="#63b8ff" points="597.31,-45.82 593.95,-35.78 590.31,-45.72 597.31,-45.82"/>
</a>
</g>
</g>
</g>
</svg>
