<?xml version="1.0" encoding="UTF-8" standalone="no"?>
<!DOCTYPE svg PUBLIC "-//W3C//DTD SVG 1.1//EN"
 "http://www.w3.org/Graphics/SVG/1.1/DTD/svg11.dtd">
<!-- Generated by graphviz version 2.43.0 (0)
 -->
<!-- Title: flexxlam::BaseProtocol::encapsulate Pages: 1 -->
<svg width="469pt" height="76pt"
 viewBox="0.00 0.00 469.00 75.50" xmlns="http://www.w3.org/2000/svg" xmlns:xlink="http://www.w3.org/1999/xlink">
<g id="graph0" class="graph" transform="scale(1 1) rotate(0) translate(4 71.5)">
<title>flexxlam::BaseProtocol::encapsulate</title>
<!-- Node1 -->
<g id="Node000001" class="node">
<title>Node1</title>
<g id="a_Node000001"><a xlink:title="Encapsulate payload into the protocol.">
<polygon fill="#999999" stroke="#666666" points="129,-45.5 0,-45.5 0,-15.5 129,-15.5 129,-45.5"/>
<text text-anchor="start" x="8" y="-33.5" font-family="Helvetica,sans-Serif" font-size="10.00">flexxlam::BaseProtocol</text>
<text text-anchor="middle" x="64.5" y="-22.5" font-family="Helvetica,sans-Serif" font-size="10.00">::encapsulate</text>
</a>
</g>
</g>
<!-- Node2 -->
<g id="Node000002" class="node">
<title>Node2</title>
<g id="a_Node000002"><a xlink:href="classflexxlam_1_1BaseProtocol.html#a1572edb32a2d5adc643a86295835e2b9" target="_top" xlink:title="Create whole protocol message from payload.">
<polygon fill="white" stroke="#666666" points="294,-45.5 165,-45.5 165,-15.5 294,-15.5 294,-45.5"/>
<text text-anchor="start" x="173" y="-33.5" font-family="Helvetica,sans-Serif" font-size="10.00">flexxlam::BaseProtocol</text>
<text text-anchor="middle" x="229.5" y="-22.5" font-family="Helvetica,sans-Serif" font-size="10.00">::encapsulate_</text>
</a>
</g>
</g>
<!-- Node1&#45;&gt;Node2 -->
<g id="edge1_Node000001_Node000002" class="edge">
<title>Node1&#45;&gt;Node2</title>
<g id="a_edge1_Node000001_Node000002"><a xlink:title=" ">
<path fill="none" stroke="#63b8ff" d="M129.45,-30.5C137.76,-30.5 146.32,-30.5 154.77,-30.5"/>
<polygon fill="#63b8ff" stroke="#63b8ff" points="155,-34 165,-30.5 155,-27 155,-34"/>
</a>
</g>
</g>
<!-- Node3 -->
<g id="Node000003" class="node">
<title>Node3</title>
<g id="a_Node000003"><a xlink:href="classflexxlam_1_1BaseProtocol.html#aa522a89e9d4ccbb40a9171a173291735" target="_top" xlink:title="Get checksum of protocol.">
<polygon fill="white" stroke="#666666" points="460,-67.5 331,-67.5 331,-37.5 460,-37.5 460,-67.5"/>
<text text-anchor="start" x="339" y="-55.5" font-family="Helvetica,sans-Serif" font-size="10.00">flexxlam::BaseProtocol</text>
<text text-anchor="middle" x="395.5" y="-44.5" font-family="Helvetica,sans-Serif" font-size="10.00">::get_checksum</text>
</a>
</g>
</g>
<!-- Node2&#45;&gt;Node3 -->
<g id="edge2_Node000002_Node000003" class="edge">
<title>Node2&#45;&gt;Node3</title>
<g id="a_edge2_Node000002_Node000003"><a xlink:title=" ">
<path fill="none" stroke="#63b8ff" d="M294.38,-39.07C302.97,-40.22 311.85,-41.41 320.6,-42.59"/>
<polygon fill="#63b8ff" stroke="#63b8ff" points="320.42,-46.09 330.8,-43.95 321.35,-39.16 320.42,-46.09"/>
</a>
</g>
</g>
<!-- Node4 -->
<g id="Node000004" class="node">
<title>Node4</title>
<g id="a_Node000004"><a xlink:href="namespaceflexxlam_1_1to__bytes.html#ab5dcb7b82707dabad0a147c9eff13ed8" target="_top" xlink:title="Convert int to 2 bytes with little endian.">
<polygon fill="white" stroke="#666666" points="461,-19 330,-19 330,0 461,0 461,-19"/>
<text text-anchor="middle" x="395.5" y="-7" font-family="Helvetica,sans-Serif" font-size="10.00">flexxlam::to_bytes::two</text>
</a>
</g>
</g>
<!-- Node2&#45;&gt;Node4 -->
<g id="edge3_Node000002_Node000004" class="edge">
<title>Node2&#45;&gt;Node4</title>
<g id="a_edge3_Node000002_Node000004"><a xlink:title=" ">
<path fill="none" stroke="#63b8ff" d="M294.38,-22.32C302.78,-21.24 311.45,-20.13 320.01,-19.04"/>
<polygon fill="#63b8ff" stroke="#63b8ff" points="320.51,-22.5 329.99,-17.76 319.62,-15.56 320.51,-22.5"/>
</a>
</g>
</g>
</g>
</svg>
