<?xml version="1.0" encoding="UTF-8" standalone="no"?>
<!DOCTYPE svg PUBLIC "-//W3C//DTD SVG 1.1//EN"
 "http://www.w3.org/Graphics/SVG/1.1/DTD/svg11.dtd">
<!-- Generated by graphviz version 2.43.0 (0)
 -->
<!-- Title: flexxlam::PushPointCloudProtocol::PushPointCloudProtocol Pages: 1 -->
<svg width="543pt" height="38pt"
 viewBox="0.00 0.00 543.00 38.00" xmlns="http://www.w3.org/2000/svg" xmlns:xlink="http://www.w3.org/1999/xlink">
<g id="graph0" class="graph" transform="scale(1 1) rotate(0) translate(4 34)">
<title>flexxlam::PushPointCloudProtocol::PushPointCloudProtocol</title>
<!-- Node1 -->
<g id="Node000001" class="node">
<title>Node1</title>
<g id="a_Node000001"><a xlink:title="PushPointCloudProtocol constructor.">
<polygon fill="#999999" stroke="#666666" points="178,-30 0,-30 0,0 178,0 178,-30"/>
<text text-anchor="start" x="8" y="-18" font-family="Helvetica,sans-Serif" font-size="10.00">flexxlam::PushPointCloud</text>
<text text-anchor="middle" x="89" y="-7" font-family="Helvetica,sans-Serif" font-size="10.00">Protocol::PushPointCloudProtocol</text>
</a>
</g>
</g>
<!-- Node2 -->
<g id="Node000002" class="node">
<title>Node2</title>
<g id="a_Node000002"><a xlink:href="classflexxlam_1_1PushPointCloudProtocol.html#a4b9dcb8534b3f736fc93cf1d4c9811ed" target="_top" xlink:title="Initialize pointcloud from payload">
<polygon fill="white" stroke="#666666" points="370,-30 214,-30 214,0 370,0 370,-30"/>
<text text-anchor="start" x="222" y="-18" font-family="Helvetica,sans-Serif" font-size="10.00">flexxlam::PushPointCloud</text>
<text text-anchor="middle" x="292" y="-7" font-family="Helvetica,sans-Serif" font-size="10.00">Protocol::init_from_payload_</text>
</a>
</g>
</g>
<!-- Node1&#45;&gt;Node2 -->
<g id="edge1_Node000001_Node000002" class="edge">
<title>Node1&#45;&gt;Node2</title>
<g id="a_edge1_Node000001_Node000002"><a xlink:title=" ">
<path fill="none" stroke="#63b8ff" d="M178.16,-15C186.64,-15 195.23,-15 203.69,-15"/>
<polygon fill="#63b8ff" stroke="#63b8ff" points="203.94,-18.5 213.94,-15 203.94,-11.5 203.94,-18.5"/>
</a>
</g>
</g>
<!-- Node3 -->
<g id="Node000003" class="node">
<title>Node3</title>
<g id="a_Node000003"><a xlink:href="classflexxlam_1_1BaseProtocol.html#a38447cf7f8d44a513e18010adb8b24ac" target="_top" xlink:title="Get the validity of the protocol.">
<polygon fill="white" stroke="#666666" points="535,-30 406,-30 406,0 535,0 535,-30"/>
<text text-anchor="start" x="414" y="-18" font-family="Helvetica,sans-Serif" font-size="10.00">flexxlam::BaseProtocol</text>
<text text-anchor="middle" x="470.5" y="-7" font-family="Helvetica,sans-Serif" font-size="10.00">::is_valid</text>
</a>
</g>
</g>
<!-- Node2&#45;&gt;Node3 -->
<g id="edge2_Node000002_Node000003" class="edge">
<title>Node2&#45;&gt;Node3</title>
<g id="a_edge2_Node000002_Node000003"><a xlink:title=" ">
<path fill="none" stroke="#63b8ff" d="M370.16,-15C378.67,-15 387.31,-15 395.78,-15"/>
<polygon fill="#63b8ff" stroke="#63b8ff" points="395.99,-18.5 405.99,-15 395.99,-11.5 395.99,-18.5"/>
</a>
</g>
</g>
</g>
</svg>
