<?xml version="1.0" encoding="UTF-8" standalone="no"?>
<!DOCTYPE svg PUBLIC "-//W3C//DTD SVG 1.1//EN"
 "http://www.w3.org/Graphics/SVG/1.1/DTD/svg11.dtd">
<!-- Generated by graphviz version 2.43.0 (0)
 -->
<!-- Title: flexxlam::SetSerialCommunicationConfigProtocol Pages: 1 -->
<svg width="219pt" height="894pt"
 viewBox="0.00 0.00 219.00 894.00" xmlns="http://www.w3.org/2000/svg" xmlns:xlink="http://www.w3.org/1999/xlink">
<g id="graph0" class="graph" transform="scale(1 1) rotate(0) translate(4 890)">
<title>flexxlam::SetSerialCommunicationConfigProtocol</title>
<!-- Node1 -->
<g id="Node000001" class="node">
<title>Node1</title>
<g id="a_Node000001"><a xlink:title="Set serial communication config protocol.">
<polygon fill="#999999" stroke="transparent" points="211,-245 0,-245 0,0 211,0 211,-245"/>
<text text-anchor="start" x="21" y="-232.5" font-family="Helvetica,sans-Serif" font-size="10.00">flexxlam::SetSerialCommunication</text>
<text text-anchor="start" x="70.5" y="-221.5" font-family="Helvetica,sans-Serif" font-size="10.00">ConfigProtocol</text>
<text text-anchor="start" x="104" y="-206.5" font-family="Helvetica,sans-Serif" font-size="10.00"> </text>
<text text-anchor="start" x="4.5" y="-191.5" font-family="Helvetica,sans-Serif" font-size="10.00">+</text>
<text text-anchor="start" x="17.5" y="-191.5" font-family="Helvetica,sans-Serif" font-size="10.00">SetSerialCommunicationConfig</text>
<text text-anchor="start" x="17.5" y="-180.5" font-family="Helvetica,sans-Serif" font-size="10.00">Protocol(bool enabled, uint32</text>
<text text-anchor="start" x="17.5" y="-169.5" font-family="Helvetica,sans-Serif" font-size="10.00">_t baudrate)</text>
<text text-anchor="start" x="4.5" y="-154.5" font-family="Helvetica,sans-Serif" font-size="10.00">+</text>
<text text-anchor="start" x="17.5" y="-154.5" font-family="Helvetica,sans-Serif" font-size="10.00">SetSerialCommunicationConfig</text>
<text text-anchor="start" x="17.5" y="-143.5" font-family="Helvetica,sans-Serif" font-size="10.00">Protocol(const vector&lt; uint8</text>
<text text-anchor="start" x="17.5" y="-132.5" font-family="Helvetica,sans-Serif" font-size="10.00">_t &gt; &amp;bytes, bool payload_only=false)</text>
<text text-anchor="start" x="4.5" y="-117.5" font-family="Helvetica,sans-Serif" font-size="10.00">+</text>
<text text-anchor="start" x="17.5" y="-117.5" font-family="Helvetica,sans-Serif" font-size="10.00">void handle_callback</text>
<text text-anchor="start" x="17.5" y="-106.5" font-family="Helvetica,sans-Serif" font-size="10.00">(const vector&lt; ParsedMessage</text>
<text text-anchor="start" x="17.5" y="-95.5" font-family="Helvetica,sans-Serif" font-size="10.00">Interface * &gt; &amp;callbacks)</text>
<text text-anchor="start" x="17.5" y="-84.5" font-family="Helvetica,sans-Serif" font-size="10.00"> override</text>
<text text-anchor="start" x="4.5" y="-69.5" font-family="Helvetica,sans-Serif" font-size="10.00">+</text>
<text text-anchor="start" x="17.5" y="-69.5" font-family="Helvetica,sans-Serif" font-size="10.00">bool get_enabled()</text>
<text text-anchor="start" x="17.5" y="-58.5" font-family="Helvetica,sans-Serif" font-size="10.00"> const</text>
<text text-anchor="start" x="4.5" y="-43.5" font-family="Helvetica,sans-Serif" font-size="10.00">+</text>
<text text-anchor="start" x="17.5" y="-43.5" font-family="Helvetica,sans-Serif" font-size="10.00">uint32_t get_baudrate</text>
<text text-anchor="start" x="17.5" y="-32.5" font-family="Helvetica,sans-Serif" font-size="10.00">() const</text>
<text text-anchor="start" x="4.5" y="-17.5" font-family="Helvetica,sans-Serif" font-size="10.00">#</text>
<text text-anchor="start" x="17.5" y="-17.5" font-family="Helvetica,sans-Serif" font-size="10.00">void init_from_payload</text>
<text text-anchor="start" x="17.5" y="-6.5" font-family="Helvetica,sans-Serif" font-size="10.00">_() override</text>
<polygon fill="#666666" stroke="#666666" points="0.5,-216.5 0.5,-216.5 211.5,-216.5 211.5,-216.5 0.5,-216.5"/>
<polygon fill="#666666" stroke="#666666" points="0.5,-201.5 0.5,-201.5 211.5,-201.5 211.5,-201.5 0.5,-201.5"/>
<polygon fill="none" stroke="#666666" points="0,0 0,-245 211,-245 211,0 0,0"/>
</a>
</g>
</g>
<!-- Node2 -->
<g id="Node000002" class="node">
<title>Node2</title>
<g id="a_Node000002"><a xlink:href="classflexxlam_1_1BaseProtocol.html" target="_top" xlink:title="Base protocol for communication.">
<polygon fill="white" stroke="transparent" points="203,-694 8,-694 8,-282 203,-282 203,-694"/>
<text text-anchor="start" x="49.5" y="-682" font-family="Helvetica,sans-Serif" font-size="10.00">flexxlam::BaseProtocol</text>
<text text-anchor="start" x="12.5" y="-667" font-family="Helvetica,sans-Serif" font-size="10.00">#</text>
<text text-anchor="start" x="25.5" y="-667" font-family="Helvetica,sans-Serif" font-size="10.00">std::array&lt; uint8_t,</text>
<text text-anchor="start" x="25.5" y="-656" font-family="Helvetica,sans-Serif" font-size="10.00"> 2 &gt; mode_</text>
<text text-anchor="start" x="12.5" y="-641" font-family="Helvetica,sans-Serif" font-size="10.00">#</text>
<text text-anchor="start" x="25.5" y="-641" font-family="Helvetica,sans-Serif" font-size="10.00">bool is_valid_</text>
<text text-anchor="start" x="12.5" y="-626" font-family="Helvetica,sans-Serif" font-size="10.00">+</text>
<text text-anchor="start" x="25.5" y="-626" font-family="Helvetica,sans-Serif" font-size="10.00">BaseProtocol(const</text>
<text text-anchor="start" x="25.5" y="-615" font-family="Helvetica,sans-Serif" font-size="10.00"> std::array&lt; uint8_t,</text>
<text text-anchor="start" x="25.5" y="-604" font-family="Helvetica,sans-Serif" font-size="10.00"> 2 &gt; mode)</text>
<text text-anchor="start" x="12.5" y="-589" font-family="Helvetica,sans-Serif" font-size="10.00">+</text>
<text text-anchor="start" x="25.5" y="-589" font-family="Helvetica,sans-Serif" font-size="10.00">BaseProtocol(const</text>
<text text-anchor="start" x="25.5" y="-578" font-family="Helvetica,sans-Serif" font-size="10.00"> vector&lt; uint8_t &gt; &amp;bytes,</text>
<text text-anchor="start" x="25.5" y="-567" font-family="Helvetica,sans-Serif" font-size="10.00"> std::array&lt; uint8_t, 2</text>
<text text-anchor="start" x="25.5" y="-556" font-family="Helvetica,sans-Serif" font-size="10.00"> &gt; mode, bool payload_only=false)</text>
<text text-anchor="start" x="12.5" y="-541" font-family="Helvetica,sans-Serif" font-size="10.00">+</text>
<text text-anchor="start" x="25.5" y="-541" font-family="Helvetica,sans-Serif" font-size="10.00">~BaseProtocol()</text>
<text text-anchor="start" x="12.5" y="-526" font-family="Helvetica,sans-Serif" font-size="10.00">+</text>
<text text-anchor="start" x="25.5" y="-526" font-family="Helvetica,sans-Serif" font-size="10.00">vector&lt; uint8_t &gt; get</text>
<text text-anchor="start" x="25.5" y="-515" font-family="Helvetica,sans-Serif" font-size="10.00">_payload()</text>
<text text-anchor="start" x="12.5" y="-500" font-family="Helvetica,sans-Serif" font-size="10.00">+</text>
<text text-anchor="start" x="25.5" y="-500" font-family="Helvetica,sans-Serif" font-size="10.00">bool is_valid()</text>
<text text-anchor="start" x="12.5" y="-485" font-family="Helvetica,sans-Serif" font-size="10.00">+</text>
<text text-anchor="start" x="25.5" y="-485" font-family="Helvetica,sans-Serif" font-size="10.00">virtual vector&lt; uint8</text>
<text text-anchor="start" x="25.5" y="-474" font-family="Helvetica,sans-Serif" font-size="10.00">_t &gt; encapsulate()</text>
<text text-anchor="start" x="12.5" y="-459" font-family="Helvetica,sans-Serif" font-size="10.00">+</text>
<text text-anchor="start" x="25.5" y="-459" font-family="Helvetica,sans-Serif" font-size="10.00">virtual void handle</text>
<text text-anchor="start" x="25.5" y="-448" font-family="Helvetica,sans-Serif" font-size="10.00">_callback(const vector</text>
<text text-anchor="start" x="25.5" y="-437" font-family="Helvetica,sans-Serif" font-size="10.00">&lt; ParsedMessageInterface</text>
<text text-anchor="start" x="25.5" y="-426" font-family="Helvetica,sans-Serif" font-size="10.00"> * &gt; &amp;callbacks)=0</text>
<text text-anchor="start" x="12.5" y="-411" font-family="Helvetica,sans-Serif" font-size="10.00">+</text>
<text text-anchor="start" x="25.5" y="-411" font-family="Helvetica,sans-Serif" font-size="10.00">static std::array&lt;</text>
<text text-anchor="start" x="25.5" y="-400" font-family="Helvetica,sans-Serif" font-size="10.00"> uint8_t, 2 &gt; get_checksum</text>
<text text-anchor="start" x="25.5" y="-389" font-family="Helvetica,sans-Serif" font-size="10.00">(vector&lt; uint8_t &gt; mode,</text>
<text text-anchor="start" x="25.5" y="-378" font-family="Helvetica,sans-Serif" font-size="10.00"> vector&lt; uint8_t &gt; length,</text>
<text text-anchor="start" x="25.5" y="-367" font-family="Helvetica,sans-Serif" font-size="10.00"> vector&lt; uint8_t &gt; payload)</text>
<text text-anchor="start" x="12.5" y="-352" font-family="Helvetica,sans-Serif" font-size="10.00">#</text>
<text text-anchor="start" x="25.5" y="-352" font-family="Helvetica,sans-Serif" font-size="10.00">vector&lt; uint8_t &gt; encapsulate</text>
<text text-anchor="start" x="25.5" y="-341" font-family="Helvetica,sans-Serif" font-size="10.00">_(vector&lt; uint8_t &gt; payload)</text>
<text text-anchor="start" x="12.5" y="-326" font-family="Helvetica,sans-Serif" font-size="10.00">#</text>
<text text-anchor="start" x="25.5" y="-326" font-family="Helvetica,sans-Serif" font-size="10.00">vector&lt; uint8_t &gt; decapsulate</text>
<text text-anchor="start" x="25.5" y="-315" font-family="Helvetica,sans-Serif" font-size="10.00">_(vector&lt; uint8_t &gt; bytes)</text>
<text text-anchor="start" x="12.5" y="-300" font-family="Helvetica,sans-Serif" font-size="10.00">#</text>
<text text-anchor="start" x="25.5" y="-300" font-family="Helvetica,sans-Serif" font-size="10.00">virtual void init_from</text>
<text text-anchor="start" x="25.5" y="-289" font-family="Helvetica,sans-Serif" font-size="10.00">_payload_()=0</text>
<polygon fill="#666666" stroke="#666666" points="8.5,-677 8.5,-677 203.5,-677 203.5,-677 8.5,-677"/>
<polygon fill="#666666" stroke="#666666" points="8.5,-636 8.5,-636 23.5,-636 23.5,-636 8.5,-636"/>
<polygon fill="#666666" stroke="#666666" points="23.5,-636 23.5,-636 203.5,-636 203.5,-636 23.5,-636"/>
<polygon fill="none" stroke="#666666" points="8,-282 8,-694 203,-694 203,-282 8,-282"/>
</a>
</g>
</g>
<!-- Node2&#45;&gt;Node1 -->
<g id="edge1_Node000001_Node000002" class="edge">
<title>Node2&#45;&gt;Node1</title>
<g id="a_edge1_Node000001_Node000002"><a xlink:title=" ">
<path fill="none" stroke="#63b8ff" d="M105.5,-271.75C105.5,-262.81 105.5,-253.98 105.5,-245.36"/>
<polygon fill="none" stroke="#63b8ff" points="102,-271.88 105.5,-281.88 109,-271.88 102,-271.88"/>
</a>
</g>
</g>
<!-- Node3 -->
<g id="Node000003" class="node">
<title>Node3</title>
<g id="a_Node000003"><a xlink:title=" ">
<polygon fill="white" stroke="transparent" points="154.5,-790 56.5,-790 56.5,-741 154.5,-741 154.5,-790"/>
<text text-anchor="start" x="61.5" y="-777.5" font-family="Helvetica,sans-Serif" font-size="10.00">vector&lt; uint8_t &gt;</text>
<text text-anchor="start" x="103.5" y="-762.5" font-family="Helvetica,sans-Serif" font-size="10.00"> </text>
<text text-anchor="start" x="103.5" y="-747.5" font-family="Helvetica,sans-Serif" font-size="10.00"> </text>
<polygon fill="#bfbfbf" stroke="#bfbfbf" points="56.5,-772.5 56.5,-772.5 154.5,-772.5 154.5,-772.5 56.5,-772.5"/>
<polygon fill="#bfbfbf" stroke="#bfbfbf" points="56.5,-757.5 56.5,-757.5 154.5,-757.5 154.5,-757.5 56.5,-757.5"/>
<polygon fill="none" stroke="#bfbfbf" points="56.5,-741 56.5,-790 154.5,-790 154.5,-741 56.5,-741"/>
</a>
</g>
</g>
<!-- Node3&#45;&gt;Node2 -->
<g id="edge2_Node000002_Node000003" class="edge">
<title>Node3&#45;&gt;Node2</title>
<g id="a_edge2_Node000002_Node000003"><a xlink:title=" ">
<path fill="none" stroke="#63b8ff" d="M105.5,-740.53C105.5,-731.21 105.5,-719.62 105.5,-706.56"/>
<polygon fill="none" stroke="#63b8ff" points="105.5,-706.19 101.5,-700.19 105.5,-694.19 109.5,-700.19 105.5,-706.19"/>
</a>
</g>
<text text-anchor="middle" x="133.5" y="-715" font-family="Helvetica,sans-Serif" font-size="10.00" fill="grey"> #payload_</text>
</g>
<!-- Node4 -->
<g id="Node000004" class="node">
<title>Node4</title>
<g id="a_Node000004"><a xlink:title=" ">
<polygon fill="white" stroke="transparent" points="126,-886 85,-886 85,-837 126,-837 126,-886"/>
<text text-anchor="start" x="90.5" y="-873.5" font-family="Helvetica,sans-Serif" font-size="10.00">vector</text>
<text text-anchor="start" x="104" y="-858.5" font-family="Helvetica,sans-Serif" font-size="10.00"> </text>
<text text-anchor="start" x="104" y="-843.5" font-family="Helvetica,sans-Serif" font-size="10.00"> </text>
<polygon fill="#bfbfbf" stroke="#bfbfbf" points="85.5,-868.5 85.5,-868.5 126.5,-868.5 126.5,-868.5 85.5,-868.5"/>
<polygon fill="#bfbfbf" stroke="#bfbfbf" points="85.5,-853.5 85.5,-853.5 126.5,-853.5 126.5,-853.5 85.5,-853.5"/>
<polygon fill="none" stroke="#bfbfbf" points="85,-837 85,-886 126,-886 126,-837 85,-837"/>
</a>
</g>
</g>
<!-- Node4&#45;&gt;Node3 -->
<g id="edge3_Node000003_Node000004" class="edge">
<title>Node4&#45;&gt;Node3</title>
<g id="a_edge3_Node000003_Node000004"><a xlink:title=" ">
<path fill="none" stroke="orange" d="M105.5,-826.6C105.5,-814.54 105.5,-801.23 105.5,-790.21"/>
<polygon fill="orange" stroke="orange" points="102,-826.78 105.5,-836.78 109,-826.78 102,-826.78"/>
</a>
</g>
<text text-anchor="middle" x="135.5" y="-811" font-family="Helvetica,sans-Serif" font-size="10.00" fill="grey"> &lt; uint8_t &gt;</text>
</g>
</g>
</svg>
