<?xml version="1.0" encoding="UTF-8" standalone="no"?>
<!DOCTYPE svg PUBLIC "-//W3C//DTD SVG 1.1//EN"
 "http://www.w3.org/Graphics/SVG/1.1/DTD/svg11.dtd">
<!-- Generated by graphviz version 2.43.0 (0)
 -->
<!-- Title: flexxlam::FlexXlamParser Pages: 1 -->
<svg width="198pt" height="131pt"
 viewBox="0.00 0.00 198.00 131.00" xmlns="http://www.w3.org/2000/svg" xmlns:xlink="http://www.w3.org/1999/xlink">
<g id="graph0" class="graph" transform="scale(1 1) rotate(0) translate(4 127)">
<title>flexxlam::FlexXlamParser</title>
<!-- Node1 -->
<g id="Node000001" class="node">
<title>Node1</title>
<g id="a_Node000001"><a xlink:title="Protocol parser for FlexXlam Driver.">
<polygon fill="#999999" stroke="transparent" points="190,-123 0,-123 0,0 190,0 190,-123"/>
<text text-anchor="start" x="32" y="-110.5" font-family="Helvetica,sans-Serif" font-size="10.00">flexxlam::FlexXlamParser</text>
<text text-anchor="start" x="93" y="-95.5" font-family="Helvetica,sans-Serif" font-size="10.00"> </text>
<text text-anchor="start" x="4" y="-80.5" font-family="Helvetica,sans-Serif" font-size="10.00">+</text>
<text text-anchor="start" x="17" y="-80.5" font-family="Helvetica,sans-Serif" font-size="10.00">FlexXlamParser(size</text>
<text text-anchor="start" x="17" y="-69.5" font-family="Helvetica,sans-Serif" font-size="10.00">_t buffer_size=1024)</text>
<text text-anchor="start" x="4" y="-54.5" font-family="Helvetica,sans-Serif" font-size="10.00">+</text>
<text text-anchor="start" x="17" y="-54.5" font-family="Helvetica,sans-Serif" font-size="10.00">void parse(vector&lt;</text>
<text text-anchor="start" x="17" y="-43.5" font-family="Helvetica,sans-Serif" font-size="10.00"> uint8_t &gt; data)</text>
<text text-anchor="start" x="4" y="-28.5" font-family="Helvetica,sans-Serif" font-size="10.00">+</text>
<text text-anchor="start" x="17" y="-28.5" font-family="Helvetica,sans-Serif" font-size="10.00">void add_parsed_message</text>
<text text-anchor="start" x="17" y="-17.5" font-family="Helvetica,sans-Serif" font-size="10.00">_callback(ParsedMessageInterface</text>
<text text-anchor="start" x="17" y="-6.5" font-family="Helvetica,sans-Serif" font-size="10.00"> *parsed_message_interface)</text>
<polygon fill="#666666" stroke="#666666" points="0,-105.5 0,-105.5 190,-105.5 190,-105.5 0,-105.5"/>
<polygon fill="#666666" stroke="#666666" points="0,-90.5 0,-90.5 190,-90.5 190,-90.5 0,-90.5"/>
<polygon fill="none" stroke="#666666" points="0,0 0,-123 190,-123 190,0 0,0"/>
</a>
</g>
</g>
</g>
</svg>
