<?xml version="1.0" encoding="UTF-8" standalone="no"?>
<!DOCTYPE svg PUBLIC "-//W3C//DTD SVG 1.1//EN"
 "http://www.w3.org/Graphics/SVG/1.1/DTD/svg11.dtd">
<!-- Generated by graphviz version 2.43.0 (0)
 -->
<!-- Title: flexxlam::ResponseEthernetCommunicationConfig::ResponseEthernetCommunicationConfig Pages: 1 -->
<svg width="574pt" height="62pt"
 viewBox="0.00 0.00 574.00 61.50" xmlns="http://www.w3.org/2000/svg" xmlns:xlink="http://www.w3.org/1999/xlink">
<g id="graph0" class="graph" transform="scale(1 1) rotate(0) translate(4 57.5)">
<title>flexxlam::ResponseEthernetCommunicationConfig::ResponseEthernetCommunicationConfig</title>
<!-- Node1 -->
<g id="Node000001" class="node">
<title>Node1</title>
<g id="a_Node000001"><a xlink:title="Response data status protocol constructor.">
<polygon fill="#999999" stroke="#666666" points="219,-41 0,-41 0,0 219,0 219,-41"/>
<text text-anchor="start" x="8" y="-29" font-family="Helvetica,sans-Serif" font-size="10.00">flexxlam::ResponseEthernet</text>
<text text-anchor="start" x="8" y="-18" font-family="Helvetica,sans-Serif" font-size="10.00">CommunicationConfig::ResponseEthernet</text>
<text text-anchor="middle" x="109.5" y="-7" font-family="Helvetica,sans-Serif" font-size="10.00">CommunicationConfig</text>
</a>
</g>
</g>
<!-- Node2 -->
<g id="Node000002" class="node">
<title>Node2</title>
<g id="a_Node000002"><a xlink:href="classflexxlam_1_1ResponseEthernetCommunicationConfig.html#ad8b9bcb38d0086ae6ce8812b24cd3bfe" target="_top" xlink:title="Initialize enabled_ and baudrate_ from payload">
<polygon fill="white" stroke="#666666" points="409,-41 255,-41 255,0 409,0 409,-41"/>
<text text-anchor="start" x="263" y="-29" font-family="Helvetica,sans-Serif" font-size="10.00">flexxlam::ResponseEthernet</text>
<text text-anchor="start" x="263" y="-18" font-family="Helvetica,sans-Serif" font-size="10.00">CommunicationConfig::init</text>
<text text-anchor="middle" x="332" y="-7" font-family="Helvetica,sans-Serif" font-size="10.00">_from_payload_</text>
</a>
</g>
</g>
<!-- Node1&#45;&gt;Node2 -->
<g id="edge1_Node000001_Node000002" class="edge">
<title>Node1&#45;&gt;Node2</title>
<g id="a_edge1_Node000001_Node000002"><a xlink:title=" ">
<path fill="none" stroke="#63b8ff" d="M219.14,-20.5C227.71,-20.5 236.31,-20.5 244.7,-20.5"/>
<polygon fill="#63b8ff" stroke="#63b8ff" points="244.83,-24 254.83,-20.5 244.83,-17 244.83,-24"/>
</a>
</g>
</g>
<!-- Node3 -->
<g id="Node000003" class="node">
<title>Node3</title>
<g id="a_Node000003"><a xlink:href="namespaceflexxlam_1_1from__bytes.html#ab8c3593a8c91bb527232a403823449e9" target="_top" xlink:title="Convert 1~4 bytes to int.">
<polygon fill="white" stroke="#666666" points="566,-35.5 445,-35.5 445,-5.5 566,-5.5 566,-35.5"/>
<text text-anchor="start" x="453" y="-23.5" font-family="Helvetica,sans-Serif" font-size="10.00">flexxlam::from_bytes</text>
<text text-anchor="middle" x="505.5" y="-12.5" font-family="Helvetica,sans-Serif" font-size="10.00">::to_int</text>
</a>
</g>
</g>
<!-- Node2&#45;&gt;Node3 -->
<g id="edge2_Node000002_Node000003" class="edge">
<title>Node2&#45;&gt;Node3</title>
<g id="a_edge2_Node000002_Node000003"><a xlink:title=" ">
<path fill="none" stroke="#63b8ff" d="M409.22,-20.5C417.74,-20.5 426.39,-20.5 434.83,-20.5"/>
<polygon fill="#63b8ff" stroke="#63b8ff" points="434.99,-24 444.99,-20.5 434.99,-17 434.99,-24"/>
</a>
</g>
</g>
<!-- Node3&#45;&gt;Node3 -->
<g id="edge3_Node000003_Node000003" class="edge">
<title>Node3&#45;&gt;Node3</title>
<g id="a_edge3_Node000003_Node000003"><a xlink:title=" ">
<path fill="none" stroke="#63b8ff" d="M475.27,-35.78C468.55,-44.91 478.62,-53.5 505.5,-53.5 521.46,-53.5 531.49,-50.47 535.61,-46.1"/>
<polygon fill="#63b8ff" stroke="#63b8ff" points="539.11,-45.82 535.73,-35.78 532.11,-45.73 539.11,-45.82"/>
</a>
</g>
</g>
</g>
</svg>
