<?xml version="1.0" encoding="UTF-8" standalone="no"?>
<!DOCTYPE svg PUBLIC "-//W3C//DTD SVG 1.1//EN"
 "http://www.w3.org/Graphics/SVG/1.1/DTD/svg11.dtd">
<!-- Generated by graphviz version 2.43.0 (0)
 -->
<!-- Title: flexxlam::ResponseEthernetCommunicationConfig::init_from_payload_ Pages: 1 -->
<svg width="319pt" height="62pt"
 viewBox="0.00 0.00 319.00 61.50" xmlns="http://www.w3.org/2000/svg" xmlns:xlink="http://www.w3.org/1999/xlink">
<g id="graph0" class="graph" transform="scale(1 1) rotate(0) translate(4 57.5)">
<title>flexxlam::ResponseEthernetCommunicationConfig::init_from_payload_</title>
<!-- Node1 -->
<g id="Node000001" class="node">
<title>Node1</title>
<g id="a_Node000001"><a xlink:title="Initialize enabled_ and baudrate_ from payload">
<polygon fill="#999999" stroke="#666666" points="154,-41 0,-41 0,0 154,0 154,-41"/>
<text text-anchor="start" x="8" y="-29" font-family="Helvetica,sans-Serif" font-size="10.00">flexxlam::ResponseEthernet</text>
<text text-anchor="start" x="8" y="-18" font-family="Helvetica,sans-Serif" font-size="10.00">CommunicationConfig::init</text>
<text text-anchor="middle" x="77" y="-7" font-family="Helvetica,sans-Serif" font-size="10.00">_from_payload_</text>
</a>
</g>
</g>
<!-- Node2 -->
<g id="Node000002" class="node">
<title>Node2</title>
<g id="a_Node000002"><a xlink:href="namespaceflexxlam_1_1from__bytes.html#ab8c3593a8c91bb527232a403823449e9" target="_top" xlink:title="Convert 1~4 bytes to int.">
<polygon fill="white" stroke="#666666" points="311,-35.5 190,-35.5 190,-5.5 311,-5.5 311,-35.5"/>
<text text-anchor="start" x="198" y="-23.5" font-family="Helvetica,sans-Serif" font-size="10.00">flexxlam::from_bytes</text>
<text text-anchor="middle" x="250.5" y="-12.5" font-family="Helvetica,sans-Serif" font-size="10.00">::to_int</text>
</a>
</g>
</g>
<!-- Node1&#45;&gt;Node2 -->
<g id="edge1_Node000001_Node000002" class="edge">
<title>Node1&#45;&gt;Node2</title>
<g id="a_edge1_Node000001_Node000002"><a xlink:title=" ">
<path fill="none" stroke="#63b8ff" d="M154.22,-20.5C162.74,-20.5 171.39,-20.5 179.83,-20.5"/>
<polygon fill="#63b8ff" stroke="#63b8ff" points="179.99,-24 189.99,-20.5 179.99,-17 179.99,-24"/>
</a>
</g>
</g>
<!-- Node2&#45;&gt;Node2 -->
<g id="edge2_Node000002_Node000002" class="edge">
<title>Node2&#45;&gt;Node2</title>
<g id="a_edge2_Node000002_Node000002"><a xlink:title=" ">
<path fill="none" stroke="#63b8ff" d="M220.27,-35.78C213.55,-44.91 223.62,-53.5 250.5,-53.5 266.46,-53.5 276.49,-50.47 280.61,-46.1"/>
<polygon fill="#63b8ff" stroke="#63b8ff" points="284.11,-45.82 280.73,-35.78 277.11,-45.73 284.11,-45.82"/>
</a>
</g>
</g>
</g>
</svg>
