<?xml version="1.0" encoding="UTF-8" standalone="no"?>
<!DOCTYPE svg PUBLIC "-//W3C//DTD SVG 1.1//EN"
 "http://www.w3.org/Graphics/SVG/1.1/DTD/svg11.dtd">
<!-- Generated by graphviz version 2.43.0 (0)
 -->
<!-- Title: flexxlam::ResponseSerialCommunicationConfig::ResponseSerialCommunicationConfig Pages: 1 -->
<svg width="525pt" height="62pt"
 viewBox="0.00 0.00 525.00 61.50" xmlns="http://www.w3.org/2000/svg" xmlns:xlink="http://www.w3.org/1999/xlink">
<g id="graph0" class="graph" transform="scale(1 1) rotate(0) translate(4 57.5)">
<title>flexxlam::ResponseSerialCommunicationConfig::ResponseSerialCommunicationConfig</title>
<!-- Node1 -->
<g id="Node000001" class="node">
<title>Node1</title>
<g id="a_Node000001"><a xlink:title="Response data status protocol constructor.">
<polygon fill="#999999" stroke="#666666" points="178,-41 0,-41 0,0 178,0 178,-41"/>
<text text-anchor="start" x="8" y="-29" font-family="Helvetica,sans-Serif" font-size="10.00">flexxlam::ResponseSerial</text>
<text text-anchor="start" x="8" y="-18" font-family="Helvetica,sans-Serif" font-size="10.00">CommunicationConfig::Response</text>
<text text-anchor="middle" x="89" y="-7" font-family="Helvetica,sans-Serif" font-size="10.00">SerialCommunicationConfig</text>
</a>
</g>
</g>
<!-- Node2 -->
<g id="Node000002" class="node">
<title>Node2</title>
<g id="a_Node000002"><a xlink:href="classflexxlam_1_1ResponseSerialCommunicationConfig.html#af1b5ab2da48eff49ce47bda0985bbc98" target="_top" xlink:title="Initialize enabled_ and baudrate_ from payload">
<polygon fill="white" stroke="#666666" points="360,-41 214,-41 214,0 360,0 360,-41"/>
<text text-anchor="start" x="222" y="-29" font-family="Helvetica,sans-Serif" font-size="10.00">flexxlam::ResponseSerial</text>
<text text-anchor="start" x="222" y="-18" font-family="Helvetica,sans-Serif" font-size="10.00">CommunicationConfig::init</text>
<text text-anchor="middle" x="287" y="-7" font-family="Helvetica,sans-Serif" font-size="10.00">_from_payload_</text>
</a>
</g>
</g>
<!-- Node1&#45;&gt;Node2 -->
<g id="edge1_Node000001_Node000002" class="edge">
<title>Node1&#45;&gt;Node2</title>
<g id="a_edge1_Node000001_Node000002"><a xlink:title=" ">
<path fill="none" stroke="#63b8ff" d="M178.25,-20.5C186.7,-20.5 195.25,-20.5 203.65,-20.5"/>
<polygon fill="#63b8ff" stroke="#63b8ff" points="203.79,-24 213.79,-20.5 203.79,-17 203.79,-24"/>
</a>
</g>
</g>
<!-- Node3 -->
<g id="Node000003" class="node">
<title>Node3</title>
<g id="a_Node000003"><a xlink:href="namespaceflexxlam_1_1from__bytes.html#ab8c3593a8c91bb527232a403823449e9" target="_top" xlink:title="Convert 1~4 bytes to int.">
<polygon fill="white" stroke="#666666" points="517,-35.5 396,-35.5 396,-5.5 517,-5.5 517,-35.5"/>
<text text-anchor="start" x="404" y="-23.5" font-family="Helvetica,sans-Serif" font-size="10.00">flexxlam::from_bytes</text>
<text text-anchor="middle" x="456.5" y="-12.5" font-family="Helvetica,sans-Serif" font-size="10.00">::to_int</text>
</a>
</g>
</g>
<!-- Node2&#45;&gt;Node3 -->
<g id="edge2_Node000002_Node000003" class="edge">
<title>Node2&#45;&gt;Node3</title>
<g id="a_edge2_Node000002_Node000003"><a xlink:title=" ">
<path fill="none" stroke="#63b8ff" d="M360.01,-20.5C368.52,-20.5 377.19,-20.5 385.67,-20.5"/>
<polygon fill="#63b8ff" stroke="#63b8ff" points="385.89,-24 395.89,-20.5 385.89,-17 385.89,-24"/>
</a>
</g>
</g>
<!-- Node3&#45;&gt;Node3 -->
<g id="edge3_Node000003_Node000003" class="edge">
<title>Node3&#45;&gt;Node3</title>
<g id="a_edge3_Node000003_Node000003"><a xlink:title=" ">
<path fill="none" stroke="#63b8ff" d="M426.97,-35.78C420.41,-44.91 430.25,-53.5 456.5,-53.5 472.09,-53.5 481.89,-50.47 485.91,-46.1"/>
<polygon fill="#63b8ff" stroke="#63b8ff" points="489.41,-45.82 486.03,-35.78 482.41,-45.73 489.41,-45.82"/>
</a>
</g>
</g>
</g>
</svg>
