<?xml version="1.0" encoding="UTF-8" standalone="no"?>
<!DOCTYPE svg PUBLIC "-//W3C//DTD SVG 1.1//EN"
 "http://www.w3.org/Graphics/SVG/1.1/DTD/svg11.dtd">
<!-- Generated by graphviz version 2.43.0 (0)
 -->
<!-- Title: flexxlam::PushPointCloudProtocol Pages: 1 -->
<!--zoomable 890 -->

<svg id="main" version="1.1" xmlns="http://www.w3.org/2000/svg" xmlns:xlink="http://www.w3.org/1999/xlink" xml:space="preserve" onload="init(evt)">
<style type="text/css"><![CDATA[
.node, .edge {opacity: 0.7;}
.node.selected, .edge.selected {opacity: 1;}
.edge:hover path { stroke: red; }
.edge:hover polygon { stroke: red; fill: red; }
]]></style>

<defs>
  <circle id="rim" cx="0" cy="0" r="7"/>
  <circle id="rim2" cx="0" cy="0" r="3.5"/>
  <g id="zoomPlus">
    <use xlink:href="#rim" fill="#404040"><set attributeName="fill" to="#808080" begin="zoomplus.mouseover" end="zoomplus.mouseout"/></use>
    <path d="M-4,0h8M0,-4v8" fill="none" stroke="white" stroke-width="1.5" pointer-events="none"/>
  </g>
  <g id="zoomMin">
    <use xlink:href="#rim" fill="#404040"><set attributeName="fill" to="#808080" begin="zoomminus.mouseover" end="zoomminus.mouseout"/></use>
    <path d="M-4,0h8" fill="none" stroke="white" stroke-width="1.5" pointer-events="none"/>
  </g>
  <g id="arrowUp" transform="translate(30 24)">
    <use xlink:href="#rim"/>
    <path pointer-events="none" fill="none" stroke="white" stroke-width="1.5" d="M0,-3.0v7 M-2.5,-0.5L0,-3.0L2.5,-0.5"/>
  </g>
  <g id="arrowRight" transform="rotate(90) translate(36 -43)">
    <use xlink:href="#rim"/>
    <path pointer-events="none" fill="none" stroke="white" stroke-width="1.5" d="M0,-3.0v7 M-2.5,-0.5L0,-3.0L2.5,-0.5"/>
  </g>
  <g id="arrowDown" transform="rotate(180) translate(-30 -48)">
    <use xlink:href="#rim"/>
    <path pointer-events="none" fill="none" stroke="white" stroke-width="1.5" d="M0,-3.0v7 M-2.5,-0.5L0,-3.0L2.5,-0.5"/>
  </g>
  <g id="arrowLeft" transform="rotate(270) translate(-36 17)">
    <use xlink:href="#rim"/>
    <path pointer-events="none" fill="none" stroke="white" stroke-width="1.5" d="M0,-3.0v7 M-2.5,-0.5L0,-3.0L2.5,-0.5"/>
  </g>
  <g id="resetDef">
    <use xlink:href="#rim2" fill="#404040"><set attributeName="fill" to="#808080" begin="reset.mouseover" end="reset.mouseout"/></use>
  </g>
</defs>
<script type="application/ecmascript">
var viewWidth = 203;
var viewHeight = 890;
var sectionId = 'dynsection-1';
</script>
<script type="application/ecmascript" xlink:href="svg.min.js"/>
<svg id="graph" class="graph">
<g id="viewport">
<title>flexxlam::PushPointCloudProtocol</title>
<!-- Node1 -->
<g id="Node000001" class="node">
<title>Node1</title>
<g id="a_Node000001"><a xlink:title="Get pointcloud protocol.">
<polygon fill="#999999" stroke="transparent" points="185.5,-241 9.5,-241 9.5,0 185.5,0 185.5,-241"/>
<text text-anchor="start" x="35" y="-228.5" font-family="Helvetica,sans-Serif" font-size="10.00">flexxlam::PushPointCloud</text>
<text text-anchor="start" x="77.5" y="-217.5" font-family="Helvetica,sans-Serif" font-size="10.00">Protocol</text>
<text text-anchor="start" x="95.5" y="-202.5" font-family="Helvetica,sans-Serif" font-size="10.00"> </text>
<text text-anchor="start" x="13.5" y="-187.5" font-family="Helvetica,sans-Serif" font-size="10.00">+</text>
<text text-anchor="start" x="26.5" y="-187.5" font-family="Helvetica,sans-Serif" font-size="10.00">PushPointCloudProtocol</text>
<text text-anchor="start" x="26.5" y="-176.5" font-family="Helvetica,sans-Serif" font-size="10.00">(const flexxlam_msgs::</text>
<text text-anchor="start" x="26.5" y="-165.5" font-family="Helvetica,sans-Serif" font-size="10.00">PointCloud2 &amp;pointcloud,</text>
<text text-anchor="start" x="26.5" y="-154.5" font-family="Helvetica,sans-Serif" font-size="10.00"> bool compress_payload=false)</text>
<text text-anchor="start" x="13.5" y="-139.5" font-family="Helvetica,sans-Serif" font-size="10.00">+</text>
<text text-anchor="start" x="26.5" y="-139.5" font-family="Helvetica,sans-Serif" font-size="10.00">PushPointCloudProtocol</text>
<text text-anchor="start" x="26.5" y="-128.5" font-family="Helvetica,sans-Serif" font-size="10.00">(const vector&lt; uint8_t</text>
<text text-anchor="start" x="26.5" y="-117.5" font-family="Helvetica,sans-Serif" font-size="10.00"> &gt; &amp;bytes, bool payload</text>
<text text-anchor="start" x="26.5" y="-106.5" font-family="Helvetica,sans-Serif" font-size="10.00">_only=false)</text>
<text text-anchor="start" x="13.5" y="-91.5" font-family="Helvetica,sans-Serif" font-size="10.00">+</text>
<text text-anchor="start" x="26.5" y="-91.5" font-family="Helvetica,sans-Serif" font-size="10.00">void handle_callback</text>
<text text-anchor="start" x="26.5" y="-80.5" font-family="Helvetica,sans-Serif" font-size="10.00">(const vector&lt; ParsedMessage</text>
<text text-anchor="start" x="26.5" y="-69.5" font-family="Helvetica,sans-Serif" font-size="10.00">Interface * &gt; &amp;callbacks)</text>
<text text-anchor="start" x="26.5" y="-58.5" font-family="Helvetica,sans-Serif" font-size="10.00"> override</text>
<text text-anchor="start" x="13.5" y="-43.5" font-family="Helvetica,sans-Serif" font-size="10.00">+</text>
<text text-anchor="start" x="26.5" y="-43.5" font-family="Helvetica,sans-Serif" font-size="10.00">flexxlam_msgs::PointCloud2</text>
<text text-anchor="start" x="26.5" y="-32.5" font-family="Helvetica,sans-Serif" font-size="10.00"> get_pointcloud()</text>
<text text-anchor="start" x="13.5" y="-17.5" font-family="Helvetica,sans-Serif" font-size="10.00">#</text>
<text text-anchor="start" x="26.5" y="-17.5" font-family="Helvetica,sans-Serif" font-size="10.00">void init_from_payload</text>
<text text-anchor="start" x="26.5" y="-6.5" font-family="Helvetica,sans-Serif" font-size="10.00">_() override</text>
<polygon fill="#666666" stroke="#666666" points="9.5,-212.5 9.5,-212.5 185.5,-212.5 185.5,-212.5 9.5,-212.5"/>
<polygon fill="#666666" stroke="#666666" points="9.5,-197.5 9.5,-197.5 185.5,-197.5 185.5,-197.5 9.5,-197.5"/>
<polygon fill="none" stroke="#666666" points="9.5,0 9.5,-241 185.5,-241 185.5,0 9.5,0"/>
</a>
</g>
</g>
<!-- Node2 -->
<g id="Node000002" class="node">
<title>Node2</title>
<g id="a_Node000002"><a xlink:href="classflexxlam_1_1BaseProtocol.html" target="_top" xlink:title="Base protocol for communication.">
<polygon fill="white" stroke="transparent" points="195,-690 0,-690 0,-278 195,-278 195,-690"/>
<text text-anchor="start" x="41.5" y="-678" font-family="Helvetica,sans-Serif" font-size="10.00">flexxlam::BaseProtocol</text>
<text text-anchor="start" x="4.5" y="-663" font-family="Helvetica,sans-Serif" font-size="10.00">#</text>
<text text-anchor="start" x="17.5" y="-663" font-family="Helvetica,sans-Serif" font-size="10.00">std::array&lt; uint8_t,</text>
<text text-anchor="start" x="17.5" y="-652" font-family="Helvetica,sans-Serif" font-size="10.00"> 2 &gt; mode_</text>
<text text-anchor="start" x="4.5" y="-637" font-family="Helvetica,sans-Serif" font-size="10.00">#</text>
<text text-anchor="start" x="17.5" y="-637" font-family="Helvetica,sans-Serif" font-size="10.00">bool is_valid_</text>
<text text-anchor="start" x="4.5" y="-622" font-family="Helvetica,sans-Serif" font-size="10.00">+</text>
<text text-anchor="start" x="17.5" y="-622" font-family="Helvetica,sans-Serif" font-size="10.00">BaseProtocol(const</text>
<text text-anchor="start" x="17.5" y="-611" font-family="Helvetica,sans-Serif" font-size="10.00"> std::array&lt; uint8_t,</text>
<text text-anchor="start" x="17.5" y="-600" font-family="Helvetica,sans-Serif" font-size="10.00"> 2 &gt; mode)</text>
<text text-anchor="start" x="4.5" y="-585" font-family="Helvetica,sans-Serif" font-size="10.00">+</text>
<text text-anchor="start" x="17.5" y="-585" font-family="Helvetica,sans-Serif" font-size="10.00">BaseProtocol(const</text>
<text text-anchor="start" x="17.5" y="-574" font-family="Helvetica,sans-Serif" font-size="10.00"> vector&lt; uint8_t &gt; &amp;bytes,</text>
<text text-anchor="start" x="17.5" y="-563" font-family="Helvetica,sans-Serif" font-size="10.00"> std::array&lt; uint8_t, 2</text>
<text text-anchor="start" x="17.5" y="-552" font-family="Helvetica,sans-Serif" font-size="10.00"> &gt; mode, bool payload_only=false)</text>
<text text-anchor="start" x="4.5" y="-537" font-family="Helvetica,sans-Serif" font-size="10.00">+</text>
<text text-anchor="start" x="17.5" y="-537" font-family="Helvetica,sans-Serif" font-size="10.00">~BaseProtocol()</text>
<text text-anchor="start" x="4.5" y="-522" font-family="Helvetica,sans-Serif" font-size="10.00">+</text>
<text text-anchor="start" x="17.5" y="-522" font-family="Helvetica,sans-Serif" font-size="10.00">vector&lt; uint8_t &gt; get</text>
<text text-anchor="start" x="17.5" y="-511" font-family="Helvetica,sans-Serif" font-size="10.00">_payload()</text>
<text text-anchor="start" x="4.5" y="-496" font-family="Helvetica,sans-Serif" font-size="10.00">+</text>
<text text-anchor="start" x="17.5" y="-496" font-family="Helvetica,sans-Serif" font-size="10.00">bool is_valid()</text>
<text text-anchor="start" x="4.5" y="-481" font-family="Helvetica,sans-Serif" font-size="10.00">+</text>
<text text-anchor="start" x="17.5" y="-481" font-family="Helvetica,sans-Serif" font-size="10.00">virtual vector&lt; uint8</text>
<text text-anchor="start" x="17.5" y="-470" font-family="Helvetica,sans-Serif" font-size="10.00">_t &gt; encapsulate()</text>
<text text-anchor="start" x="4.5" y="-455" font-family="Helvetica,sans-Serif" font-size="10.00">+</text>
<text text-anchor="start" x="17.5" y="-455" font-family="Helvetica,sans-Serif" font-size="10.00">virtual void handle</text>
<text text-anchor="start" x="17.5" y="-444" font-family="Helvetica,sans-Serif" font-size="10.00">_callback(const vector</text>
<text text-anchor="start" x="17.5" y="-433" font-family="Helvetica,sans-Serif" font-size="10.00">&lt; ParsedMessageInterface</text>
<text text-anchor="start" x="17.5" y="-422" font-family="Helvetica,sans-Serif" font-size="10.00"> * &gt; &amp;callbacks)=0</text>
<text text-anchor="start" x="4.5" y="-407" font-family="Helvetica,sans-Serif" font-size="10.00">+</text>
<text text-anchor="start" x="17.5" y="-407" font-family="Helvetica,sans-Serif" font-size="10.00">static std::array&lt;</text>
<text text-anchor="start" x="17.5" y="-396" font-family="Helvetica,sans-Serif" font-size="10.00"> uint8_t, 2 &gt; get_checksum</text>
<text text-anchor="start" x="17.5" y="-385" font-family="Helvetica,sans-Serif" font-size="10.00">(vector&lt; uint8_t &gt; mode,</text>
<text text-anchor="start" x="17.5" y="-374" font-family="Helvetica,sans-Serif" font-size="10.00"> vector&lt; uint8_t &gt; length,</text>
<text text-anchor="start" x="17.5" y="-363" font-family="Helvetica,sans-Serif" font-size="10.00"> vector&lt; uint8_t &gt; payload)</text>
<text text-anchor="start" x="4.5" y="-348" font-family="Helvetica,sans-Serif" font-size="10.00">#</text>
<text text-anchor="start" x="17.5" y="-348" font-family="Helvetica,sans-Serif" font-size="10.00">vector&lt; uint8_t &gt; encapsulate</text>
<text text-anchor="start" x="17.5" y="-337" font-family="Helvetica,sans-Serif" font-size="10.00">_(vector&lt; uint8_t &gt; payload)</text>
<text text-anchor="start" x="4.5" y="-322" font-family="Helvetica,sans-Serif" font-size="10.00">#</text>
<text text-anchor="start" x="17.5" y="-322" font-family="Helvetica,sans-Serif" font-size="10.00">vector&lt; uint8_t &gt; decapsulate</text>
<text text-anchor="start" x="17.5" y="-311" font-family="Helvetica,sans-Serif" font-size="10.00">_(vector&lt; uint8_t &gt; bytes)</text>
<text text-anchor="start" x="4.5" y="-296" font-family="Helvetica,sans-Serif" font-size="10.00">#</text>
<text text-anchor="start" x="17.5" y="-296" font-family="Helvetica,sans-Serif" font-size="10.00">virtual void init_from</text>
<text text-anchor="start" x="17.5" y="-285" font-family="Helvetica,sans-Serif" font-size="10.00">_payload_()=0</text>
<polygon fill="#666666" stroke="#666666" points="0.5,-673 0.5,-673 195.5,-673 195.5,-673 0.5,-673"/>
<polygon fill="#666666" stroke="#666666" points="0.5,-632 0.5,-632 15.5,-632 15.5,-632 0.5,-632"/>
<polygon fill="#666666" stroke="#666666" points="15.5,-632 15.5,-632 195.5,-632 195.5,-632 15.5,-632"/>
<polygon fill="none" stroke="#666666" points="0,-278 0,-690 195,-690 195,-278 0,-278"/>
</a>
</g>
</g>
<!-- Node2&#45;&gt;Node1 -->
<g id="edge1_Node000001_Node000002" class="edge">
<title>Node2&#45;&gt;Node1</title>
<g id="a_edge1_Node000001_Node000002"><a xlink:title=" ">
<path fill="none" stroke="#63b8ff" d="M97.5,-267.8C97.5,-258.84 97.5,-250.01 97.5,-241.38"/>
<polygon fill="none" stroke="#63b8ff" points="94,-267.96 97.5,-277.96 101,-267.96 94,-267.96"/>
</a>
</g>
</g>
<!-- Node3 -->
<g id="Node000003" class="node">
<title>Node3</title>
<g id="a_Node000003"><a xlink:title=" ">
<polygon fill="white" stroke="transparent" points="146.5,-786 48.5,-786 48.5,-737 146.5,-737 146.5,-786"/>
<text text-anchor="start" x="53.5" y="-773.5" font-family="Helvetica,sans-Serif" font-size="10.00">vector&lt; uint8_t &gt;</text>
<text text-anchor="start" x="95.5" y="-758.5" font-family="Helvetica,sans-Serif" font-size="10.00"> </text>
<text text-anchor="start" x="95.5" y="-743.5" font-family="Helvetica,sans-Serif" font-size="10.00"> </text>
<polygon fill="#bfbfbf" stroke="#bfbfbf" points="48.5,-768.5 48.5,-768.5 146.5,-768.5 146.5,-768.5 48.5,-768.5"/>
<polygon fill="#bfbfbf" stroke="#bfbfbf" points="48.5,-753.5 48.5,-753.5 146.5,-753.5 146.5,-753.5 48.5,-753.5"/>
<polygon fill="none" stroke="#bfbfbf" points="48.5,-737 48.5,-786 146.5,-786 146.5,-737 48.5,-737"/>
</a>
</g>
</g>
<!-- Node3&#45;&gt;Node2 -->
<g id="edge2_Node000002_Node000003" class="edge">
<title>Node3&#45;&gt;Node2</title>
<g id="a_edge2_Node000002_Node000003"><a xlink:title=" ">
<path fill="none" stroke="#63b8ff" d="M97.5,-736.53C97.5,-727.21 97.5,-715.62 97.5,-702.56"/>
<polygon fill="none" stroke="#63b8ff" points="97.5,-702.19 93.5,-696.19 97.5,-690.19 101.5,-696.19 97.5,-702.19"/>
</a>
</g>
<text text-anchor="middle" x="125.5" y="-711" font-family="Helvetica,sans-Serif" font-size="10.00" fill="grey"> #payload_</text>
</g>
<!-- Node4 -->
<g id="Node000004" class="node">
<title>Node4</title>
<g id="a_Node000004"><a xlink:title=" ">
<polygon fill="white" stroke="transparent" points="118,-882 77,-882 77,-833 118,-833 118,-882"/>
<text text-anchor="start" x="82.5" y="-869.5" font-family="Helvetica,sans-Serif" font-size="10.00">vector</text>
<text text-anchor="start" x="96" y="-854.5" font-family="Helvetica,sans-Serif" font-size="10.00"> </text>
<text text-anchor="start" x="96" y="-839.5" font-family="Helvetica,sans-Serif" font-size="10.00"> </text>
<polygon fill="#bfbfbf" stroke="#bfbfbf" points="77.5,-864.5 77.5,-864.5 118.5,-864.5 118.5,-864.5 77.5,-864.5"/>
<polygon fill="#bfbfbf" stroke="#bfbfbf" points="77.5,-849.5 77.5,-849.5 118.5,-849.5 118.5,-849.5 77.5,-849.5"/>
<polygon fill="none" stroke="#bfbfbf" points="77,-833 77,-882 118,-882 118,-833 77,-833"/>
</a>
</g>
</g>
<!-- Node4&#45;&gt;Node3 -->
<g id="edge3_Node000003_Node000004" class="edge">
<title>Node4&#45;&gt;Node3</title>
<g id="a_edge3_Node000003_Node000004"><a xlink:title=" ">
<path fill="none" stroke="orange" d="M97.5,-822.6C97.5,-810.54 97.5,-797.23 97.5,-786.21"/>
<polygon fill="orange" stroke="orange" points="94,-822.78 97.5,-832.78 101,-822.78 94,-822.78"/>
</a>
</g>
<text text-anchor="middle" x="127.5" y="-807" font-family="Helvetica,sans-Serif" font-size="10.00" fill="grey"> &lt; uint8_t &gt;</text>
</g>
</g>
</svg>

<g id="navigator" transform="translate(0 0)" fill="#404254">
  <rect fill="#f2f5e9" fill-opacity="0.5" stroke="#606060" stroke-width=".5" x="0" y="0" width="60" height="60"/>
  <use id="zoomplus" xlink:href="#zoomPlus" x="17" y="9" onmousedown="handleZoom(evt,'in')"/>
  <use id="zoomminus" xlink:href="#zoomMin" x="42" y="9" onmousedown="handleZoom(evt,'out')"/>
  <use id="reset" xlink:href="#resetDef" x="30" y="36" onmousedown="handleReset()"/>
   <use id="arrowup" xlink:href="#arrowUp" x="0" y="0" onmousedown="handlePan(0,-1)"/>
  <use id="arrowright" xlink:href="#arrowRight" x="0" y="0" onmousedown="handlePan(1,0)"/>
  <use id="arrowdown" xlink:href="#arrowDown" x="0" y="0" onmousedown="handlePan(0,1)"/>
  <use id="arrowleft" xlink:href="#arrowLeft" x="0" y="0" onmousedown="handlePan(-1,0)"/>
</g>
<svg viewBox="0 0 15 15" width="100%" height="30px" preserveAspectRatio="xMaxYMin meet">
 <g id="arrow_out" transform="scale(0.3 0.3)">
  <a xlink:href="classflexxlam_1_1PushPointCloudProtocol__coll__graph_org.svg" target="_base">
   <rect id="button" ry="5" rx="5" y="6" x="6" height="38" width="38"
        fill="#f2f5e9" fill-opacity="0.5" stroke="#606060" stroke-width="1.0"/>
   <path id="arrow"
     d="M 11.500037,31.436501 C 11.940474,20.09759 22.043105,11.32322 32.158766,21.979434 L 37.068811,17.246167 C 37.068811,17.246167 37.088388,32 37.088388,32 L 22.160133,31.978069 C 22.160133,31.978069 26.997745,27.140456 26.997745,27.140456 C 18.528582,18.264221 13.291696,25.230495 11.500037,31.436501 z"
     style="fill:#404040;"/>
  </a>
 </g>
</svg>

<style type='text/css'>
<![CDATA[
[data-mouse-over-selected='false'] { opacity: 0.7; }
[data-mouse-over-selected='true']  { opacity: 1.0; }
]]>
</style>
<script type="application/ecmascript"><![CDATA[
document.addEventListener('DOMContentLoaded', (event) => {
  highlightEdges();
  highlightAdjacentNodes();
});
]]></script>
</svg>
