<?xml version="1.0" encoding="UTF-8" standalone="no"?>
<!DOCTYPE svg PUBLIC "-//W3C//DTD SVG 1.1//EN"
 "http://www.w3.org/Graphics/SVG/1.1/DTD/svg11.dtd">
<!-- Generated by graphviz version 2.43.0 (0)
 -->
<!-- Title: flexxlam::BaseProtocol::get_checksum Pages: 1 -->
<svg width="480pt" height="134pt"
 viewBox="0.00 0.00 480.00 134.00" xmlns="http://www.w3.org/2000/svg" xmlns:xlink="http://www.w3.org/1999/xlink">

<svg id="main" version="1.1" xmlns="http://www.w3.org/2000/svg" xmlns:xlink="http://www.w3.org/1999/xlink" xml:space="preserve" onload="init(evt)">
<style type="text/css"><![CDATA[
.node, .edge {opacity: 0.7;}
.node.selected, .edge.selected {opacity: 1;}
.edge:hover path { stroke: red; }
.edge:hover polygon { stroke: red; fill: red; }
]]></style>
<script type="application/ecmascript" xlink:href="svg.min.js"/>
<svg id="graph" class="graph">
<g id="graph0" class="graph" transform="scale(1 1) rotate(0) translate(4 130)">
<title>flexxlam::BaseProtocol::get_checksum</title>
<!-- Node1 -->
<g id="Node000001" class="node">
<title>Node1</title>
<g id="a_Node000001"><a xlink:title="Get checksum of protocol.">
<polygon fill="#999999" stroke="#666666" points="472,-78 343,-78 343,-48 472,-48 472,-78"/>
<text text-anchor="start" x="351" y="-66" font-family="Helvetica,sans-Serif" font-size="10.00">flexxlam::BaseProtocol</text>
<text text-anchor="middle" x="407.5" y="-55" font-family="Helvetica,sans-Serif" font-size="10.00">::get_checksum</text>
</a>
</g>
</g>
<!-- Node2 -->
<g id="Node000002" class="node">
<title>Node2</title>
<g id="a_Node000002"><a xlink:href="classflexxlam_1_1BaseProtocol.html#a4696d0055c2953aa38939d54cfe474fc" target="_top" xlink:title="Decapsulate payload from protocol.">
<polygon fill="white" stroke="#666666" points="300.5,-126 171.5,-126 171.5,-96 300.5,-96 300.5,-126"/>
<text text-anchor="start" x="179.5" y="-114" font-family="Helvetica,sans-Serif" font-size="10.00">flexxlam::BaseProtocol</text>
<text text-anchor="middle" x="236" y="-103" font-family="Helvetica,sans-Serif" font-size="10.00">::decapsulate_</text>
</a>
</g>
</g>
<!-- Node1&#45;&gt;Node2 -->
<g id="edge1_Node000001_Node000002" class="edge">
<title>Node1&#45;&gt;Node2</title>
<g id="a_edge1_Node000001_Node000002"><a xlink:title=" ">
<path fill="none" stroke="#63b8ff" d="M343.69,-80.79C326.03,-85.79 307,-91.18 289.98,-96"/>
<polygon fill="#63b8ff" stroke="#63b8ff" points="344.67,-84.15 353.33,-78.06 342.76,-77.41 344.67,-84.15"/>
</a>
</g>
</g>
<!-- Node4 -->
<g id="Node000004" class="node">
<title>Node4</title>
<g id="a_Node000004"><a xlink:href="classflexxlam_1_1BaseProtocol.html#a1572edb32a2d5adc643a86295835e2b9" target="_top" xlink:title="Create whole protocol message from payload.">
<polygon fill="white" stroke="#666666" points="300.5,-78 171.5,-78 171.5,-48 300.5,-48 300.5,-78"/>
<text text-anchor="start" x="179.5" y="-66" font-family="Helvetica,sans-Serif" font-size="10.00">flexxlam::BaseProtocol</text>
<text text-anchor="middle" x="236" y="-55" font-family="Helvetica,sans-Serif" font-size="10.00">::encapsulate_</text>
</a>
</g>
</g>
<!-- Node1&#45;&gt;Node4 -->
<g id="edge3_Node000001_Node000004" class="edge">
<title>Node1&#45;&gt;Node4</title>
<g id="a_edge3_Node000001_Node000004"><a xlink:title=" ">
<path fill="none" stroke="#63b8ff" d="M332.75,-63C322.06,-63 311.14,-63 300.67,-63"/>
<polygon fill="#63b8ff" stroke="#63b8ff" points="332.9,-66.5 342.9,-63 332.9,-59.5 332.9,-66.5"/>
</a>
</g>
</g>
<!-- Node6 -->
<g id="Node000006" class="node">
<title>Node6</title>
<g id="a_Node000006"><a xlink:href="classflexxlam_1_1FlexXlamParser.html#a46e76777b9780ee2a11d079f3792ffc1" target="_top" xlink:title="Parse byte array.">
<polygon fill="white" stroke="#666666" points="307,-30 165,-30 165,0 307,0 307,-30"/>
<text text-anchor="start" x="173" y="-18" font-family="Helvetica,sans-Serif" font-size="10.00">flexxlam::FlexXlamParser</text>
<text text-anchor="middle" x="236" y="-7" font-family="Helvetica,sans-Serif" font-size="10.00">::parse</text>
</a>
</g>
</g>
<!-- Node1&#45;&gt;Node6 -->
<g id="edge5_Node000001_Node000006" class="edge">
<title>Node1&#45;&gt;Node6</title>
<g id="a_edge5_Node000001_Node000006"><a xlink:title=" ">
<path fill="none" stroke="#63b8ff" d="M343.69,-45.21C326.03,-40.21 307,-34.82 289.98,-30"/>
<polygon fill="#63b8ff" stroke="#63b8ff" points="342.76,-48.59 353.33,-47.94 344.67,-41.85 342.76,-48.59"/>
</a>
</g>
</g>
<!-- Node3 -->
<g id="Node000003" class="node">
<title>Node3</title>
<g id="a_Node000003"><a xlink:href="classflexxlam_1_1BaseProtocol.html#a403fa6b66bfeee3335dd291cfb180a32" target="_top" xlink:title="Base protocol constructor.">
<polygon fill="white" stroke="#666666" points="129,-126 0,-126 0,-96 129,-96 129,-126"/>
<text text-anchor="start" x="8" y="-114" font-family="Helvetica,sans-Serif" font-size="10.00">flexxlam::BaseProtocol</text>
<text text-anchor="middle" x="64.5" y="-103" font-family="Helvetica,sans-Serif" font-size="10.00">::BaseProtocol</text>
</a>
</g>
</g>
<!-- Node2&#45;&gt;Node3 -->
<g id="edge2_Node000002_Node000003" class="edge">
<title>Node2&#45;&gt;Node3</title>
<g id="a_edge2_Node000002_Node000003"><a xlink:title=" ">
<path fill="none" stroke="#63b8ff" d="M161.25,-111C150.56,-111 139.64,-111 129.17,-111"/>
<polygon fill="#63b8ff" stroke="#63b8ff" points="161.4,-114.5 171.4,-111 161.4,-107.5 161.4,-114.5"/>
</a>
</g>
</g>
<!-- Node5 -->
<g id="Node000005" class="node">
<title>Node5</title>
<g id="a_Node000005"><a xlink:href="classflexxlam_1_1BaseProtocol.html#a7827875cf3d6f5d115e09a0a6097d63d" target="_top" xlink:title="Encapsulate payload into the protocol.">
<polygon fill="white" stroke="#666666" points="129,-78 0,-78 0,-48 129,-48 129,-78"/>
<text text-anchor="start" x="8" y="-66" font-family="Helvetica,sans-Serif" font-size="10.00">flexxlam::BaseProtocol</text>
<text text-anchor="middle" x="64.5" y="-55" font-family="Helvetica,sans-Serif" font-size="10.00">::encapsulate</text>
</a>
</g>
</g>
<!-- Node4&#45;&gt;Node5 -->
<g id="edge4_Node000004_Node000005" class="edge">
<title>Node4&#45;&gt;Node5</title>
<g id="a_edge4_Node000004_Node000005"><a xlink:title=" ">
<path fill="none" stroke="#63b8ff" d="M161.25,-63C150.56,-63 139.64,-63 129.17,-63"/>
<polygon fill="#63b8ff" stroke="#63b8ff" points="161.4,-66.5 171.4,-63 161.4,-59.5 161.4,-66.5"/>
</a>
</g>
</g>
</g>
</svg>
</svg>

<style type='text/css'>
<![CDATA[
[data-mouse-over-selected='false'] { opacity: 0.7; }
[data-mouse-over-selected='true']  { opacity: 1.0; }
]]>
</style>
<script type="application/ecmascript"><![CDATA[
document.addEventListener('DOMContentLoaded', (event) => {
  highlightEdges();
  highlightAdjacentNodes();
});
]]></script>
</svg>
