<?xml version="1.0" encoding="UTF-8" standalone="no"?>
<!DOCTYPE svg PUBLIC "-//W3C//DTD SVG 1.1//EN"
 "http://www.w3.org/Graphics/SVG/1.1/DTD/svg11.dtd">
<!-- Generated by graphviz version 2.43.0 (0)
 -->
<!-- Title: flexxlam::RequestMavlinkCommunicationConfigProtocol::handle_callback Pages: 1 -->
<svg width="528pt" height="49pt"
 viewBox="0.00 0.00 528.00 49.00" xmlns="http://www.w3.org/2000/svg" xmlns:xlink="http://www.w3.org/1999/xlink">
<g id="graph0" class="graph" transform="scale(1 1) rotate(0) translate(4 45)">
<title>flexxlam::RequestMavlinkCommunicationConfigProtocol::handle_callback</title>
<!-- Node1 -->
<g id="Node000001" class="node">
<title>Node1</title>
<g id="a_Node000001"><a xlink:title="Call callback functions from parsed message interface.">
<polygon fill="#999999" stroke="#666666" points="520,-41 356,-41 356,0 520,0 520,-41"/>
<text text-anchor="start" x="364" y="-29" font-family="Helvetica,sans-Serif" font-size="10.00">flexxlam::RequestMavlink</text>
<text text-anchor="start" x="364" y="-18" font-family="Helvetica,sans-Serif" font-size="10.00">CommunicationConfigProtocol</text>
<text text-anchor="middle" x="438" y="-7" font-family="Helvetica,sans-Serif" font-size="10.00">::handle_callback</text>
</a>
</g>
</g>
<!-- Node2 -->
<g id="Node000002" class="node">
<title>Node2</title>
<g id="a_Node000002"><a xlink:href="classflexxlam_1_1FlexXlamParser.html#a35479f7f849c941cfad23b7777d698f7" target="_top" xlink:title="Decapsulate payload and call parsed message callback.">
<polygon fill="white" stroke="#666666" points="320,-35.5 178,-35.5 178,-5.5 320,-5.5 320,-35.5"/>
<text text-anchor="start" x="186" y="-23.5" font-family="Helvetica,sans-Serif" font-size="10.00">flexxlam::FlexXlamParser</text>
<text text-anchor="middle" x="249" y="-12.5" font-family="Helvetica,sans-Serif" font-size="10.00">::decapsulate_payload_</text>
</a>
</g>
</g>
<!-- Node1&#45;&gt;Node2 -->
<g id="edge1_Node000001_Node000002" class="edge">
<title>Node1&#45;&gt;Node2</title>
<g id="a_edge1_Node000001_Node000002"><a xlink:title=" ">
<path fill="none" stroke="#63b8ff" d="M345.77,-20.5C337.2,-20.5 328.61,-20.5 320.28,-20.5"/>
<polygon fill="#63b8ff" stroke="#63b8ff" points="345.79,-24 355.79,-20.5 345.79,-17 345.79,-24"/>
</a>
</g>
</g>
<!-- Node3 -->
<g id="Node000003" class="node">
<title>Node3</title>
<g id="a_Node000003"><a xlink:href="classflexxlam_1_1FlexXlamParser.html#a46e76777b9780ee2a11d079f3792ffc1" target="_top" xlink:title="Parse byte array.">
<polygon fill="white" stroke="#666666" points="142,-35.5 0,-35.5 0,-5.5 142,-5.5 142,-35.5"/>
<text text-anchor="start" x="8" y="-23.5" font-family="Helvetica,sans-Serif" font-size="10.00">flexxlam::FlexXlamParser</text>
<text text-anchor="middle" x="71" y="-12.5" font-family="Helvetica,sans-Serif" font-size="10.00">::parse</text>
</a>
</g>
</g>
<!-- Node2&#45;&gt;Node3 -->
<g id="edge2_Node000002_Node000003" class="edge">
<title>Node2&#45;&gt;Node3</title>
<g id="a_edge2_Node000002_Node000003"><a xlink:title=" ">
<path fill="none" stroke="#63b8ff" d="M167.9,-20.5C159.29,-20.5 150.59,-20.5 142.11,-20.5"/>
<polygon fill="#63b8ff" stroke="#63b8ff" points="167.93,-24 177.93,-20.5 167.93,-17 167.93,-24"/>
</a>
</g>
</g>
</g>
</svg>
