<?xml version="1.0" encoding="UTF-8" standalone="no"?>
<!DOCTYPE svg PUBLIC "-//W3C//DTD SVG 1.1//EN"
 "http://www.w3.org/Graphics/SVG/1.1/DTD/svg11.dtd">
<!-- Generated by graphviz version 2.43.0 (0)
 -->
<!-- Title: flexxlam::SetMavlinkCommunicationConfigProtocol::SetMavlinkCommunicationConfigProtocol Pages: 1 -->
<svg width="623pt" height="62pt"
 viewBox="0.00 0.00 623.00 61.50" xmlns="http://www.w3.org/2000/svg" xmlns:xlink="http://www.w3.org/1999/xlink">
<g id="graph0" class="graph" transform="scale(1 1) rotate(0) translate(4 57.5)">
<title>flexxlam::SetMavlinkCommunicationConfigProtocol::SetMavlinkCommunicationConfigProtocol</title>
<!-- Node1 -->
<g id="Node000001" class="node">
<title>Node1</title>
<g id="a_Node000001"><a xlink:title="Set mavlink communication config protocol constructor.">
<polygon fill="#999999" stroke="#666666" points="225,-41 0,-41 0,0 225,0 225,-41"/>
<text text-anchor="start" x="8" y="-29" font-family="Helvetica,sans-Serif" font-size="10.00">flexxlam::SetMavlinkCommunication</text>
<text text-anchor="start" x="8" y="-18" font-family="Helvetica,sans-Serif" font-size="10.00">ConfigProtocol::SetMavlinkCommunication</text>
<text text-anchor="middle" x="112.5" y="-7" font-family="Helvetica,sans-Serif" font-size="10.00">ConfigProtocol</text>
</a>
</g>
</g>
<!-- Node2 -->
<g id="Node000002" class="node">
<title>Node2</title>
<g id="a_Node000002"><a xlink:href="classflexxlam_1_1SetMavlinkCommunicationConfigProtocol.html#aee2f04982c4b3da12548f8f23383f777" target="_top" xlink:title="Initialize enabled_ and baudrate_ from payload">
<polygon fill="white" stroke="#666666" points="458,-35.5 261,-35.5 261,-5.5 458,-5.5 458,-35.5"/>
<text text-anchor="start" x="269" y="-23.5" font-family="Helvetica,sans-Serif" font-size="10.00">flexxlam::SetMavlinkCommunication</text>
<text text-anchor="middle" x="359.5" y="-12.5" font-family="Helvetica,sans-Serif" font-size="10.00">ConfigProtocol::init_from_payload_</text>
</a>
</g>
</g>
<!-- Node1&#45;&gt;Node2 -->
<g id="edge1_Node000001_Node000002" class="edge">
<title>Node1&#45;&gt;Node2</title>
<g id="a_edge1_Node000001_Node000002"><a xlink:title=" ">
<path fill="none" stroke="#63b8ff" d="M225.25,-20.5C233.68,-20.5 242.18,-20.5 250.59,-20.5"/>
<polygon fill="#63b8ff" stroke="#63b8ff" points="250.79,-24 260.79,-20.5 250.79,-17 250.79,-24"/>
</a>
</g>
</g>
<!-- Node3 -->
<g id="Node000003" class="node">
<title>Node3</title>
<g id="a_Node000003"><a xlink:href="namespaceflexxlam_1_1from__bytes.html#ab8c3593a8c91bb527232a403823449e9" target="_top" xlink:title="Convert 1~4 bytes to int.">
<polygon fill="white" stroke="#666666" points="615,-35.5 494,-35.5 494,-5.5 615,-5.5 615,-35.5"/>
<text text-anchor="start" x="502" y="-23.5" font-family="Helvetica,sans-Serif" font-size="10.00">flexxlam::from_bytes</text>
<text text-anchor="middle" x="554.5" y="-12.5" font-family="Helvetica,sans-Serif" font-size="10.00">::to_int</text>
</a>
</g>
</g>
<!-- Node2&#45;&gt;Node3 -->
<g id="edge2_Node000002_Node000003" class="edge">
<title>Node2&#45;&gt;Node3</title>
<g id="a_edge2_Node000002_Node000003"><a xlink:title=" ">
<path fill="none" stroke="#63b8ff" d="M458.13,-20.5C466.77,-20.5 475.4,-20.5 483.74,-20.5"/>
<polygon fill="#63b8ff" stroke="#63b8ff" points="483.75,-24 493.75,-20.5 483.75,-17 483.75,-24"/>
</a>
</g>
</g>
<!-- Node3&#45;&gt;Node3 -->
<g id="edge3_Node000003_Node000003" class="edge">
<title>Node3&#45;&gt;Node3</title>
<g id="a_edge3_Node000003_Node000003"><a xlink:title=" ">
<path fill="none" stroke="#63b8ff" d="M520.4,-35.78C512.82,-44.91 524.19,-53.5 554.5,-53.5 572.5,-53.5 583.82,-50.47 588.46,-46.1"/>
<polygon fill="#63b8ff" stroke="#63b8ff" points="591.96,-45.82 588.6,-35.78 584.96,-45.73 591.96,-45.82"/>
</a>
</g>
</g>
</g>
</svg>
