<?xml version="1.0" encoding="UTF-8" standalone="no"?>
<!DOCTYPE svg PUBLIC "-//W3C//DTD SVG 1.1//EN"
 "http://www.w3.org/Graphics/SVG/1.1/DTD/svg11.dtd">
<!-- Generated by graphviz version 2.43.0 (0)
 -->
<!-- Title: flexxlam::BaseProtocol::encapsulate_ Pages: 1 -->
<svg width="304pt" height="76pt"
 viewBox="0.00 0.00 304.00 75.50" xmlns="http://www.w3.org/2000/svg" xmlns:xlink="http://www.w3.org/1999/xlink">
<g id="graph0" class="graph" transform="scale(1 1) rotate(0) translate(4 71.5)">
<title>flexxlam::BaseProtocol::encapsulate_</title>
<!-- Node1 -->
<g id="Node000001" class="node">
<title>Node1</title>
<g id="a_Node000001"><a xlink:title="Create whole protocol message from payload.">
<polygon fill="#999999" stroke="#666666" points="129,-45.5 0,-45.5 0,-15.5 129,-15.5 129,-45.5"/>
<text text-anchor="start" x="8" y="-33.5" font-family="Helvetica,sans-Serif" font-size="10.00">flexxlam::BaseProtocol</text>
<text text-anchor="middle" x="64.5" y="-22.5" font-family="Helvetica,sans-Serif" font-size="10.00">::encapsulate_</text>
</a>
</g>
</g>
<!-- Node2 -->
<g id="Node000002" class="node">
<title>Node2</title>
<g id="a_Node000002"><a xlink:href="classflexxlam_1_1BaseProtocol.html#aa522a89e9d4ccbb40a9171a173291735" target="_top" xlink:title="Get checksum of protocol.">
<polygon fill="white" stroke="#666666" points="295,-67.5 166,-67.5 166,-37.5 295,-37.5 295,-67.5"/>
<text text-anchor="start" x="174" y="-55.5" font-family="Helvetica,sans-Serif" font-size="10.00">flexxlam::BaseProtocol</text>
<text text-anchor="middle" x="230.5" y="-44.5" font-family="Helvetica,sans-Serif" font-size="10.00">::get_checksum</text>
</a>
</g>
</g>
<!-- Node1&#45;&gt;Node2 -->
<g id="edge1_Node000001_Node000002" class="edge">
<title>Node1&#45;&gt;Node2</title>
<g id="a_edge1_Node000001_Node000002"><a xlink:title=" ">
<path fill="none" stroke="#63b8ff" d="M129.38,-39.07C137.97,-40.22 146.85,-41.41 155.6,-42.59"/>
<polygon fill="#63b8ff" stroke="#63b8ff" points="155.42,-46.09 165.8,-43.95 156.35,-39.16 155.42,-46.09"/>
</a>
</g>
</g>
<!-- Node3 -->
<g id="Node000003" class="node">
<title>Node3</title>
<g id="a_Node000003"><a xlink:href="namespaceflexxlam_1_1to__bytes.html#ab5dcb7b82707dabad0a147c9eff13ed8" target="_top" xlink:title="Convert int to 2 bytes with little endian.">
<polygon fill="white" stroke="#666666" points="296,-19 165,-19 165,0 296,0 296,-19"/>
<text text-anchor="middle" x="230.5" y="-7" font-family="Helvetica,sans-Serif" font-size="10.00">flexxlam::to_bytes::two</text>
</a>
</g>
</g>
<!-- Node1&#45;&gt;Node3 -->
<g id="edge2_Node000001_Node000003" class="edge">
<title>Node1&#45;&gt;Node3</title>
<g id="a_edge2_Node000001_Node000003"><a xlink:title=" ">
<path fill="none" stroke="#63b8ff" d="M129.38,-22.32C137.78,-21.24 146.45,-20.13 155.01,-19.04"/>
<polygon fill="#63b8ff" stroke="#63b8ff" points="155.51,-22.5 164.99,-17.76 154.62,-15.56 155.51,-22.5"/>
</a>
</g>
</g>
</g>
</svg>
