<?xml version="1.0" encoding="UTF-8" standalone="no"?>
<!DOCTYPE svg PUBLIC "-//W3C//DTD SVG 1.1//EN"
 "http://www.w3.org/Graphics/SVG/1.1/DTD/svg11.dtd">
<!-- Generated by graphviz version 2.43.0 (0)
 -->
<!-- Title: flexxlam::FlexXlamParser::decapsulate_payload_ Pages: 1 -->
<svg width="396pt" height="865pt"
 viewBox="0.00 0.00 396.00 865.00" xmlns="http://www.w3.org/2000/svg" xmlns:xlink="http://www.w3.org/1999/xlink">
<g id="graph0" class="graph" transform="scale(1 1) rotate(0) translate(4 861)">
<title>flexxlam::FlexXlamParser::decapsulate_payload_</title>
<!-- Node1 -->
<g id="Node000001" class="node">
<title>Node1</title>
<g id="a_Node000001"><a xlink:title="Decapsulate payload and call parsed message callback.">
<polygon fill="#999999" stroke="#666666" points="142,-449 0,-449 0,-419 142,-419 142,-449"/>
<text text-anchor="start" x="8" y="-437" font-family="Helvetica,sans-Serif" font-size="10.00">flexxlam::FlexXlamParser</text>
<text text-anchor="middle" x="71" y="-426" font-family="Helvetica,sans-Serif" font-size="10.00">::decapsulate_payload_</text>
</a>
</g>
</g>
<!-- Node2 -->
<g id="Node000002" class="node">
<title>Node2</title>
<g id="a_Node000002"><a xlink:href="classflexxlam_1_1AcknowledgeProtocol.html#aab91f7fb80faf35d1c825b694224b2b3" target="_top" xlink:title="Call callback functions from parsed message interface.">
<polygon fill="white" stroke="#666666" points="368,-857 198,-857 198,-827 368,-827 368,-857"/>
<text text-anchor="start" x="206" y="-845" font-family="Helvetica,sans-Serif" font-size="10.00">flexxlam::AcknowledgeProtocol</text>
<text text-anchor="middle" x="283" y="-834" font-family="Helvetica,sans-Serif" font-size="10.00">::handle_callback</text>
</a>
</g>
</g>
<!-- Node1&#45;&gt;Node2 -->
<g id="edge1_Node000001_Node000002" class="edge">
<title>Node1&#45;&gt;Node2</title>
<g id="a_edge1_Node000001_Node000002"><a xlink:title=" ">
<path fill="none" stroke="#63b8ff" d="M74.12,-449.27C83.39,-513.99 122.45,-764.76 178,-818 181.33,-821.19 184.99,-823.98 188.89,-826.43"/>
<polygon fill="#63b8ff" stroke="#63b8ff" points="187.31,-829.56 197.76,-831.25 190.65,-823.4 187.31,-829.56"/>
</a>
</g>
</g>
<!-- Node3 -->
<g id="Node000003" class="node">
<title>Node3</title>
<g id="a_Node000003"><a xlink:href="classflexxlam_1_1PingProtocol.html#a91c5c07ee5e840d8664f3dc45e520ee9" target="_top" xlink:title="Call callback functions from parsed message interface.">
<polygon fill="white" stroke="#666666" points="346,-809 220,-809 220,-779 346,-779 346,-809"/>
<text text-anchor="start" x="228" y="-797" font-family="Helvetica,sans-Serif" font-size="10.00">flexxlam::PingProtocol</text>
<text text-anchor="middle" x="283" y="-786" font-family="Helvetica,sans-Serif" font-size="10.00">::handle_callback</text>
</a>
</g>
</g>
<!-- Node1&#45;&gt;Node3 -->
<g id="edge2_Node000001_Node000003" class="edge">
<title>Node1&#45;&gt;Node3</title>
<g id="a_edge2_Node000001_Node000003"><a xlink:title=" ">
<path fill="none" stroke="#63b8ff" d="M71.85,-449.11C72.17,-501.95 80.74,-680.12 178,-770 186.98,-778.3 198.25,-783.92 210.02,-787.68"/>
<polygon fill="#63b8ff" stroke="#63b8ff" points="209.42,-791.15 220,-790.43 211.28,-784.4 209.42,-791.15"/>
</a>
</g>
</g>
<!-- Node4 -->
<g id="Node000004" class="node">
<title>Node4</title>
<g id="a_Node000004"><a xlink:href="classflexxlam_1_1CommandSavePCDProtocol.html#a53271449d041bf8079fb39d1f9e8b430" target="_top" xlink:title="Call callback functions from parsed message interface.">
<polygon fill="white" stroke="#666666" points="383,-761 183,-761 183,-731 383,-731 383,-761"/>
<text text-anchor="start" x="191" y="-749" font-family="Helvetica,sans-Serif" font-size="10.00">flexxlam::CommandSavePCDProtocol</text>
<text text-anchor="middle" x="283" y="-738" font-family="Helvetica,sans-Serif" font-size="10.00">::handle_callback</text>
</a>
</g>
</g>
<!-- Node1&#45;&gt;Node4 -->
<g id="edge3_Node000001_Node000004" class="edge">
<title>Node1&#45;&gt;Node4</title>
<g id="a_edge3_Node000001_Node000004"><a xlink:title=" ">
<path fill="none" stroke="#63b8ff" d="M72.76,-449.3C76.02,-497.42 92.87,-646.96 178,-722 179.34,-723.18 180.72,-724.3 182.15,-725.38"/>
<polygon fill="#63b8ff" stroke="#63b8ff" points="180.43,-728.44 190.72,-730.96 184.25,-722.57 180.43,-728.44"/>
</a>
</g>
</g>
<!-- Node5 -->
<g id="Node000005" class="node">
<title>Node5</title>
<g id="a_Node000005"><a xlink:href="classflexxlam_1_1PushOdometryProtocol.html#a48313b5779aa9f867f727087eb3429c2" target="_top" xlink:title="Call callback functions from parsed message interface.">
<polygon fill="white" stroke="#666666" points="371.5,-713 194.5,-713 194.5,-683 371.5,-683 371.5,-713"/>
<text text-anchor="start" x="202.5" y="-701" font-family="Helvetica,sans-Serif" font-size="10.00">flexxlam::PushOdometryProtocol</text>
<text text-anchor="middle" x="283" y="-690" font-family="Helvetica,sans-Serif" font-size="10.00">::handle_callback</text>
</a>
</g>
</g>
<!-- Node1&#45;&gt;Node5 -->
<g id="edge4_Node000001_Node000005" class="edge">
<title>Node1&#45;&gt;Node5</title>
<g id="a_edge4_Node000001_Node000005"><a xlink:title=" ">
<path fill="none" stroke="#63b8ff" d="M73.99,-449.16C80.41,-491.76 104.63,-613.34 178,-674 180.42,-676 182.98,-677.84 185.64,-679.54"/>
<polygon fill="#63b8ff" stroke="#63b8ff" points="184.04,-682.65 194.48,-684.46 187.45,-676.54 184.04,-682.65"/>
</a>
</g>
</g>
<!-- Node6 -->
<g id="Node000006" class="node">
<title>Node6</title>
<g id="a_Node000006"><a xlink:href="classflexxlam_1_1PushPointCloudProtocol.html#a9bac0ee88348977703eebaef0fc2b58a" target="_top" xlink:title="Call callback functions from parsed message interface.">
<polygon fill="white" stroke="#666666" points="353.5,-665 212.5,-665 212.5,-635 353.5,-635 353.5,-665"/>
<text text-anchor="start" x="220.5" y="-653" font-family="Helvetica,sans-Serif" font-size="10.00">flexxlam::PushPointCloud</text>
<text text-anchor="middle" x="283" y="-642" font-family="Helvetica,sans-Serif" font-size="10.00">Protocol::handle_callback</text>
</a>
</g>
</g>
<!-- Node1&#45;&gt;Node6 -->
<g id="edge5_Node000001_Node000006" class="edge">
<title>Node1&#45;&gt;Node6</title>
<g id="a_edge5_Node000001_Node000006"><a xlink:title=" ">
<path fill="none" stroke="#63b8ff" d="M75.74,-449.02C85.65,-485.53 116.16,-579.32 178,-626 185.39,-631.57 193.85,-635.89 202.68,-639.22"/>
<polygon fill="#63b8ff" stroke="#63b8ff" points="201.79,-642.61 212.39,-642.46 204.01,-635.97 201.79,-642.61"/>
</a>
</g>
</g>
<!-- Node7 -->
<g id="Node000007" class="node">
<title>Node7</title>
<g id="a_Node000007"><a xlink:href="classflexxlam_1_1RequestEthernetCommunicationConfigProtocol.html#ab3bbebc3b222d1be643a57c48d0cd9dc" target="_top" xlink:title="Call callback functions from parsed message interface.">
<polygon fill="white" stroke="#666666" points="365,-616.5 201,-616.5 201,-575.5 365,-575.5 365,-616.5"/>
<text text-anchor="start" x="209" y="-604.5" font-family="Helvetica,sans-Serif" font-size="10.00">flexxlam::RequestEthernet</text>
<text text-anchor="start" x="209" y="-593.5" font-family="Helvetica,sans-Serif" font-size="10.00">CommunicationConfigProtocol</text>
<text text-anchor="middle" x="283" y="-582.5" font-family="Helvetica,sans-Serif" font-size="10.00">::handle_callback</text>
</a>
</g>
</g>
<!-- Node1&#45;&gt;Node7 -->
<g id="edge6_Node000001_Node000007" class="edge">
<title>Node1&#45;&gt;Node7</title>
<g id="a_edge6_Node000001_Node000007"><a xlink:title=" ">
<path fill="none" stroke="#63b8ff" d="M79.99,-449.19C95.27,-476.72 131.28,-534.88 178,-566 182.29,-568.86 186.85,-571.44 191.58,-573.79"/>
<polygon fill="#63b8ff" stroke="#63b8ff" points="190.3,-577.05 200.85,-578.01 193.2,-570.68 190.3,-577.05"/>
</a>
</g>
</g>
<!-- Node8 -->
<g id="Node000008" class="node">
<title>Node8</title>
<g id="a_Node000008"><a xlink:href="classflexxlam_1_1RequestLidarConfigProtocol.html#a335ca0729e895e980d5d36d52ec9082b" target="_top" xlink:title="Call callback functions from parsed message interface.">
<polygon fill="white" stroke="#666666" points="363,-557 203,-557 203,-527 363,-527 363,-557"/>
<text text-anchor="start" x="211" y="-545" font-family="Helvetica,sans-Serif" font-size="10.00">flexxlam::RequestLidarConfig</text>
<text text-anchor="middle" x="283" y="-534" font-family="Helvetica,sans-Serif" font-size="10.00">Protocol::handle_callback</text>
</a>
</g>
</g>
<!-- Node1&#45;&gt;Node8 -->
<g id="edge7_Node000001_Node000008" class="edge">
<title>Node1&#45;&gt;Node8</title>
<g id="a_edge7_Node000001_Node000008"><a xlink:title=" ">
<path fill="none" stroke="#63b8ff" d="M86.66,-449.21C105.86,-468.22 141.4,-500.39 178,-518 182.9,-520.36 188.05,-522.49 193.33,-524.42"/>
<polygon fill="#63b8ff" stroke="#63b8ff" points="192.33,-527.78 202.92,-527.68 194.58,-521.15 192.33,-527.78"/>
</a>
</g>
</g>
<!-- Node9 -->
<g id="Node000009" class="node">
<title>Node9</title>
<g id="a_Node000009"><a xlink:href="classflexxlam_1_1RequestMavlinkCommunicationConfigProtocol.html#a12e6f56a0d69509ec0048f0ef40793ff" target="_top" xlink:title="Call callback functions from parsed message interface.">
<polygon fill="white" stroke="#666666" points="365,-508.5 201,-508.5 201,-467.5 365,-467.5 365,-508.5"/>
<text text-anchor="start" x="209" y="-496.5" font-family="Helvetica,sans-Serif" font-size="10.00">flexxlam::RequestMavlink</text>
<text text-anchor="start" x="209" y="-485.5" font-family="Helvetica,sans-Serif" font-size="10.00">CommunicationConfigProtocol</text>
<text text-anchor="middle" x="283" y="-474.5" font-family="Helvetica,sans-Serif" font-size="10.00">::handle_callback</text>
</a>
</g>
</g>
<!-- Node1&#45;&gt;Node9 -->
<g id="edge8_Node000001_Node000009" class="edge">
<title>Node1&#45;&gt;Node9</title>
<g id="a_edge8_Node000001_Node000009"><a xlink:title=" ">
<path fill="none" stroke="#63b8ff" d="M130.5,-449.04C149.67,-453.97 171.43,-459.57 192.37,-464.95"/>
<polygon fill="#63b8ff" stroke="#63b8ff" points="191.68,-468.39 202.24,-467.49 193.42,-461.61 191.68,-468.39"/>
</a>
</g>
</g>
<!-- Node10 -->
<g id="Node000010" class="node">
<title>Node10</title>
<g id="a_Node000010"><a xlink:href="classflexxlam_1_1RequestSerialCommunicationConfigProtocol.html#a46f7e729c654878111d8496babdb7182" target="_top" xlink:title="Call callback functions from parsed message interface.">
<polygon fill="white" stroke="#666666" points="388,-449 178,-449 178,-419 388,-419 388,-449"/>
<text text-anchor="start" x="186" y="-437" font-family="Helvetica,sans-Serif" font-size="10.00">flexxlam::RequestSerialCommunication</text>
<text text-anchor="middle" x="283" y="-426" font-family="Helvetica,sans-Serif" font-size="10.00">ConfigProtocol::handle_callback</text>
</a>
</g>
</g>
<!-- Node1&#45;&gt;Node10 -->
<g id="edge9_Node000001_Node000010" class="edge">
<title>Node1&#45;&gt;Node10</title>
<g id="a_edge9_Node000001_Node000010"><a xlink:title=" ">
<path fill="none" stroke="#63b8ff" d="M142.22,-434C150.45,-434 158.99,-434 167.63,-434"/>
<polygon fill="#63b8ff" stroke="#63b8ff" points="167.79,-437.5 177.79,-434 167.79,-430.5 167.79,-437.5"/>
</a>
</g>
</g>
<!-- Node11 -->
<g id="Node000011" class="node">
<title>Node11</title>
<g id="a_Node000011"><a xlink:href="classflexxlam_1_1ResponseEthernetCommunicationConfig.html#a19980895a663366ae4ff0637acff01db" target="_top" xlink:title="Call callback functions from parsed message interface.">
<polygon fill="white" stroke="#666666" points="365,-400.5 201,-400.5 201,-359.5 365,-359.5 365,-400.5"/>
<text text-anchor="start" x="209" y="-388.5" font-family="Helvetica,sans-Serif" font-size="10.00">flexxlam::ResponseEthernet</text>
<text text-anchor="start" x="209" y="-377.5" font-family="Helvetica,sans-Serif" font-size="10.00">CommunicationConfig::handle</text>
<text text-anchor="middle" x="283" y="-366.5" font-family="Helvetica,sans-Serif" font-size="10.00">_callback</text>
</a>
</g>
</g>
<!-- Node1&#45;&gt;Node11 -->
<g id="edge10_Node000001_Node000011" class="edge">
<title>Node1&#45;&gt;Node11</title>
<g id="a_edge10_Node000001_Node000011"><a xlink:title=" ">
<path fill="none" stroke="#63b8ff" d="M130.5,-418.96C149.67,-414.03 171.43,-408.43 192.37,-403.05"/>
<polygon fill="#63b8ff" stroke="#63b8ff" points="193.42,-406.39 202.24,-400.51 191.68,-399.61 193.42,-406.39"/>
</a>
</g>
</g>
<!-- Node12 -->
<g id="Node000012" class="node">
<title>Node12</title>
<g id="a_Node000012"><a xlink:href="classflexxlam_1_1ResponseLidarConfig.html#a5f7a9d19a6a3ef56e724b8aed4c9de1e" target="_top" xlink:title="Call callback functions from parsed message interface.">
<polygon fill="white" stroke="#666666" points="366.5,-341 199.5,-341 199.5,-311 366.5,-311 366.5,-341"/>
<text text-anchor="start" x="207.5" y="-329" font-family="Helvetica,sans-Serif" font-size="10.00">flexxlam::ResponseLidarConfig</text>
<text text-anchor="middle" x="283" y="-318" font-family="Helvetica,sans-Serif" font-size="10.00">::handle_callback</text>
</a>
</g>
</g>
<!-- Node1&#45;&gt;Node12 -->
<g id="edge11_Node000001_Node000012" class="edge">
<title>Node1&#45;&gt;Node12</title>
<g id="a_edge11_Node000001_Node000012"><a xlink:title=" ">
<path fill="none" stroke="#63b8ff" d="M87.06,-418.7C106.4,-399.95 141.8,-368.49 178,-351 183.02,-348.58 188.28,-346.38 193.68,-344.38"/>
<polygon fill="#63b8ff" stroke="#63b8ff" points="195.17,-347.57 203.49,-341.01 192.9,-340.95 195.17,-347.57"/>
</a>
</g>
</g>
<!-- Node13 -->
<g id="Node000013" class="node">
<title>Node13</title>
<g id="a_Node000013"><a xlink:href="classflexxlam_1_1ResponseMavlinkCommunicationConfig.html#a46a76c187815b80969c931299dcbf4dc" target="_top" xlink:title="Call callback functions from parsed message interface.">
<polygon fill="white" stroke="#666666" points="365,-292.5 201,-292.5 201,-251.5 365,-251.5 365,-292.5"/>
<text text-anchor="start" x="209" y="-280.5" font-family="Helvetica,sans-Serif" font-size="10.00">flexxlam::ResponseMavlink</text>
<text text-anchor="start" x="209" y="-269.5" font-family="Helvetica,sans-Serif" font-size="10.00">CommunicationConfig::handle</text>
<text text-anchor="middle" x="283" y="-258.5" font-family="Helvetica,sans-Serif" font-size="10.00">_callback</text>
</a>
</g>
</g>
<!-- Node1&#45;&gt;Node13 -->
<g id="edge12_Node000001_Node000013" class="edge">
<title>Node1&#45;&gt;Node13</title>
<g id="a_edge12_Node000001_Node000013"><a xlink:title=" ">
<path fill="none" stroke="#63b8ff" d="M79.99,-418.81C95.27,-391.28 131.28,-333.12 178,-302 182.29,-299.14 186.85,-296.56 191.58,-294.21"/>
<polygon fill="#63b8ff" stroke="#63b8ff" points="193.2,-297.32 200.85,-289.99 190.3,-290.95 193.2,-297.32"/>
</a>
</g>
</g>
<!-- Node14 -->
<g id="Node000014" class="node">
<title>Node14</title>
<g id="a_Node000014"><a xlink:href="classflexxlam_1_1ResponseSerialCommunicationConfig.html#a44b617fbff729ea83492801e8850be1e" target="_top" xlink:title="Call callback functions from parsed message interface.">
<polygon fill="white" stroke="#666666" points="365,-233.5 201,-233.5 201,-192.5 365,-192.5 365,-233.5"/>
<text text-anchor="start" x="209" y="-221.5" font-family="Helvetica,sans-Serif" font-size="10.00">flexxlam::ResponseSerial</text>
<text text-anchor="start" x="209" y="-210.5" font-family="Helvetica,sans-Serif" font-size="10.00">CommunicationConfig::handle</text>
<text text-anchor="middle" x="283" y="-199.5" font-family="Helvetica,sans-Serif" font-size="10.00">_callback</text>
</a>
</g>
</g>
<!-- Node1&#45;&gt;Node14 -->
<g id="edge13_Node000001_Node000014" class="edge">
<title>Node1&#45;&gt;Node14</title>
<g id="a_edge13_Node000001_Node000014"><a xlink:title=" ">
<path fill="none" stroke="#63b8ff" d="M76,-419C86.41,-382.96 117.78,-290.96 178,-243 182.27,-239.6 186.91,-236.58 191.79,-233.91"/>
<polygon fill="#63b8ff" stroke="#63b8ff" points="193.37,-237.03 200.78,-229.45 190.27,-230.76 193.37,-237.03"/>
</a>
</g>
</g>
<!-- Node15 -->
<g id="Node000015" class="node">
<title>Node15</title>
<g id="a_Node000015"><a xlink:href="classflexxlam_1_1SetEthernetCommunicationConfigProtocol.html#ab4c3443c010bddf91cdf3b904b0ab3d4" target="_top" xlink:title="Call callback functions from parsed message interface.">
<polygon fill="white" stroke="#666666" points="383,-174 183,-174 183,-144 383,-144 383,-174"/>
<text text-anchor="start" x="191" y="-162" font-family="Helvetica,sans-Serif" font-size="10.00">flexxlam::SetEthernetCommunication</text>
<text text-anchor="middle" x="283" y="-151" font-family="Helvetica,sans-Serif" font-size="10.00">ConfigProtocol::handle_callback</text>
</a>
</g>
</g>
<!-- Node1&#45;&gt;Node15 -->
<g id="edge14_Node000001_Node000015" class="edge">
<title>Node1&#45;&gt;Node15</title>
<g id="a_edge14_Node000001_Node000015"><a xlink:title=" ">
<path fill="none" stroke="#63b8ff" d="M73.72,-418.88C79.52,-375.23 102.46,-247.99 178,-184 179.98,-182.32 182.06,-180.75 184.22,-179.28"/>
<polygon fill="#63b8ff" stroke="#63b8ff" points="186.09,-182.24 192.88,-174.1 182.5,-176.23 186.09,-182.24"/>
</a>
</g>
</g>
<!-- Node16 -->
<g id="Node000016" class="node">
<title>Node16</title>
<g id="a_Node000016"><a xlink:href="classflexxlam_1_1SetLidarConfigProtocol.html#a2aa44d941bc855495784b59684d29e09" target="_top" xlink:title="Call callback functions from parsed message interface.">
<polygon fill="white" stroke="#666666" points="353.5,-126 212.5,-126 212.5,-96 353.5,-96 353.5,-126"/>
<text text-anchor="start" x="220.5" y="-114" font-family="Helvetica,sans-Serif" font-size="10.00">flexxlam::SetLidarConfig</text>
<text text-anchor="middle" x="283" y="-103" font-family="Helvetica,sans-Serif" font-size="10.00">Protocol::handle_callback</text>
</a>
</g>
</g>
<!-- Node1&#45;&gt;Node16 -->
<g id="edge15_Node000001_Node000016" class="edge">
<title>Node1&#45;&gt;Node16</title>
<g id="a_edge15_Node000001_Node000016"><a xlink:title=" ">
<path fill="none" stroke="#63b8ff" d="M72.52,-418.83C75.07,-369.68 90.05,-213.46 178,-135 185.18,-128.59 193.73,-123.8 202.8,-120.22"/>
<polygon fill="#63b8ff" stroke="#63b8ff" points="204.08,-123.48 212.4,-116.92 201.81,-116.86 204.08,-123.48"/>
</a>
</g>
</g>
<!-- Node17 -->
<g id="Node000017" class="node">
<title>Node17</title>
<g id="a_Node000017"><a xlink:href="classflexxlam_1_1SetMavlinkCommunicationConfigProtocol.html#a79050cd44e227a48e82edbc8cef340fa" target="_top" xlink:title="Call callback functions from parsed message interface.">
<polygon fill="white" stroke="#666666" points="381.5,-78 184.5,-78 184.5,-48 381.5,-48 381.5,-78"/>
<text text-anchor="start" x="192.5" y="-66" font-family="Helvetica,sans-Serif" font-size="10.00">flexxlam::SetMavlinkCommunication</text>
<text text-anchor="middle" x="283" y="-55" font-family="Helvetica,sans-Serif" font-size="10.00">ConfigProtocol::handle_callback</text>
</a>
</g>
</g>
<!-- Node1&#45;&gt;Node17 -->
<g id="edge16_Node000001_Node000017" class="edge">
<title>Node1&#45;&gt;Node17</title>
<g id="a_edge16_Node000001_Node000017"><a xlink:title=" ">
<path fill="none" stroke="#63b8ff" d="M71.67,-418.78C71.38,-364.73 78.04,-180.23 178,-87 179.14,-85.93 180.32,-84.91 181.54,-83.93"/>
<polygon fill="#63b8ff" stroke="#63b8ff" points="183.78,-86.64 190.01,-78.06 179.8,-80.88 183.78,-86.64"/>
</a>
</g>
</g>
<!-- Node18 -->
<g id="Node000018" class="node">
<title>Node18</title>
<g id="a_Node000018"><a xlink:href="classflexxlam_1_1SetSerialCommunicationConfigProtocol.html#a13dd8c9d72416991c3c7b072d2a2edee" target="_top" xlink:title="Call callback functions from parsed message interface.">
<polygon fill="white" stroke="#666666" points="376,-30 190,-30 190,0 376,0 376,-30"/>
<text text-anchor="start" x="198" y="-18" font-family="Helvetica,sans-Serif" font-size="10.00">flexxlam::SetSerialCommunication</text>
<text text-anchor="middle" x="283" y="-7" font-family="Helvetica,sans-Serif" font-size="10.00">ConfigProtocol::handle_callback</text>
</a>
</g>
</g>
<!-- Node1&#45;&gt;Node18 -->
<g id="edge17_Node000001_Node000018" class="edge">
<title>Node1&#45;&gt;Node18</title>
<g id="a_edge17_Node000001_Node000018"><a xlink:title=" ">
<path fill="none" stroke="#63b8ff" d="M73.99,-418.74C82.88,-352.9 121.04,-93.98 178,-39 179.12,-37.91 180.29,-36.87 181.49,-35.88"/>
<polygon fill="#63b8ff" stroke="#63b8ff" points="183.75,-38.56 189.87,-29.91 179.69,-32.86 183.75,-38.56"/>
</a>
</g>
</g>
</g>
</svg>
