<?xml version="1.0" encoding="UTF-8" standalone="no"?>
<!DOCTYPE svg PUBLIC "-//W3C//DTD SVG 1.1//EN"
 "http://www.w3.org/Graphics/SVG/1.1/DTD/svg11.dtd">
<!-- Generated by graphviz version 2.43.0 (0)
 -->
<!-- Title: flexxlam::RequestLidarConfigProtocol::handle_callback Pages: 1 -->
<svg width="524pt" height="38pt"
 viewBox="0.00 0.00 524.00 38.00" xmlns="http://www.w3.org/2000/svg" xmlns:xlink="http://www.w3.org/1999/xlink">
<g id="graph0" class="graph" transform="scale(1 1) rotate(0) translate(4 34)">
<title>flexxlam::RequestLidarConfigProtocol::handle_callback</title>
<!-- Node1 -->
<g id="Node000001" class="node">
<title>Node1</title>
<g id="a_Node000001"><a xlink:title="Call callback functions from parsed message interface.">
<polygon fill="#999999" stroke="#666666" points="516,-30 356,-30 356,0 516,0 516,-30"/>
<text text-anchor="start" x="364" y="-18" font-family="Helvetica,sans-Serif" font-size="10.00">flexxlam::RequestLidarConfig</text>
<text text-anchor="middle" x="436" y="-7" font-family="Helvetica,sans-Serif" font-size="10.00">Protocol::handle_callback</text>
</a>
</g>
</g>
<!-- Node2 -->
<g id="Node000002" class="node">
<title>Node2</title>
<g id="a_Node000002"><a xlink:href="classflexxlam_1_1FlexXlamParser.html#a35479f7f849c941cfad23b7777d698f7" target="_top" xlink:title="Decapsulate payload and call parsed message callback.">
<polygon fill="white" stroke="#666666" points="320,-30 178,-30 178,0 320,0 320,-30"/>
<text text-anchor="start" x="186" y="-18" font-family="Helvetica,sans-Serif" font-size="10.00">flexxlam::FlexXlamParser</text>
<text text-anchor="middle" x="249" y="-7" font-family="Helvetica,sans-Serif" font-size="10.00">::decapsulate_payload_</text>
</a>
</g>
</g>
<!-- Node1&#45;&gt;Node2 -->
<g id="edge1_Node000001_Node000002" class="edge">
<title>Node1&#45;&gt;Node2</title>
<g id="a_edge1_Node000001_Node000002"><a xlink:title=" ">
<path fill="none" stroke="#63b8ff" d="M345.67,-15C337.07,-15 328.43,-15 320.05,-15"/>
<polygon fill="#63b8ff" stroke="#63b8ff" points="345.74,-18.5 355.74,-15 345.74,-11.5 345.74,-18.5"/>
</a>
</g>
</g>
<!-- Node3 -->
<g id="Node000003" class="node">
<title>Node3</title>
<g id="a_Node000003"><a xlink:href="classflexxlam_1_1FlexXlamParser.html#a46e76777b9780ee2a11d079f3792ffc1" target="_top" xlink:title="Parse byte array.">
<polygon fill="white" stroke="#666666" points="142,-30 0,-30 0,0 142,0 142,-30"/>
<text text-anchor="start" x="8" y="-18" font-family="Helvetica,sans-Serif" font-size="10.00">flexxlam::FlexXlamParser</text>
<text text-anchor="middle" x="71" y="-7" font-family="Helvetica,sans-Serif" font-size="10.00">::parse</text>
</a>
</g>
</g>
<!-- Node2&#45;&gt;Node3 -->
<g id="edge2_Node000002_Node000003" class="edge">
<title>Node2&#45;&gt;Node3</title>
<g id="a_edge2_Node000002_Node000003"><a xlink:title=" ">
<path fill="none" stroke="#63b8ff" d="M167.9,-15C159.29,-15 150.59,-15 142.11,-15"/>
<polygon fill="#63b8ff" stroke="#63b8ff" points="167.93,-18.5 177.93,-15 167.93,-11.5 167.93,-18.5"/>
</a>
</g>
</g>
</g>
</svg>
