<?xml version="1.0" encoding="UTF-8" standalone="no"?>
<!DOCTYPE svg PUBLIC "-//W3C//DTD SVG 1.1//EN"
 "http://www.w3.org/Graphics/SVG/1.1/DTD/svg11.dtd">
<!-- Generated by graphviz version 2.43.0 (0)
 -->
<!-- Title: flexxlam::SerialCommunication::run Pages: 1 -->
<svg width="406pt" height="86pt"
 viewBox="0.00 0.00 406.00 86.00" xmlns="http://www.w3.org/2000/svg" xmlns:xlink="http://www.w3.org/1999/xlink">
<g id="graph0" class="graph" transform="scale(1 1) rotate(0) translate(4 82)">
<title>flexxlam::SerialCommunication::run</title>
<!-- Node1 -->
<g id="Node000001" class="node">
<title>Node1</title>
<g id="a_Node000001"><a xlink:title="Start serial communication thread Once this function is called, serial communication thread is starte...">
<polygon fill="#999999" stroke="#666666" points="192,-48.5 0,-48.5 0,-29.5 192,-29.5 192,-48.5"/>
<text text-anchor="middle" x="96" y="-36.5" font-family="Helvetica,sans-Serif" font-size="10.00">flexxlam::SerialCommunication::run</text>
</a>
</g>
</g>
<!-- Node2 -->
<g id="Node000002" class="node">
<title>Node2</title>
<g id="a_Node000002"><a xlink:href="classflexxlam_1_1SerialCommunication.html#a2c341321799b5e08708f4b3ad7ed2e51" target="_top" xlink:title="Open serial port.">
<polygon fill="white" stroke="#666666" points="398,-78 228,-78 228,-48 398,-48 398,-78"/>
<text text-anchor="start" x="236" y="-66" font-family="Helvetica,sans-Serif" font-size="10.00">flexxlam::SerialCommunication</text>
<text text-anchor="middle" x="313" y="-55" font-family="Helvetica,sans-Serif" font-size="10.00">::open_</text>
</a>
</g>
</g>
<!-- Node1&#45;&gt;Node2 -->
<g id="edge1_Node000001_Node000002" class="edge">
<title>Node1&#45;&gt;Node2</title>
<g id="a_edge1_Node000001_Node000002"><a xlink:title=" ">
<path fill="none" stroke="#63b8ff" d="M182.28,-48.52C193.89,-49.82 205.86,-51.15 217.61,-52.46"/>
<polygon fill="#63b8ff" stroke="#63b8ff" points="217.55,-55.98 227.87,-53.61 218.32,-49.02 217.55,-55.98"/>
</a>
</g>
</g>
<!-- Node3 -->
<g id="Node000003" class="node">
<title>Node3</title>
<g id="a_Node000003"><a xlink:href="classflexxlam_1_1SerialCommunication.html#a8c469439819de797dac7fad6556c9da9" target="_top" xlink:title="Serial communication thread.">
<polygon fill="white" stroke="#666666" points="398,-30 228,-30 228,0 398,0 398,-30"/>
<text text-anchor="start" x="236" y="-18" font-family="Helvetica,sans-Serif" font-size="10.00">flexxlam::SerialCommunication</text>
<text text-anchor="middle" x="313" y="-7" font-family="Helvetica,sans-Serif" font-size="10.00">::run_</text>
</a>
</g>
</g>
<!-- Node1&#45;&gt;Node3 -->
<g id="edge2_Node000001_Node000003" class="edge">
<title>Node1&#45;&gt;Node3</title>
<g id="a_edge2_Node000001_Node000003"><a xlink:title=" ">
<path fill="none" stroke="#63b8ff" d="M182.28,-29.48C193.89,-28.18 205.86,-26.85 217.61,-25.54"/>
<polygon fill="#63b8ff" stroke="#63b8ff" points="218.32,-28.98 227.87,-24.39 217.55,-22.02 218.32,-28.98"/>
</a>
</g>
</g>
</g>
</svg>
