<?xml version="1.0" encoding="UTF-8" standalone="no"?>
<!DOCTYPE svg PUBLIC "-//W3C//DTD SVG 1.1//EN"
 "http://www.w3.org/Graphics/SVG/1.1/DTD/svg11.dtd">
<!-- Generated by graphviz version 2.43.0 (0)
 -->
<!-- Title: include/protocol Pages: 1 -->
<!--zoomable 94 -->

<svg id="main" version="1.1" xmlns="http://www.w3.org/2000/svg" xmlns:xlink="http://www.w3.org/1999/xlink" xml:space="preserve" onload="init(evt)">
<style type="text/css"><![CDATA[
.node, .edge {opacity: 0.7;}
.node.selected, .edge.selected {opacity: 1;}
.edge:hover path { stroke: red; }
.edge:hover polygon { stroke: red; fill: red; }
]]></style>

<defs>
  <circle id="rim" cx="0" cy="0" r="7"/>
  <circle id="rim2" cx="0" cy="0" r="3.5"/>
  <g id="zoomPlus">
    <use xlink:href="#rim" fill="#404040"><set attributeName="fill" to="#808080" begin="zoomplus.mouseover" end="zoomplus.mouseout"/></use>
    <path d="M-4,0h8M0,-4v8" fill="none" stroke="white" stroke-width="1.5" pointer-events="none"/>
  </g>
  <g id="zoomMin">
    <use xlink:href="#rim" fill="#404040"><set attributeName="fill" to="#808080" begin="zoomminus.mouseover" end="zoomminus.mouseout"/></use>
    <path d="M-4,0h8" fill="none" stroke="white" stroke-width="1.5" pointer-events="none"/>
  </g>
  <g id="arrowUp" transform="translate(30 24)">
    <use xlink:href="#rim"/>
    <path pointer-events="none" fill="none" stroke="white" stroke-width="1.5" d="M0,-3.0v7 M-2.5,-0.5L0,-3.0L2.5,-0.5"/>
  </g>
  <g id="arrowRight" transform="rotate(90) translate(36 -43)">
    <use xlink:href="#rim"/>
    <path pointer-events="none" fill="none" stroke="white" stroke-width="1.5" d="M0,-3.0v7 M-2.5,-0.5L0,-3.0L2.5,-0.5"/>
  </g>
  <g id="arrowDown" transform="rotate(180) translate(-30 -48)">
    <use xlink:href="#rim"/>
    <path pointer-events="none" fill="none" stroke="white" stroke-width="1.5" d="M0,-3.0v7 M-2.5,-0.5L0,-3.0L2.5,-0.5"/>
  </g>
  <g id="arrowLeft" transform="rotate(270) translate(-36 17)">
    <use xlink:href="#rim"/>
    <path pointer-events="none" fill="none" stroke="white" stroke-width="1.5" d="M0,-3.0v7 M-2.5,-0.5L0,-3.0L2.5,-0.5"/>
  </g>
  <g id="resetDef">
    <use xlink:href="#rim2" fill="#404040"><set attributeName="fill" to="#808080" begin="reset.mouseover" end="reset.mouseout"/></use>
  </g>
</defs>
<script type="application/ecmascript">
var viewWidth = 554;
var viewHeight = 94;
var sectionId = 'dynsection-0';
</script>
<script type="application/ecmascript" xlink:href="svg.min.js"/>
<svg id="graph" class="graph">
<g id="viewport">
<title>include/protocol</title>
<g id="clust1" class="cluster">
<title>clusterdir_d44c64559bbebec7f509842c48db8b23</title>
<g id="a_clust1"><a xlink:href="dir_d44c64559bbebec7f509842c48db8b23.html" target="_top" xlink:title="include">
<polygon fill="#edf0f7" stroke="#404040" stroke-dasharray="5,2" points="8,-8 8,-78 538,-78 538,-8 8,-8"/>
<text text-anchor="middle" x="273" y="-66" font-family="Helvetica,sans-Serif" font-size="10.00">include</text>
</a>
</g>
</g>
<g id="clust2" class="cluster">
<title>clusterdir_a8708a1af961f7c156ece11d71cb1b13</title>
<g id="a_clust2"><a xlink:href="dir_a8708a1af961f7c156ece11d71cb1b13.html" target="_top">
<polygon fill="#edf0f7" stroke="#404040" stroke-width="2" points="16,-16 16,-51 530,-51 530,-16 16,-16"/>
</a>
</g>
</g>
<!-- dir_a8708a1af961f7c156ece11d71cb1b13 -->
<g id="node1" class="node">
<title>dir_a8708a1af961f7c156ece11d71cb1b13</title>
<text text-anchor="middle" x="494" y="-31" font-family="Helvetica,sans-Serif" font-size="10.00">protocol</text>
</g>
<!-- dir_130545cf89a8eefc905bf28ef6010651 -->
<g id="node2" class="node">
<title>dir_130545cf89a8eefc905bf28ef6010651</title>
<g id="a_node2"><a xlink:href="dir_130545cf89a8eefc905bf28ef6010651.html" target="_top" xlink:title="acknowledge">
<polygon fill="#a2b4d6" stroke="#404040" points="447.5,-43 366.5,-43 366.5,-24 447.5,-24 447.5,-43"/>
<text text-anchor="middle" x="407" y="-31" font-family="Helvetica,sans-Serif" font-size="10.00">acknowledge</text>
</a>
</g>
</g>
<!-- dir_857087d00870a3d04db9ee1ff1f73817 -->
<g id="node3" class="node">
<title>dir_857087d00870a3d04db9ee1ff1f73817</title>
<g id="a_node3"><a xlink:href="dir_857087d00870a3d04db9ee1ff1f73817.html" target="_top" xlink:title="command">
<polygon fill="#a2b4d6" stroke="#404040" points="348.5,-43 283.5,-43 283.5,-24 348.5,-24 348.5,-43"/>
<text text-anchor="middle" x="316" y="-31" font-family="Helvetica,sans-Serif" font-size="10.00">command</text>
</a>
</g>
</g>
<!-- dir_696a305186f238fb83db58dbbf4ef788 -->
<g id="node4" class="node">
<title>dir_696a305186f238fb83db58dbbf4ef788</title>
<g id="a_node4"><a xlink:href="dir_696a305186f238fb83db58dbbf4ef788.html" target="_top" xlink:title="push">
<polygon fill="#a2b4d6" stroke="#404040" points="265,-43 225,-43 225,-24 265,-24 265,-43"/>
<text text-anchor="middle" x="245" y="-31" font-family="Helvetica,sans-Serif" font-size="10.00">push</text>
</a>
</g>
</g>
<!-- dir_49a8643e13c1b32bcd52f9fa222eaff1 -->
<g id="node5" class="node">
<title>dir_49a8643e13c1b32bcd52f9fa222eaff1</title>
<g id="a_node5"><a xlink:href="dir_49a8643e13c1b32bcd52f9fa222eaff1.html" target="_top" xlink:title="request">
<polygon fill="#a2b4d6" stroke="#404040" points="206.5,-43 153.5,-43 153.5,-24 206.5,-24 206.5,-43"/>
<text text-anchor="middle" x="180" y="-31" font-family="Helvetica,sans-Serif" font-size="10.00">request</text>
</a>
</g>
</g>
<!-- dir_7e9bcfbe5b7103b0d2d5f6969e84ecaa -->
<g id="node6" class="node">
<title>dir_7e9bcfbe5b7103b0d2d5f6969e84ecaa</title>
<g id="a_node6"><a xlink:href="dir_7e9bcfbe5b7103b0d2d5f6969e84ecaa.html" target="_top" xlink:title="response">
<polygon fill="#a2b4d6" stroke="#404040" points="135.5,-43 74.5,-43 74.5,-24 135.5,-24 135.5,-43"/>
<text text-anchor="middle" x="105" y="-31" font-family="Helvetica,sans-Serif" font-size="10.00">response</text>
</a>
</g>
</g>
<!-- dir_69252ca3ec15dfd9d082723d7c7920fc -->
<g id="node7" class="node">
<title>dir_69252ca3ec15dfd9d082723d7c7920fc</title>
<g id="a_node7"><a xlink:href="dir_69252ca3ec15dfd9d082723d7c7920fc.html" target="_top" xlink:title="set">
<polygon fill="#a2b4d6" stroke="#404040" points="56,-43 24,-43 24,-24 56,-24 56,-43"/>
<text text-anchor="middle" x="40" y="-31" font-family="Helvetica,sans-Serif" font-size="10.00">set</text>
</a>
</g>
</g>
</g>
</svg>

<g id="navigator" transform="translate(0 0)" fill="#404254">
  <rect fill="#f2f5e9" fill-opacity="0.5" stroke="#606060" stroke-width=".5" x="0" y="0" width="60" height="60"/>
  <use id="zoomplus" xlink:href="#zoomPlus" x="17" y="9" onmousedown="handleZoom(evt,'in')"/>
  <use id="zoomminus" xlink:href="#zoomMin" x="42" y="9" onmousedown="handleZoom(evt,'out')"/>
  <use id="reset" xlink:href="#resetDef" x="30" y="36" onmousedown="handleReset()"/>
   <use id="arrowup" xlink:href="#arrowUp" x="0" y="0" onmousedown="handlePan(0,-1)"/>
  <use id="arrowright" xlink:href="#arrowRight" x="0" y="0" onmousedown="handlePan(1,0)"/>
  <use id="arrowdown" xlink:href="#arrowDown" x="0" y="0" onmousedown="handlePan(0,1)"/>
  <use id="arrowleft" xlink:href="#arrowLeft" x="0" y="0" onmousedown="handlePan(-1,0)"/>
</g>
<svg viewBox="0 0 15 15" width="100%" height="30px" preserveAspectRatio="xMaxYMin meet">
 <g id="arrow_out" transform="scale(0.3 0.3)">
  <a xlink:href="dir_a8708a1af961f7c156ece11d71cb1b13_dep_org.svg" target="_base">
   <rect id="button" ry="5" rx="5" y="6" x="6" height="38" width="38"
        fill="#f2f5e9" fill-opacity="0.5" stroke="#606060" stroke-width="1.0"/>
   <path id="arrow"
     d="M 11.500037,31.436501 C 11.940474,20.09759 22.043105,11.32322 32.158766,21.979434 L 37.068811,17.246167 C 37.068811,17.246167 37.088388,32 37.088388,32 L 22.160133,31.978069 C 22.160133,31.978069 26.997745,27.140456 26.997745,27.140456 C 18.528582,18.264221 13.291696,25.230495 11.500037,31.436501 z"
     style="fill:#404040;"/>
  </a>
 </g>
</svg>

<style type='text/css'>
<![CDATA[
[data-mouse-over-selected='false'] { opacity: 0.7; }
[data-mouse-over-selected='true']  { opacity: 1.0; }
]]>
</style>
<script type="application/ecmascript"><![CDATA[
document.addEventListener('DOMContentLoaded', (event) => {
  highlightEdges();
  highlightAdjacentNodes();
});
]]></script>
</svg>
