<?xml version="1.0" encoding="UTF-8" standalone="no"?>
<!DOCTYPE svg PUBLIC "-//W3C//DTD SVG 1.1//EN"
 "http://www.w3.org/Graphics/SVG/1.1/DTD/svg11.dtd">
<!-- Generated by graphviz version 2.43.0 (0)
 -->
<!-- Title: Graphical Class Hierarchy Pages: 1 -->
<svg width="383pt" height="753pt"
 viewBox="0.00 0.00 383.00 752.50" xmlns="http://www.w3.org/2000/svg" xmlns:xlink="http://www.w3.org/1999/xlink">
<g id="graph0" class="graph" transform="scale(1 1) rotate(0) translate(4 748.5)">
<title>Graphical Class Hierarchy</title>
<!-- Node0 -->
<g id="Node000000" class="node">
<title>Node0</title>
<g id="a_Node000000"><a xlink:href="classflexxlam_1_1BaseProtocol.html" target="_top" xlink:title="Base protocol for communication.">
<polygon fill="white" stroke="#666666" points="129,-398.5 0,-398.5 0,-379.5 129,-379.5 129,-398.5"/>
<text text-anchor="middle" x="64.5" y="-386.5" font-family="Helvetica,sans-Serif" font-size="10.00">flexxlam::BaseProtocol</text>
</a>
</g>
</g>
<!-- Node1 -->
<g id="Node000001" class="node">
<title>Node1</title>
<g id="a_Node000001"><a xlink:href="classflexxlam_1_1AcknowledgeProtocol.html" target="_top" xlink:title="Acknowledge protocol.">
<polygon fill="white" stroke="#666666" points="355,-744.5 185,-744.5 185,-725.5 355,-725.5 355,-744.5"/>
<text text-anchor="middle" x="270" y="-732.5" font-family="Helvetica,sans-Serif" font-size="10.00">flexxlam::AcknowledgeProtocol</text>
</a>
</g>
</g>
<!-- Node0&#45;&gt;Node1 -->
<g id="edge1_Node000000_Node000001" class="edge">
<title>Node0&#45;&gt;Node1</title>
<g id="a_edge1_Node000000_Node000001"><a xlink:title=" ">
<path fill="none" stroke="#63b8ff" d="M64.91,-408.92C64.39,-466.5 71.35,-634.23 165,-717 170.84,-722.16 177.6,-726.1 184.82,-729.09"/>
<polygon fill="#63b8ff" stroke="#63b8ff" points="68.42,-408.72 65.1,-398.66 61.42,-408.59 68.42,-408.72"/>
</a>
</g>
</g>
<!-- Node2 -->
<g id="Node000002" class="node">
<title>Node2</title>
<g id="a_Node000002"><a xlink:href="classflexxlam_1_1CommandSavePCDProtocol.html" target="_top" xlink:title="Save PCD protocol.">
<polygon fill="white" stroke="#666666" points="370,-707.5 170,-707.5 170,-688.5 370,-688.5 370,-707.5"/>
<text text-anchor="middle" x="270" y="-695.5" font-family="Helvetica,sans-Serif" font-size="10.00">flexxlam::CommandSavePCDProtocol</text>
</a>
</g>
</g>
<!-- Node0&#45;&gt;Node2 -->
<g id="edge2_Node000000_Node000002" class="edge">
<title>Node0&#45;&gt;Node2</title>
<g id="a_edge2_Node000000_Node000002"><a xlink:title=" ">
<path fill="none" stroke="#63b8ff" d="M65.79,-408.79C67.72,-461.87 80.8,-608.16 165,-680 168.76,-683.21 172.89,-685.95 177.26,-688.27"/>
<polygon fill="#63b8ff" stroke="#63b8ff" points="69.29,-408.59 65.52,-398.68 62.29,-408.77 69.29,-408.59"/>
</a>
</g>
</g>
<!-- Node3 -->
<g id="Node000003" class="node">
<title>Node3</title>
<g id="a_Node000003"><a xlink:href="classflexxlam_1_1PingProtocol.html" target="_top" xlink:title="Ping protocol.">
<polygon fill="white" stroke="#666666" points="333,-670.5 207,-670.5 207,-651.5 333,-651.5 333,-670.5"/>
<text text-anchor="middle" x="270" y="-658.5" font-family="Helvetica,sans-Serif" font-size="10.00">flexxlam::PingProtocol</text>
</a>
</g>
</g>
<!-- Node0&#45;&gt;Node3 -->
<g id="edge3_Node000000_Node000003" class="edge">
<title>Node0&#45;&gt;Node3</title>
<g id="a_edge3_Node000000_Node000003"><a xlink:title=" ">
<path fill="none" stroke="#63b8ff" d="M66.9,-408.86C71.47,-457.3 90.26,-582.02 165,-643 176.78,-652.62 191.86,-657.89 206.85,-660.62"/>
<polygon fill="#63b8ff" stroke="#63b8ff" points="70.38,-408.42 66.06,-398.75 63.4,-409 70.38,-408.42"/>
</a>
</g>
</g>
<!-- Node4 -->
<g id="Node000004" class="node">
<title>Node4</title>
<g id="a_Node000004"><a xlink:href="classflexxlam_1_1PushOdometryProtocol.html" target="_top" xlink:title="Get odometry protocol.">
<polygon fill="white" stroke="#666666" points="358.5,-633.5 181.5,-633.5 181.5,-614.5 358.5,-614.5 358.5,-633.5"/>
<text text-anchor="middle" x="270" y="-621.5" font-family="Helvetica,sans-Serif" font-size="10.00">flexxlam::PushOdometryProtocol</text>
</a>
</g>
</g>
<!-- Node0&#45;&gt;Node4 -->
<g id="edge4_Node000000_Node000004" class="edge">
<title>Node0&#45;&gt;Node4</title>
<g id="a_edge4_Node000000_Node000004"><a xlink:title=" ">
<path fill="none" stroke="#63b8ff" d="M68.43,-408.74C75.92,-451.84 100.02,-554.58 165,-605 170,-608.88 175.55,-612.06 181.39,-614.66"/>
<polygon fill="#63b8ff" stroke="#63b8ff" points="71.85,-408 66.8,-398.69 64.94,-409.12 71.85,-408"/>
</a>
</g>
</g>
<!-- Node5 -->
<g id="Node000005" class="node">
<title>Node5</title>
<g id="a_Node000005"><a xlink:href="classflexxlam_1_1PushPointCloudProtocol.html" target="_top" xlink:title="Get pointcloud protocol.">
<polygon fill="white" stroke="#666666" points="340.5,-596 199.5,-596 199.5,-566 340.5,-566 340.5,-596"/>
<text text-anchor="start" x="207.5" y="-584" font-family="Helvetica,sans-Serif" font-size="10.00">flexxlam::PushPointCloud</text>
<text text-anchor="middle" x="270" y="-573" font-family="Helvetica,sans-Serif" font-size="10.00">Protocol</text>
</a>
</g>
</g>
<!-- Node0&#45;&gt;Node5 -->
<g id="edge5_Node000000_Node000005" class="edge">
<title>Node0&#45;&gt;Node5</title>
<g id="a_edge5_Node000000_Node000005"><a xlink:title=" ">
<path fill="none" stroke="#63b8ff" d="M71.34,-408.48C83.01,-443.9 112.68,-518.74 165,-557 175.1,-564.38 187.1,-569.54 199.3,-573.14"/>
<polygon fill="#63b8ff" stroke="#63b8ff" points="74.64,-407.31 68.29,-398.83 67.97,-409.42 74.64,-407.31"/>
</a>
</g>
</g>
<!-- Node6 -->
<g id="Node000006" class="node">
<title>Node6</title>
<g id="a_Node000006"><a xlink:href="classflexxlam_1_1RequestEthernetCommunicationConfigProtocol.html" target="_top" xlink:title="Request ethernet communication config protocol.">
<polygon fill="white" stroke="#666666" points="352,-548 188,-548 188,-518 352,-518 352,-548"/>
<text text-anchor="start" x="196" y="-536" font-family="Helvetica,sans-Serif" font-size="10.00">flexxlam::RequestEthernet</text>
<text text-anchor="middle" x="270" y="-525" font-family="Helvetica,sans-Serif" font-size="10.00">CommunicationConfigProtocol</text>
</a>
</g>
</g>
<!-- Node0&#45;&gt;Node6 -->
<g id="edge6_Node000000_Node000006" class="edge">
<title>Node0&#45;&gt;Node6</title>
<g id="a_edge6_Node000000_Node000006"><a xlink:title=" ">
<path fill="none" stroke="#63b8ff" d="M75.43,-407.33C90.9,-434.06 123.35,-483.31 165,-509 172.1,-513.38 179.91,-516.96 187.97,-519.89"/>
<polygon fill="#63b8ff" stroke="#63b8ff" points="78.47,-405.59 70.52,-398.59 72.37,-409.02 78.47,-405.59"/>
</a>
</g>
</g>
<!-- Node7 -->
<g id="Node000007" class="node">
<title>Node7</title>
<g id="a_Node000007"><a xlink:href="classflexxlam_1_1RequestLidarConfigProtocol.html" target="_top" xlink:title="Request lidar config protocol.">
<polygon fill="white" stroke="#666666" points="350,-500 190,-500 190,-470 350,-470 350,-500"/>
<text text-anchor="start" x="198" y="-488" font-family="Helvetica,sans-Serif" font-size="10.00">flexxlam::RequestLidarConfig</text>
<text text-anchor="middle" x="270" y="-477" font-family="Helvetica,sans-Serif" font-size="10.00">Protocol</text>
</a>
</g>
</g>
<!-- Node0&#45;&gt;Node7 -->
<g id="edge7_Node000000_Node000007" class="edge">
<title>Node0&#45;&gt;Node7</title>
<g id="a_edge7_Node000000_Node000007"><a xlink:title=" ">
<path fill="none" stroke="#63b8ff" d="M83.17,-405.21C102.05,-421.66 133.55,-446.7 165,-461 172.84,-464.57 181.27,-467.63 189.81,-470.25"/>
<polygon fill="#63b8ff" stroke="#63b8ff" points="85.45,-402.55 75.65,-398.52 80.8,-407.78 85.45,-402.55"/>
</a>
</g>
</g>
<!-- Node8 -->
<g id="Node000008" class="node">
<title>Node8</title>
<g id="a_Node000008"><a xlink:href="classflexxlam_1_1RequestMavlinkCommunicationConfigProtocol.html" target="_top" xlink:title="Request mavlink communication config protocol.">
<polygon fill="white" stroke="#666666" points="352,-452 188,-452 188,-422 352,-422 352,-452"/>
<text text-anchor="start" x="196" y="-440" font-family="Helvetica,sans-Serif" font-size="10.00">flexxlam::RequestMavlink</text>
<text text-anchor="middle" x="270" y="-429" font-family="Helvetica,sans-Serif" font-size="10.00">CommunicationConfigProtocol</text>
</a>
</g>
</g>
<!-- Node0&#45;&gt;Node8 -->
<g id="edge8_Node000000_Node000008" class="edge">
<title>Node0&#45;&gt;Node8</title>
<g id="a_edge8_Node000000_Node000008"><a xlink:title=" ">
<path fill="none" stroke="#63b8ff" d="M114.45,-400.91C130.54,-404.8 148.53,-409.11 165,-413 177.44,-415.94 190.74,-419.03 203.51,-421.99"/>
<polygon fill="#63b8ff" stroke="#63b8ff" points="115.25,-397.5 104.7,-398.55 113.6,-404.3 115.25,-397.5"/>
</a>
</g>
</g>
<!-- Node9 -->
<g id="Node000009" class="node">
<title>Node9</title>
<g id="a_Node000009"><a xlink:href="classflexxlam_1_1RequestSerialCommunicationConfigProtocol.html" target="_top" xlink:title="Request serial communication config protocol.">
<polygon fill="white" stroke="#666666" points="375,-404 165,-404 165,-374 375,-374 375,-404"/>
<text text-anchor="start" x="173" y="-392" font-family="Helvetica,sans-Serif" font-size="10.00">flexxlam::RequestSerialCommunication</text>
<text text-anchor="middle" x="270" y="-381" font-family="Helvetica,sans-Serif" font-size="10.00">ConfigProtocol</text>
</a>
</g>
</g>
<!-- Node0&#45;&gt;Node9 -->
<g id="edge9_Node000000_Node000009" class="edge">
<title>Node0&#45;&gt;Node9</title>
<g id="a_edge9_Node000000_Node000009"><a xlink:title=" ">
<path fill="none" stroke="#63b8ff" d="M139.13,-389C147.53,-389 156.2,-389 164.89,-389"/>
<polygon fill="#63b8ff" stroke="#63b8ff" points="139.05,-385.5 129.05,-389 139.05,-392.5 139.05,-385.5"/>
</a>
</g>
</g>
<!-- Node10 -->
<g id="Node000010" class="node">
<title>Node10</title>
<g id="a_Node000010"><a xlink:href="classflexxlam_1_1ResponseEthernetCommunicationConfig.html" target="_top" xlink:title="Response ethernet communication config protocol.">
<polygon fill="white" stroke="#666666" points="347,-356 193,-356 193,-326 347,-326 347,-356"/>
<text text-anchor="start" x="201" y="-344" font-family="Helvetica,sans-Serif" font-size="10.00">flexxlam::ResponseEthernet</text>
<text text-anchor="middle" x="270" y="-333" font-family="Helvetica,sans-Serif" font-size="10.00">CommunicationConfig</text>
</a>
</g>
</g>
<!-- Node0&#45;&gt;Node10 -->
<g id="edge10_Node000000_Node000010" class="edge">
<title>Node0&#45;&gt;Node10</title>
<g id="a_edge10_Node000000_Node000010"><a xlink:title=" ">
<path fill="none" stroke="#63b8ff" d="M114.45,-377.09C130.54,-373.2 148.53,-368.89 165,-365 177.44,-362.06 190.74,-358.97 203.51,-356.01"/>
<polygon fill="#63b8ff" stroke="#63b8ff" points="113.6,-373.7 104.7,-379.45 115.25,-380.5 113.6,-373.7"/>
</a>
</g>
</g>
<!-- Node11 -->
<g id="Node000011" class="node">
<title>Node11</title>
<g id="a_Node000011"><a xlink:href="classflexxlam_1_1ResponseLidarConfig.html" target="_top" xlink:title="Response lidar config protocol.">
<polygon fill="white" stroke="#666666" points="353.5,-307.5 186.5,-307.5 186.5,-288.5 353.5,-288.5 353.5,-307.5"/>
<text text-anchor="middle" x="270" y="-295.5" font-family="Helvetica,sans-Serif" font-size="10.00">flexxlam::ResponseLidarConfig</text>
</a>
</g>
</g>
<!-- Node0&#45;&gt;Node11 -->
<g id="edge11_Node000000_Node000011" class="edge">
<title>Node0&#45;&gt;Node11</title>
<g id="a_edge11_Node000000_Node000011"><a xlink:title=" ">
<path fill="none" stroke="#63b8ff" d="M83.04,-372.5C101.82,-355.8 133.23,-330.57 165,-317 174.12,-313.11 184.01,-310.01 193.96,-307.55"/>
<polygon fill="#63b8ff" stroke="#63b8ff" points="80.61,-369.97 75.57,-379.29 85.32,-375.15 80.61,-369.97"/>
</a>
</g>
</g>
<!-- Node12 -->
<g id="Node000012" class="node">
<title>Node12</title>
<g id="a_Node000012"><a xlink:href="classflexxlam_1_1ResponseMavlinkCommunicationConfig.html" target="_top" xlink:title="Response mavlink communication config protocol.">
<polygon fill="white" stroke="#666666" points="346,-270 194,-270 194,-240 346,-240 346,-270"/>
<text text-anchor="start" x="202" y="-258" font-family="Helvetica,sans-Serif" font-size="10.00">flexxlam::ResponseMavlink</text>
<text text-anchor="middle" x="270" y="-247" font-family="Helvetica,sans-Serif" font-size="10.00">CommunicationConfig</text>
</a>
</g>
</g>
<!-- Node0&#45;&gt;Node12 -->
<g id="edge12_Node000000_Node000012" class="edge">
<title>Node0&#45;&gt;Node12</title>
<g id="a_edge12_Node000000_Node000012"><a xlink:title=" ">
<path fill="none" stroke="#63b8ff" d="M76.83,-371C93.21,-346.51 125.87,-303.11 165,-280 173.87,-274.76 183.79,-270.62 193.88,-267.34"/>
<polygon fill="#63b8ff" stroke="#63b8ff" points="73.89,-369.09 71.37,-379.38 79.76,-372.91 73.89,-369.09"/>
</a>
</g>
</g>
<!-- Node13 -->
<g id="Node000013" class="node">
<title>Node13</title>
<g id="a_Node000013"><a xlink:href="classflexxlam_1_1ResponseSerialCommunicationConfig.html" target="_top" xlink:title="Response serial communication config protocol.">
<polygon fill="white" stroke="#666666" points="340,-222 200,-222 200,-192 340,-192 340,-222"/>
<text text-anchor="start" x="208" y="-210" font-family="Helvetica,sans-Serif" font-size="10.00">flexxlam::ResponseSerial</text>
<text text-anchor="middle" x="270" y="-199" font-family="Helvetica,sans-Serif" font-size="10.00">CommunicationConfig</text>
</a>
</g>
</g>
<!-- Node0&#45;&gt;Node13 -->
<g id="edge13_Node000000_Node000013" class="edge">
<title>Node0&#45;&gt;Node13</title>
<g id="a_edge13_Node000000_Node000013"><a xlink:title=" ">
<path fill="none" stroke="#63b8ff" d="M72.02,-369.75C84.47,-336.06 114.93,-266.58 165,-231 175.27,-223.7 187.42,-218.59 199.73,-215.01"/>
<polygon fill="#63b8ff" stroke="#63b8ff" points="68.66,-368.75 68.61,-379.35 75.26,-371.1 68.66,-368.75"/>
</a>
</g>
</g>
<!-- Node14 -->
<g id="Node000014" class="node">
<title>Node14</title>
<g id="a_Node000014"><a xlink:href="classflexxlam_1_1SetEthernetCommunicationConfigProtocol.html" target="_top" xlink:title="Set ethernet communication config protocol.">
<polygon fill="white" stroke="#666666" points="370,-174 170,-174 170,-144 370,-144 370,-174"/>
<text text-anchor="start" x="178" y="-162" font-family="Helvetica,sans-Serif" font-size="10.00">flexxlam::SetEthernetCommunication</text>
<text text-anchor="middle" x="270" y="-151" font-family="Helvetica,sans-Serif" font-size="10.00">ConfigProtocol</text>
</a>
</g>
</g>
<!-- Node0&#45;&gt;Node14 -->
<g id="edge14_Node000000_Node000014" class="edge">
<title>Node0&#45;&gt;Node14</title>
<g id="a_edge14_Node000000_Node000014"><a xlink:title=" ">
<path fill="none" stroke="#63b8ff" d="M69.06,-369.54C77.67,-328.33 103.59,-232.03 165,-183 169.2,-179.65 173.78,-176.75 178.61,-174.24"/>
<polygon fill="#63b8ff" stroke="#63b8ff" points="65.62,-368.92 67.12,-379.4 72.49,-370.27 65.62,-368.92"/>
</a>
</g>
</g>
<!-- Node15 -->
<g id="Node000015" class="node">
<title>Node15</title>
<g id="a_Node000015"><a xlink:href="classflexxlam_1_1SetLidarConfigProtocol.html" target="_top" xlink:title="Set lidar config protocol.">
<polygon fill="white" stroke="#666666" points="338,-126 202,-126 202,-96 338,-96 338,-126"/>
<text text-anchor="start" x="210" y="-114" font-family="Helvetica,sans-Serif" font-size="10.00">flexxlam::SetLidarConfig</text>
<text text-anchor="middle" x="270" y="-103" font-family="Helvetica,sans-Serif" font-size="10.00">Protocol</text>
</a>
</g>
</g>
<!-- Node0&#45;&gt;Node15 -->
<g id="edge15_Node000000_Node000015" class="edge">
<title>Node0&#45;&gt;Node15</title>
<g id="a_edge15_Node000000_Node000015"><a xlink:title=" ">
<path fill="none" stroke="#63b8ff" d="M67.12,-369.4C72.17,-321.54 91.98,-198.03 165,-135 175.38,-126.04 188.45,-120.25 201.78,-116.56"/>
<polygon fill="#63b8ff" stroke="#63b8ff" points="63.63,-369.1 66.17,-379.38 70.6,-369.76 63.63,-369.1"/>
</a>
</g>
</g>
<!-- Node16 -->
<g id="Node000016" class="node">
<title>Node16</title>
<g id="a_Node000016"><a xlink:href="classflexxlam_1_1SetMavlinkCommunicationConfigProtocol.html" target="_top" xlink:title="Set mavlink communication config protocol.">
<polygon fill="white" stroke="#666666" points="368.5,-78 171.5,-78 171.5,-48 368.5,-48 368.5,-78"/>
<text text-anchor="start" x="179.5" y="-66" font-family="Helvetica,sans-Serif" font-size="10.00">flexxlam::SetMavlinkCommunication</text>
<text text-anchor="middle" x="270" y="-55" font-family="Helvetica,sans-Serif" font-size="10.00">ConfigProtocol</text>
</a>
</g>
</g>
<!-- Node0&#45;&gt;Node16 -->
<g id="edge16_Node000000_Node000016" class="edge">
<title>Node0&#45;&gt;Node16</title>
<g id="a_edge16_Node000000_Node000016"><a xlink:title=" ">
<path fill="none" stroke="#63b8ff" d="M65.74,-369.1C67.54,-315.04 80.28,-164.3 165,-87 168.7,-83.63 172.77,-80.7 177.1,-78.16"/>
<polygon fill="#63b8ff" stroke="#63b8ff" points="62.24,-369.3 65.5,-379.38 69.24,-369.46 62.24,-369.3"/>
</a>
</g>
</g>
<!-- Node17 -->
<g id="Node000017" class="node">
<title>Node17</title>
<g id="a_Node000017"><a xlink:href="classflexxlam_1_1SetSerialCommunicationConfigProtocol.html" target="_top" xlink:title="Set serial communication config protocol.">
<polygon fill="white" stroke="#666666" points="363,-30 177,-30 177,0 363,0 363,-30"/>
<text text-anchor="start" x="185" y="-18" font-family="Helvetica,sans-Serif" font-size="10.00">flexxlam::SetSerialCommunication</text>
<text text-anchor="middle" x="270" y="-7" font-family="Helvetica,sans-Serif" font-size="10.00">ConfigProtocol</text>
</a>
</g>
</g>
<!-- Node0&#45;&gt;Node17 -->
<g id="edge17_Node000000_Node000017" class="edge">
<title>Node0&#45;&gt;Node17</title>
<g id="a_edge17_Node000000_Node000017"><a xlink:title=" ">
<path fill="none" stroke="#63b8ff" d="M64.7,-369.22C63.43,-309.75 68.23,-131.03 165,-39 168.63,-35.55 172.64,-32.56 176.93,-29.98"/>
<polygon fill="#63b8ff" stroke="#63b8ff" points="61.21,-369.57 65,-379.46 68.2,-369.36 61.21,-369.57"/>
</a>
</g>
</g>
</g>
</svg>
