<?xml version="1.0" encoding="UTF-8" standalone="no"?>
<!DOCTYPE svg PUBLIC "-//W3C//DTD SVG 1.1//EN"
 "http://www.w3.org/Graphics/SVG/1.1/DTD/svg11.dtd">
<!-- Generated by graphviz version 2.43.0 (0)
 -->
<!-- Title: flexxlam::to_bytes::four Pages: 1 -->
<!--zoomable 537 -->

<svg id="main" version="1.1" xmlns="http://www.w3.org/2000/svg" xmlns:xlink="http://www.w3.org/1999/xlink" xml:space="preserve" onload="init(evt)">
<style type="text/css"><![CDATA[
.node, .edge {opacity: 0.7;}
.node.selected, .edge.selected {opacity: 1;}
.edge:hover path { stroke: red; }
.edge:hover polygon { stroke: red; fill: red; }
]]></style>

<defs>
  <circle id="rim" cx="0" cy="0" r="7"/>
  <circle id="rim2" cx="0" cy="0" r="3.5"/>
  <g id="zoomPlus">
    <use xlink:href="#rim" fill="#404040"><set attributeName="fill" to="#808080" begin="zoomplus.mouseover" end="zoomplus.mouseout"/></use>
    <path d="M-4,0h8M0,-4v8" fill="none" stroke="white" stroke-width="1.5" pointer-events="none"/>
  </g>
  <g id="zoomMin">
    <use xlink:href="#rim" fill="#404040"><set attributeName="fill" to="#808080" begin="zoomminus.mouseover" end="zoomminus.mouseout"/></use>
    <path d="M-4,0h8" fill="none" stroke="white" stroke-width="1.5" pointer-events="none"/>
  </g>
  <g id="arrowUp" transform="translate(30 24)">
    <use xlink:href="#rim"/>
    <path pointer-events="none" fill="none" stroke="white" stroke-width="1.5" d="M0,-3.0v7 M-2.5,-0.5L0,-3.0L2.5,-0.5"/>
  </g>
  <g id="arrowRight" transform="rotate(90) translate(36 -43)">
    <use xlink:href="#rim"/>
    <path pointer-events="none" fill="none" stroke="white" stroke-width="1.5" d="M0,-3.0v7 M-2.5,-0.5L0,-3.0L2.5,-0.5"/>
  </g>
  <g id="arrowDown" transform="rotate(180) translate(-30 -48)">
    <use xlink:href="#rim"/>
    <path pointer-events="none" fill="none" stroke="white" stroke-width="1.5" d="M0,-3.0v7 M-2.5,-0.5L0,-3.0L2.5,-0.5"/>
  </g>
  <g id="arrowLeft" transform="rotate(270) translate(-36 17)">
    <use xlink:href="#rim"/>
    <path pointer-events="none" fill="none" stroke="white" stroke-width="1.5" d="M0,-3.0v7 M-2.5,-0.5L0,-3.0L2.5,-0.5"/>
  </g>
  <g id="resetDef">
    <use xlink:href="#rim2" fill="#404040"><set attributeName="fill" to="#808080" begin="reset.mouseover" end="reset.mouseout"/></use>
  </g>
</defs>
<script type="application/ecmascript">
var viewWidth = 378;
var viewHeight = 537;
var sectionId = 'dynsection-1';
</script>
<script type="application/ecmascript" xlink:href="svg.min.js"/>
<svg id="graph" class="graph">
<g id="viewport">
<title>flexxlam::to_bytes::four</title>
<!-- Node1 -->
<g id="Node000001" class="node">
<title>Node1</title>
<g id="a_Node000001"><a xlink:title="Convert double to 4 bytes This function converts double to float and then convert it to 4 bytes.">
<polygon fill="#999999" stroke="#666666" points="370,-300.5 263,-300.5 263,-270.5 370,-270.5 370,-300.5"/>
<text text-anchor="start" x="271" y="-288.5" font-family="Helvetica,sans-Serif" font-size="10.00">flexxlam::to_bytes</text>
<text text-anchor="middle" x="316.5" y="-277.5" font-family="Helvetica,sans-Serif" font-size="10.00">::four</text>
</a>
</g>
</g>
<!-- Node1&#45;&gt;Node1 -->
<g id="edge1_Node000001_Node000001" class="edge">
<title>Node1&#45;&gt;Node1</title>
<g id="a_edge1_Node000001_Node000001"><a xlink:title=" ">
<path fill="none" stroke="#63b8ff" d="M351.86,-311.1C347.03,-315.47 335.24,-318.5 316.5,-318.5 284.94,-318.5 273.1,-309.91 280.99,-300.78"/>
<polygon fill="#63b8ff" stroke="#63b8ff" points="355.36,-310.83 352.01,-300.78 348.36,-310.72 355.36,-310.83"/>
</a>
</g>
</g>
<!-- Node2 -->
<g id="Node000002" class="node">
<title>Node2</title>
<g id="a_Node000002"><a xlink:href="namespaceflexxlam_1_1to__bytes.html#a3172dd03455b5e86a981742f3b197f1a" target="_top" xlink:title="Convert float to 4 bytes.">
<polygon fill="white" stroke="#666666" points="167,-528.5 60,-528.5 60,-498.5 167,-498.5 167,-528.5"/>
<text text-anchor="start" x="68" y="-516.5" font-family="Helvetica,sans-Serif" font-size="10.00">flexxlam::to_bytes</text>
<text text-anchor="middle" x="113.5" y="-505.5" font-family="Helvetica,sans-Serif" font-size="10.00">::four</text>
</a>
</g>
</g>
<!-- Node1&#45;&gt;Node2 -->
<g id="edge2_Node000001_Node000002" class="edge">
<title>Node1&#45;&gt;Node2</title>
<g id="a_edge2_Node000001_Node000002"><a xlink:title=" ">
<path fill="none" stroke="#63b8ff" d="M312.09,-310.62C304.79,-354.13 283.46,-443.29 227,-489.5 210.31,-503.16 187.68,-509.57 167.09,-512.41"/>
<polygon fill="#63b8ff" stroke="#63b8ff" points="315.57,-311.02 313.65,-300.6 308.65,-309.94 315.57,-311.02"/>
</a>
</g>
</g>
<!-- Node3 -->
<g id="Node000003" class="node">
<title>Node3</title>
<g id="a_Node000003"><a xlink:href="namespaceflexxlam_1_1to__bytes.html#ab0233d1a9764c46dbca2844bc67a22b5" target="_top" xlink:title="Convert uint32_t to 4 bytes with little endian.">
<polygon fill="white" stroke="#666666" points="167,-480.5 60,-480.5 60,-450.5 167,-450.5 167,-480.5"/>
<text text-anchor="start" x="68" y="-468.5" font-family="Helvetica,sans-Serif" font-size="10.00">flexxlam::to_bytes</text>
<text text-anchor="middle" x="113.5" y="-457.5" font-family="Helvetica,sans-Serif" font-size="10.00">::four</text>
</a>
</g>
</g>
<!-- Node1&#45;&gt;Node3 -->
<g id="edge3_Node000001_Node000003" class="edge">
<title>Node1&#45;&gt;Node3</title>
<g id="a_edge3_Node000001_Node000003"><a xlink:title=" ">
<path fill="none" stroke="#63b8ff" d="M308.41,-310.68C297.18,-345.74 271.84,-408.64 227,-441.5 209.85,-454.07 187.49,-460.34 167.24,-463.37"/>
<polygon fill="#63b8ff" stroke="#63b8ff" points="311.87,-311.35 311.45,-300.76 305.17,-309.3 311.87,-311.35"/>
</a>
</g>
</g>
<!-- Node4 -->
<g id="Node000004" class="node">
<title>Node4</title>
<g id="a_Node000004"><a xlink:href="namespaceflexxlam_1_1to__bytes.html#abccfb0779f0981a698e1d86f3ad299cc" target="_top" xlink:title="Convert double array to byte array This function converts double array to float array and then conver...">
<polygon fill="white" stroke="#666666" points="167,-432.5 60,-432.5 60,-402.5 167,-402.5 167,-432.5"/>
<text text-anchor="start" x="68" y="-420.5" font-family="Helvetica,sans-Serif" font-size="10.00">flexxlam::to_bytes</text>
<text text-anchor="middle" x="113.5" y="-409.5" font-family="Helvetica,sans-Serif" font-size="10.00">::four</text>
</a>
</g>
</g>
<!-- Node1&#45;&gt;Node4 -->
<g id="edge4_Node000001_Node000004" class="edge">
<title>Node1&#45;&gt;Node4</title>
<g id="a_edge4_Node000001_Node000004"><a xlink:title=" ">
<path fill="none" stroke="#63b8ff" d="M302.35,-309.69C287.45,-334.7 260.77,-372.92 227,-393.5 209.09,-404.41 186.95,-410.41 167.06,-413.69"/>
<polygon fill="#63b8ff" stroke="#63b8ff" points="305.5,-311.23 307.48,-300.82 299.44,-307.73 305.5,-311.23"/>
</a>
</g>
</g>
<!-- Node5 -->
<g id="Node000005" class="node">
<title>Node5</title>
<g id="a_Node000005"><a xlink:href="namespaceflexxlam_1_1to__bytes.html#a1fbb42d86ce69087c50b8ba815562c37" target="_top" xlink:title="Convert float array to byte array.">
<polygon fill="white" stroke="#666666" points="167,-384.5 60,-384.5 60,-354.5 167,-354.5 167,-384.5"/>
<text text-anchor="start" x="68" y="-372.5" font-family="Helvetica,sans-Serif" font-size="10.00">flexxlam::to_bytes</text>
<text text-anchor="middle" x="113.5" y="-361.5" font-family="Helvetica,sans-Serif" font-size="10.00">::four</text>
</a>
</g>
</g>
<!-- Node1&#45;&gt;Node5 -->
<g id="edge5_Node000001_Node000005" class="edge">
<title>Node1&#45;&gt;Node5</title>
<g id="a_edge5_Node000001_Node000005"><a xlink:title=" ">
<path fill="none" stroke="#63b8ff" d="M289.51,-307.08C272.66,-320.04 249.68,-335.83 227,-345.5 208.17,-353.53 186.38,-358.97 167.03,-362.62"/>
<polygon fill="#63b8ff" stroke="#63b8ff" points="292.04,-309.55 297.73,-300.61 287.71,-304.05 292.04,-309.55"/>
</a>
</g>
</g>
<!-- Node6 -->
<g id="Node000006" class="node">
<title>Node6</title>
<g id="a_Node000006"><a xlink:href="classflexxlam_1_1ResponseEthernetCommunicationConfig.html#a0504111a604934181ebcc3ca554fd929" target="_top" xlink:title="Response ethernet communication config protocol constructor.">
<polygon fill="white" stroke="#666666" points="223,-336 4,-336 4,-295 223,-295 223,-336"/>
<text text-anchor="start" x="12" y="-324" font-family="Helvetica,sans-Serif" font-size="10.00">flexxlam::ResponseEthernet</text>
<text text-anchor="start" x="12" y="-313" font-family="Helvetica,sans-Serif" font-size="10.00">CommunicationConfig::ResponseEthernet</text>
<text text-anchor="middle" x="113.5" y="-302" font-family="Helvetica,sans-Serif" font-size="10.00">CommunicationConfig</text>
</a>
</g>
</g>
<!-- Node1&#45;&gt;Node6 -->
<g id="edge6_Node000001_Node000006" class="edge">
<title>Node1&#45;&gt;Node6</title>
<g id="a_edge6_Node000001_Node000006"><a xlink:title=" ">
<path fill="none" stroke="#63b8ff" d="M252.88,-294.85C243.39,-296.26 233.37,-297.76 223.24,-299.27"/>
<polygon fill="#63b8ff" stroke="#63b8ff" points="253.58,-298.28 262.95,-293.34 252.55,-291.36 253.58,-298.28"/>
</a>
</g>
</g>
<!-- Node7 -->
<g id="Node000007" class="node">
<title>Node7</title>
<g id="a_Node000007"><a xlink:href="classflexxlam_1_1ResponseMavlinkCommunicationConfig.html#aebf8fa42c65cfd2c840a517a7e90e464" target="_top" xlink:title="Response mavlink communication config protocol constructor.">
<polygon fill="white" stroke="#666666" points="222,-277 5,-277 5,-236 222,-236 222,-277"/>
<text text-anchor="start" x="13" y="-265" font-family="Helvetica,sans-Serif" font-size="10.00">flexxlam::ResponseMavlink</text>
<text text-anchor="start" x="13" y="-254" font-family="Helvetica,sans-Serif" font-size="10.00">CommunicationConfig::ResponseMavlink</text>
<text text-anchor="middle" x="113.5" y="-243" font-family="Helvetica,sans-Serif" font-size="10.00">CommunicationConfig</text>
</a>
</g>
</g>
<!-- Node1&#45;&gt;Node7 -->
<g id="edge7_Node000001_Node000007" class="edge">
<title>Node1&#45;&gt;Node7</title>
<g id="a_edge7_Node000001_Node000007"><a xlink:title=" ">
<path fill="none" stroke="#63b8ff" d="M252.9,-276.47C243.04,-275.05 232.6,-273.54 222.07,-272.02"/>
<polygon fill="#63b8ff" stroke="#63b8ff" points="252.55,-279.95 262.95,-277.92 253.55,-273.03 252.55,-279.95"/>
</a>
</g>
</g>
<!-- Node8 -->
<g id="Node000008" class="node">
<title>Node8</title>
<g id="a_Node000008"><a xlink:href="classflexxlam_1_1ResponseSerialCommunicationConfig.html#a1089d9c4abe8f2bb8c96bc4a987c9b28" target="_top" xlink:title="Response serial communication config protocol constructor.">
<polygon fill="white" stroke="#666666" points="202.5,-218 24.5,-218 24.5,-177 202.5,-177 202.5,-218"/>
<text text-anchor="start" x="32.5" y="-206" font-family="Helvetica,sans-Serif" font-size="10.00">flexxlam::ResponseSerial</text>
<text text-anchor="start" x="32.5" y="-195" font-family="Helvetica,sans-Serif" font-size="10.00">CommunicationConfig::Response</text>
<text text-anchor="middle" x="113.5" y="-184" font-family="Helvetica,sans-Serif" font-size="10.00">SerialCommunicationConfig</text>
</a>
</g>
</g>
<!-- Node1&#45;&gt;Node8 -->
<g id="edge8_Node000001_Node000008" class="edge">
<title>Node1&#45;&gt;Node8</title>
<g id="a_edge8_Node000001_Node000008"><a xlink:title=" ">
<path fill="none" stroke="#63b8ff" d="M288.24,-264.34C271.38,-252.12 248.85,-237.27 227,-227.5 219.25,-224.04 211.01,-220.9 202.66,-218.08"/>
<polygon fill="#63b8ff" stroke="#63b8ff" points="286.39,-267.33 296.51,-270.46 290.55,-261.7 286.39,-267.33"/>
</a>
</g>
</g>
<!-- Node9 -->
<g id="Node000009" class="node">
<title>Node9</title>
<g id="a_Node000009"><a xlink:href="classflexxlam_1_1SetEthernetCommunicationConfigProtocol.html#acd195aee4e5455982bb08ccc58317dfa" target="_top" xlink:title="Set ethernet communication config protocol constructor.">
<polygon fill="white" stroke="#666666" points="227,-159 0,-159 0,-118 227,-118 227,-159"/>
<text text-anchor="start" x="8" y="-147" font-family="Helvetica,sans-Serif" font-size="10.00">flexxlam::SetEthernetCommunication</text>
<text text-anchor="start" x="8" y="-136" font-family="Helvetica,sans-Serif" font-size="10.00">ConfigProtocol::SetEthernetCommunication</text>
<text text-anchor="middle" x="113.5" y="-125" font-family="Helvetica,sans-Serif" font-size="10.00">ConfigProtocol</text>
</a>
</g>
</g>
<!-- Node1&#45;&gt;Node9 -->
<g id="edge9_Node000001_Node000009" class="edge">
<title>Node1&#45;&gt;Node9</title>
<g id="a_edge9_Node000001_Node000009"><a xlink:title=" ">
<path fill="none" stroke="#63b8ff" d="M303.53,-261.3C289.06,-234.56 262.2,-192.17 227,-168.5 221.72,-164.95 216.03,-161.81 210.12,-159.05"/>
<polygon fill="#63b8ff" stroke="#63b8ff" points="300.55,-263.15 308.29,-270.37 306.74,-259.89 300.55,-263.15"/>
</a>
</g>
</g>
<!-- Node10 -->
<g id="Node000010" class="node">
<title>Node10</title>
<g id="a_Node000010"><a xlink:href="classflexxlam_1_1SetMavlinkCommunicationConfigProtocol.html#af6fd95313595f0ba356bcb3308d0277d" target="_top" xlink:title="Set mavlink communication config protocol constructor.">
<polygon fill="white" stroke="#666666" points="226,-100 1,-100 1,-59 226,-59 226,-100"/>
<text text-anchor="start" x="9" y="-88" font-family="Helvetica,sans-Serif" font-size="10.00">flexxlam::SetMavlinkCommunication</text>
<text text-anchor="start" x="9" y="-77" font-family="Helvetica,sans-Serif" font-size="10.00">ConfigProtocol::SetMavlinkCommunication</text>
<text text-anchor="middle" x="113.5" y="-66" font-family="Helvetica,sans-Serif" font-size="10.00">ConfigProtocol</text>
</a>
</g>
</g>
<!-- Node1&#45;&gt;Node10 -->
<g id="edge10_Node000001_Node000010" class="edge">
<title>Node1&#45;&gt;Node10</title>
<g id="a_edge10_Node000001_Node000010"><a xlink:title=" ">
<path fill="none" stroke="#63b8ff" d="M309.9,-260.53C299.99,-222.17 275.63,-149.05 227,-109.5 222.61,-105.93 217.83,-102.78 212.81,-100"/>
<polygon fill="#63b8ff" stroke="#63b8ff" points="306.54,-261.5 312.33,-270.37 313.34,-259.82 306.54,-261.5"/>
</a>
</g>
</g>
<!-- Node11 -->
<g id="Node000011" class="node">
<title>Node11</title>
<g id="a_Node000011"><a xlink:href="classflexxlam_1_1SetSerialCommunicationConfigProtocol.html#abee7908e23ad1a7ed9930e00b794c433" target="_top" xlink:title="Set serial communication config protocol constructor.">
<polygon fill="white" stroke="#666666" points="220.5,-41 6.5,-41 6.5,0 220.5,0 220.5,-41"/>
<text text-anchor="start" x="14.5" y="-29" font-family="Helvetica,sans-Serif" font-size="10.00">flexxlam::SetSerialCommunication</text>
<text text-anchor="start" x="14.5" y="-18" font-family="Helvetica,sans-Serif" font-size="10.00">ConfigProtocol::SetSerialCommunication</text>
<text text-anchor="middle" x="113.5" y="-7" font-family="Helvetica,sans-Serif" font-size="10.00">ConfigProtocol</text>
</a>
</g>
</g>
<!-- Node1&#45;&gt;Node11 -->
<g id="edge11_Node000001_Node000011" class="edge">
<title>Node1&#45;&gt;Node11</title>
<g id="a_edge11_Node000001_Node000011"><a xlink:title=" ">
<path fill="none" stroke="#63b8ff" d="M313.39,-260.04C308,-211.82 289.37,-106.95 227,-50.5 223.1,-46.97 218.84,-43.85 214.32,-41.09"/>
<polygon fill="#63b8ff" stroke="#63b8ff" points="309.93,-260.64 314.42,-270.23 316.9,-259.93 309.93,-260.64"/>
</a>
</g>
</g>
</g>
</svg>

<g id="navigator" transform="translate(0 0)" fill="#404254">
  <rect fill="#f2f5e9" fill-opacity="0.5" stroke="#606060" stroke-width=".5" x="0" y="0" width="60" height="60"/>
  <use id="zoomplus" xlink:href="#zoomPlus" x="17" y="9" onmousedown="handleZoom(evt,'in')"/>
  <use id="zoomminus" xlink:href="#zoomMin" x="42" y="9" onmousedown="handleZoom(evt,'out')"/>
  <use id="reset" xlink:href="#resetDef" x="30" y="36" onmousedown="handleReset()"/>
   <use id="arrowup" xlink:href="#arrowUp" x="0" y="0" onmousedown="handlePan(0,-1)"/>
  <use id="arrowright" xlink:href="#arrowRight" x="0" y="0" onmousedown="handlePan(1,0)"/>
  <use id="arrowdown" xlink:href="#arrowDown" x="0" y="0" onmousedown="handlePan(0,1)"/>
  <use id="arrowleft" xlink:href="#arrowLeft" x="0" y="0" onmousedown="handlePan(-1,0)"/>
</g>
<svg viewBox="0 0 15 15" width="100%" height="30px" preserveAspectRatio="xMaxYMin meet">
 <g id="arrow_out" transform="scale(0.3 0.3)">
  <a xlink:href="namespaceflexxlam_1_1to__bytes_a3a4e276d701d00ad7432e6bdbba14340_icgraph_org.svg" target="_base">
   <rect id="button" ry="5" rx="5" y="6" x="6" height="38" width="38"
        fill="#f2f5e9" fill-opacity="0.5" stroke="#606060" stroke-width="1.0"/>
   <path id="arrow"
     d="M 11.500037,31.436501 C 11.940474,20.09759 22.043105,11.32322 32.158766,21.979434 L 37.068811,17.246167 C 37.068811,17.246167 37.088388,32 37.088388,32 L 22.160133,31.978069 C 22.160133,31.978069 26.997745,27.140456 26.997745,27.140456 C 18.528582,18.264221 13.291696,25.230495 11.500037,31.436501 z"
     style="fill:#404040;"/>
  </a>
 </g>
</svg>

<style type='text/css'>
<![CDATA[
[data-mouse-over-selected='false'] { opacity: 0.7; }
[data-mouse-over-selected='true']  { opacity: 1.0; }
]]>
</style>
<script type="application/ecmascript"><![CDATA[
document.addEventListener('DOMContentLoaded', (event) => {
  highlightEdges();
  highlightAdjacentNodes();
});
]]></script>
</svg>
