<?xml version="1.0" encoding="UTF-8" standalone="no"?>
<!DOCTYPE svg PUBLIC "-//W3C//DTD SVG 1.1//EN"
 "http://www.w3.org/Graphics/SVG/1.1/DTD/svg11.dtd">
<!-- Generated by graphviz version 2.43.0 (0)
 -->
<!-- Title: flexxlam_msgs::serialize Pages: 1 -->
<svg width="360pt" height="86pt"
 viewBox="0.00 0.00 360.00 86.00" xmlns="http://www.w3.org/2000/svg" xmlns:xlink="http://www.w3.org/1999/xlink">
<g id="graph0" class="graph" transform="scale(1 1) rotate(0) translate(4 82)">
<title>flexxlam_msgs::serialize</title>
<!-- Node1 -->
<g id="Node000001" class="node">
<title>Node1</title>
<g id="a_Node000001"><a xlink:title="Serialize Odometry message.">
<polygon fill="#999999" stroke="#666666" points="352,-48.5 214,-48.5 214,-29.5 352,-29.5 352,-48.5"/>
<text text-anchor="middle" x="283" y="-36.5" font-family="Helvetica,sans-Serif" font-size="10.00">flexxlam_msgs::serialize</text>
</a>
</g>
</g>
<!-- Node2 -->
<g id="Node000002" class="node">
<title>Node2</title>
<g id="a_Node000002"><a xlink:href="classflexxlam_1_1PushOdometryProtocol.html#a1d69fac9c42303bdc7e29d8020b99f07" target="_top" xlink:title="Get odometry protocol constructor.">
<polygon fill="white" stroke="#666666" points="177.5,-78 0.5,-78 0.5,-48 177.5,-48 177.5,-78"/>
<text text-anchor="start" x="8.5" y="-66" font-family="Helvetica,sans-Serif" font-size="10.00">flexxlam::PushOdometryProtocol</text>
<text text-anchor="middle" x="89" y="-55" font-family="Helvetica,sans-Serif" font-size="10.00">::PushOdometryProtocol</text>
</a>
</g>
</g>
<!-- Node1&#45;&gt;Node2 -->
<g id="edge1_Node000001_Node000002" class="edge">
<title>Node1&#45;&gt;Node2</title>
<g id="a_edge1_Node000001_Node000002"><a xlink:title=" ">
<path fill="none" stroke="#63b8ff" d="M203.82,-48.77C195.26,-49.84 186.5,-50.94 177.83,-52.02"/>
<polygon fill="#63b8ff" stroke="#63b8ff" points="204.28,-52.24 213.77,-47.53 203.41,-45.3 204.28,-52.24"/>
</a>
</g>
</g>
<!-- Node3 -->
<g id="Node000003" class="node">
<title>Node3</title>
<g id="a_Node000003"><a xlink:href="classflexxlam_1_1PushPointCloudProtocol.html#a2966ee563296ca39bc79364fb48008e3" target="_top" xlink:title="PushPointCloudProtocol constructor.">
<polygon fill="white" stroke="#666666" points="178,-30 0,-30 0,0 178,0 178,-30"/>
<text text-anchor="start" x="8" y="-18" font-family="Helvetica,sans-Serif" font-size="10.00">flexxlam::PushPointCloud</text>
<text text-anchor="middle" x="89" y="-7" font-family="Helvetica,sans-Serif" font-size="10.00">Protocol::PushPointCloudProtocol</text>
</a>
</g>
</g>
<!-- Node1&#45;&gt;Node3 -->
<g id="edge2_Node000001_Node000003" class="edge">
<title>Node1&#45;&gt;Node3</title>
<g id="a_edge2_Node000001_Node000003"><a xlink:title=" ">
<path fill="none" stroke="#63b8ff" d="M203.64,-29.2C195.24,-28.16 186.66,-27.08 178.16,-26.02"/>
<polygon fill="#63b8ff" stroke="#63b8ff" points="203.41,-32.7 213.77,-30.47 204.28,-25.76 203.41,-32.7"/>
</a>
</g>
</g>
</g>
</svg>
