<?xml version="1.0" encoding="UTF-8" standalone="no"?>
<!DOCTYPE svg PUBLIC "-//W3C//DTD SVG 1.1//EN"
 "http://www.w3.org/Graphics/SVG/1.1/DTD/svg11.dtd">
<!-- Generated by graphviz version 2.43.0 (0)
 -->
<!-- Title: flexxlam::from_bytes::to_int Pages: 1 -->
<!--zoomable 377 -->

<svg id="main" version="1.1" xmlns="http://www.w3.org/2000/svg" xmlns:xlink="http://www.w3.org/1999/xlink" xml:space="preserve" onload="init(evt)">
<style type="text/css"><![CDATA[
.node, .edge {opacity: 0.7;}
.node.selected, .edge.selected {opacity: 1;}
.edge:hover path { stroke: red; }
.edge:hover polygon { stroke: red; fill: red; }
]]></style>

<defs>
  <circle id="rim" cx="0" cy="0" r="7"/>
  <circle id="rim2" cx="0" cy="0" r="3.5"/>
  <g id="zoomPlus">
    <use xlink:href="#rim" fill="#404040"><set attributeName="fill" to="#808080" begin="zoomplus.mouseover" end="zoomplus.mouseout"/></use>
    <path d="M-4,0h8M0,-4v8" fill="none" stroke="white" stroke-width="1.5" pointer-events="none"/>
  </g>
  <g id="zoomMin">
    <use xlink:href="#rim" fill="#404040"><set attributeName="fill" to="#808080" begin="zoomminus.mouseover" end="zoomminus.mouseout"/></use>
    <path d="M-4,0h8" fill="none" stroke="white" stroke-width="1.5" pointer-events="none"/>
  </g>
  <g id="arrowUp" transform="translate(30 24)">
    <use xlink:href="#rim"/>
    <path pointer-events="none" fill="none" stroke="white" stroke-width="1.5" d="M0,-3.0v7 M-2.5,-0.5L0,-3.0L2.5,-0.5"/>
  </g>
  <g id="arrowRight" transform="rotate(90) translate(36 -43)">
    <use xlink:href="#rim"/>
    <path pointer-events="none" fill="none" stroke="white" stroke-width="1.5" d="M0,-3.0v7 M-2.5,-0.5L0,-3.0L2.5,-0.5"/>
  </g>
  <g id="arrowDown" transform="rotate(180) translate(-30 -48)">
    <use xlink:href="#rim"/>
    <path pointer-events="none" fill="none" stroke="white" stroke-width="1.5" d="M0,-3.0v7 M-2.5,-0.5L0,-3.0L2.5,-0.5"/>
  </g>
  <g id="arrowLeft" transform="rotate(270) translate(-36 17)">
    <use xlink:href="#rim"/>
    <path pointer-events="none" fill="none" stroke="white" stroke-width="1.5" d="M0,-3.0v7 M-2.5,-0.5L0,-3.0L2.5,-0.5"/>
  </g>
  <g id="resetDef">
    <use xlink:href="#rim2" fill="#404040"><set attributeName="fill" to="#808080" begin="reset.mouseover" end="reset.mouseout"/></use>
  </g>
</defs>
<script type="application/ecmascript">
var viewWidth = 628;
var viewHeight = 377;
var sectionId = 'dynsection-3';
</script>
<script type="application/ecmascript" xlink:href="svg.min.js"/>
<svg id="graph" class="graph">
<g id="viewport">
<title>flexxlam::from_bytes::to_int</title>
<!-- Node1 -->
<g id="Node000001" class="node">
<title>Node1</title>
<g id="a_Node000001"><a xlink:title="Convert 1~4 bytes to int.">
<polygon fill="#999999" stroke="#666666" points="620,-186 499,-186 499,-156 620,-156 620,-186"/>
<text text-anchor="start" x="507" y="-174" font-family="Helvetica,sans-Serif" font-size="10.00">flexxlam::from_bytes</text>
<text text-anchor="middle" x="559.5" y="-163" font-family="Helvetica,sans-Serif" font-size="10.00">::to_int</text>
</a>
</g>
</g>
<!-- Node1&#45;&gt;Node1 -->
<g id="edge14_Node000001_Node000001" class="edge">
<title>Node1&#45;&gt;Node1</title>
<g id="a_edge14_Node000001_Node000001"><a xlink:title=" ">
<path fill="none" stroke="#63b8ff" d="M593.81,-196.6C589.12,-200.97 577.68,-204 559.5,-204 528.88,-204 517.39,-195.41 525.05,-186.28"/>
<polygon fill="#63b8ff" stroke="#63b8ff" points="597.31,-196.32 593.95,-186.28 590.31,-196.22 597.31,-196.32"/>
</a>
</g>
</g>
<!-- Node2 -->
<g id="Node000002" class="node">
<title>Node2</title>
<g id="a_Node000002"><a xlink:href="classflexxlam_1_1ResponseEthernetCommunicationConfig.html#ad8b9bcb38d0086ae6ce8812b24cd3bfe" target="_top" xlink:title="Initialize enabled_ and baudrate_ from payload">
<polygon fill="white" stroke="#666666" points="440,-367.5 286,-367.5 286,-326.5 440,-326.5 440,-367.5"/>
<text text-anchor="start" x="294" y="-355.5" font-family="Helvetica,sans-Serif" font-size="10.00">flexxlam::ResponseEthernet</text>
<text text-anchor="start" x="294" y="-344.5" font-family="Helvetica,sans-Serif" font-size="10.00">CommunicationConfig::init</text>
<text text-anchor="middle" x="363" y="-333.5" font-family="Helvetica,sans-Serif" font-size="10.00">_from_payload_</text>
</a>
</g>
</g>
<!-- Node1&#45;&gt;Node2 -->
<g id="edge1_Node000001_Node000002" class="edge">
<title>Node1&#45;&gt;Node2</title>
<g id="a_edge1_Node000001_Node000002"><a xlink:title=" ">
<path fill="none" stroke="#63b8ff" d="M548.81,-195.6C534.74,-228.14 505.62,-285.08 463,-317 456.1,-322.17 448.31,-326.45 440.2,-330"/>
<polygon fill="#63b8ff" stroke="#63b8ff" points="552.05,-196.92 552.68,-186.34 545.59,-194.22 552.05,-196.92"/>
</a>
</g>
</g>
<!-- Node4 -->
<g id="Node000004" class="node">
<title>Node4</title>
<g id="a_Node000004"><a xlink:href="classflexxlam_1_1ResponseMavlinkCommunicationConfig.html#a88e00f432b94518f1149c0a180b5dea2" target="_top" xlink:title="Initialize enabled_ and baudrate_ from payload">
<polygon fill="white" stroke="#666666" points="439,-307.5 287,-307.5 287,-266.5 439,-266.5 439,-307.5"/>
<text text-anchor="start" x="295" y="-295.5" font-family="Helvetica,sans-Serif" font-size="10.00">flexxlam::ResponseMavlink</text>
<text text-anchor="start" x="295" y="-284.5" font-family="Helvetica,sans-Serif" font-size="10.00">CommunicationConfig::init</text>
<text text-anchor="middle" x="363" y="-273.5" font-family="Helvetica,sans-Serif" font-size="10.00">_from_payload_</text>
</a>
</g>
</g>
<!-- Node1&#45;&gt;Node4 -->
<g id="edge3_Node000001_Node000004" class="edge">
<title>Node1&#45;&gt;Node4</title>
<g id="a_edge3_Node000001_Node000004"><a xlink:title=" ">
<path fill="none" stroke="#63b8ff" d="M538.66,-193.78C520.69,-213.12 492.55,-240.33 463,-257 455.57,-261.19 447.49,-264.86 439.25,-268.06"/>
<polygon fill="#63b8ff" stroke="#63b8ff" points="541.35,-196.03 545.49,-186.28 536.17,-191.31 541.35,-196.03"/>
</a>
</g>
</g>
<!-- Node6 -->
<g id="Node000006" class="node">
<title>Node6</title>
<g id="a_Node000006"><a xlink:href="classflexxlam_1_1ResponseSerialCommunicationConfig.html#af1b5ab2da48eff49ce47bda0985bbc98" target="_top" xlink:title="Initialize enabled_ and baudrate_ from payload">
<polygon fill="white" stroke="#666666" points="436,-247.5 290,-247.5 290,-206.5 436,-206.5 436,-247.5"/>
<text text-anchor="start" x="298" y="-235.5" font-family="Helvetica,sans-Serif" font-size="10.00">flexxlam::ResponseSerial</text>
<text text-anchor="start" x="298" y="-224.5" font-family="Helvetica,sans-Serif" font-size="10.00">CommunicationConfig::init</text>
<text text-anchor="middle" x="363" y="-213.5" font-family="Helvetica,sans-Serif" font-size="10.00">_from_payload_</text>
</a>
</g>
</g>
<!-- Node1&#45;&gt;Node6 -->
<g id="edge5_Node000001_Node000006" class="edge">
<title>Node1&#45;&gt;Node6</title>
<g id="a_edge5_Node000001_Node000006"><a xlink:title=" ">
<path fill="none" stroke="#63b8ff" d="M496.69,-188.8C477.16,-194.42 455.42,-200.68 435.28,-206.48"/>
<polygon fill="#63b8ff" stroke="#63b8ff" points="497.74,-192.14 506.38,-186.01 495.8,-185.41 497.74,-192.14"/>
</a>
</g>
</g>
<!-- Node8 -->
<g id="Node000008" class="node">
<title>Node8</title>
<g id="a_Node000008"><a xlink:href="classflexxlam_1_1SetEthernetCommunicationConfigProtocol.html#a572cf36439a7eb1a1aee730c9a3f3f73" target="_top" xlink:title="Initialize enabled_ and port_ from payload">
<polygon fill="white" stroke="#666666" points="463,-186 263,-186 263,-156 463,-156 463,-186"/>
<text text-anchor="start" x="271" y="-174" font-family="Helvetica,sans-Serif" font-size="10.00">flexxlam::SetEthernetCommunication</text>
<text text-anchor="middle" x="363" y="-163" font-family="Helvetica,sans-Serif" font-size="10.00">ConfigProtocol::init_from_payload_</text>
</a>
</g>
</g>
<!-- Node1&#45;&gt;Node8 -->
<g id="edge7_Node000001_Node000008" class="edge">
<title>Node1&#45;&gt;Node8</title>
<g id="a_edge7_Node000001_Node000008"><a xlink:title=" ">
<path fill="none" stroke="#63b8ff" d="M488.59,-171C480.37,-171 471.87,-171 463.35,-171"/>
<polygon fill="#63b8ff" stroke="#63b8ff" points="488.82,-174.5 498.82,-171 488.82,-167.5 488.82,-174.5"/>
</a>
</g>
</g>
<!-- Node10 -->
<g id="Node000010" class="node">
<title>Node10</title>
<g id="a_Node000010"><a xlink:href="classflexxlam_1_1SetMavlinkCommunicationConfigProtocol.html#aee2f04982c4b3da12548f8f23383f777" target="_top" xlink:title="Initialize enabled_ and baudrate_ from payload">
<polygon fill="white" stroke="#666666" points="461.5,-138 264.5,-138 264.5,-108 461.5,-108 461.5,-138"/>
<text text-anchor="start" x="272.5" y="-126" font-family="Helvetica,sans-Serif" font-size="10.00">flexxlam::SetMavlinkCommunication</text>
<text text-anchor="middle" x="363" y="-115" font-family="Helvetica,sans-Serif" font-size="10.00">ConfigProtocol::init_from_payload_</text>
</a>
</g>
</g>
<!-- Node1&#45;&gt;Node10 -->
<g id="edge9_Node000001_Node000010" class="edge">
<title>Node1&#45;&gt;Node10</title>
<g id="a_edge9_Node000001_Node000010"><a xlink:title=" ">
<path fill="none" stroke="#63b8ff" d="M489.07,-153.48C480.3,-151.29 471.44,-149.08 463,-147 451.15,-144.08 438.5,-140.98 426.34,-138.03"/>
<polygon fill="#63b8ff" stroke="#63b8ff" points="488.36,-156.91 498.92,-155.94 490.06,-150.12 488.36,-156.91"/>
</a>
</g>
</g>
<!-- Node12 -->
<g id="Node000012" class="node">
<title>Node12</title>
<g id="a_Node000012"><a xlink:href="classflexxlam_1_1SetSerialCommunicationConfigProtocol.html#a89e809d1a2ae19fb0db5bd7c3a9a9096" target="_top" xlink:title="Initialize enabled_ and baudrate_ from payload">
<polygon fill="white" stroke="#666666" points="456,-89.5 270,-89.5 270,-48.5 456,-48.5 456,-89.5"/>
<text text-anchor="start" x="278" y="-77.5" font-family="Helvetica,sans-Serif" font-size="10.00">flexxlam::SetSerialCommunication</text>
<text text-anchor="start" x="278" y="-66.5" font-family="Helvetica,sans-Serif" font-size="10.00">ConfigProtocol::init_from</text>
<text text-anchor="middle" x="363" y="-55.5" font-family="Helvetica,sans-Serif" font-size="10.00">_payload_</text>
</a>
</g>
</g>
<!-- Node1&#45;&gt;Node12 -->
<g id="edge11_Node000001_Node000012" class="edge">
<title>Node1&#45;&gt;Node12</title>
<g id="a_edge11_Node000001_Node000012"><a xlink:title=" ">
<path fill="none" stroke="#63b8ff" d="M534.28,-148.9C515.88,-133.11 489.33,-112.38 463,-99 456.2,-95.54 448.92,-92.41 441.52,-89.58"/>
<polygon fill="#63b8ff" stroke="#63b8ff" points="532.29,-151.82 542.13,-155.76 536.9,-146.55 532.29,-151.82"/>
</a>
</g>
</g>
<!-- Node14 -->
<g id="Node000014" class="node">
<title>Node14</title>
<g id="a_Node000014"><a xlink:href="classflexxlam_1_1FlexXlamParser.html#a46e76777b9780ee2a11d079f3792ffc1" target="_top" xlink:title="Parse byte array.">
<polygon fill="white" stroke="#666666" points="434,-30 292,-30 292,0 434,0 434,-30"/>
<text text-anchor="start" x="300" y="-18" font-family="Helvetica,sans-Serif" font-size="10.00">flexxlam::FlexXlamParser</text>
<text text-anchor="middle" x="363" y="-7" font-family="Helvetica,sans-Serif" font-size="10.00">::parse</text>
</a>
</g>
</g>
<!-- Node1&#45;&gt;Node14 -->
<g id="edge13_Node000001_Node000014" class="edge">
<title>Node1&#45;&gt;Node14</title>
<g id="a_edge13_Node000001_Node000014"><a xlink:title=" ">
<path fill="none" stroke="#63b8ff" d="M547.35,-146.24C532.48,-116.15 503.3,-66.05 463,-39 454.34,-33.18 444.41,-28.78 434.26,-25.43"/>
<polygon fill="#63b8ff" stroke="#63b8ff" points="544.36,-148.11 551.83,-155.62 550.67,-145.08 544.36,-148.11"/>
</a>
</g>
</g>
<!-- Node3 -->
<g id="Node000003" class="node">
<title>Node3</title>
<g id="a_Node000003"><a xlink:href="classflexxlam_1_1ResponseEthernetCommunicationConfig.html#afd38040e22de5ee9244f65b11e15a794" target="_top" xlink:title="Response data status protocol constructor.">
<polygon fill="white" stroke="#666666" points="223,-368.5 4,-368.5 4,-327.5 223,-327.5 223,-368.5"/>
<text text-anchor="start" x="12" y="-356.5" font-family="Helvetica,sans-Serif" font-size="10.00">flexxlam::ResponseEthernet</text>
<text text-anchor="start" x="12" y="-345.5" font-family="Helvetica,sans-Serif" font-size="10.00">CommunicationConfig::ResponseEthernet</text>
<text text-anchor="middle" x="113.5" y="-334.5" font-family="Helvetica,sans-Serif" font-size="10.00">CommunicationConfig</text>
</a>
</g>
</g>
<!-- Node2&#45;&gt;Node3 -->
<g id="edge2_Node000002_Node000003" class="edge">
<title>Node2&#45;&gt;Node3</title>
<g id="a_edge2_Node000002_Node000003"><a xlink:title=" ">
<path fill="none" stroke="#63b8ff" d="M275.39,-347.35C258.56,-347.42 240.72,-347.49 223.28,-347.56"/>
<polygon fill="#63b8ff" stroke="#63b8ff" points="275.74,-350.85 285.72,-347.31 275.71,-343.85 275.74,-350.85"/>
</a>
</g>
</g>
<!-- Node5 -->
<g id="Node000005" class="node">
<title>Node5</title>
<g id="a_Node000005"><a xlink:href="classflexxlam_1_1ResponseMavlinkCommunicationConfig.html#ac7bb1b6c5f9f001520c81c6dade2786e" target="_top" xlink:title="Response data status protocol constructor.">
<polygon fill="white" stroke="#666666" points="222,-309.5 5,-309.5 5,-268.5 222,-268.5 222,-309.5"/>
<text text-anchor="start" x="13" y="-297.5" font-family="Helvetica,sans-Serif" font-size="10.00">flexxlam::ResponseMavlink</text>
<text text-anchor="start" x="13" y="-286.5" font-family="Helvetica,sans-Serif" font-size="10.00">CommunicationConfig::ResponseMavlink</text>
<text text-anchor="middle" x="113.5" y="-275.5" font-family="Helvetica,sans-Serif" font-size="10.00">CommunicationConfig</text>
</a>
</g>
</g>
<!-- Node4&#45;&gt;Node5 -->
<g id="edge4_Node000004_Node000005" class="edge">
<title>Node4&#45;&gt;Node5</title>
<g id="a_edge4_Node000004_Node000005"><a xlink:title=" ">
<path fill="none" stroke="#63b8ff" d="M276.57,-287.69C259.06,-287.83 240.42,-287.98 222.24,-288.13"/>
<polygon fill="#63b8ff" stroke="#63b8ff" points="276.76,-291.19 286.73,-287.61 276.71,-284.19 276.76,-291.19"/>
</a>
</g>
</g>
<!-- Node7 -->
<g id="Node000007" class="node">
<title>Node7</title>
<g id="a_Node000007"><a xlink:href="classflexxlam_1_1ResponseSerialCommunicationConfig.html#a257e92bc8951b66afcaef4e25f9aeaf0" target="_top" xlink:title="Response data status protocol constructor.">
<polygon fill="white" stroke="#666666" points="202.5,-250.5 24.5,-250.5 24.5,-209.5 202.5,-209.5 202.5,-250.5"/>
<text text-anchor="start" x="32.5" y="-238.5" font-family="Helvetica,sans-Serif" font-size="10.00">flexxlam::ResponseSerial</text>
<text text-anchor="start" x="32.5" y="-227.5" font-family="Helvetica,sans-Serif" font-size="10.00">CommunicationConfig::Response</text>
<text text-anchor="middle" x="113.5" y="-216.5" font-family="Helvetica,sans-Serif" font-size="10.00">SerialCommunicationConfig</text>
</a>
</g>
</g>
<!-- Node6&#45;&gt;Node7 -->
<g id="edge6_Node000006_Node000007" class="edge">
<title>Node6&#45;&gt;Node7</title>
<g id="a_edge6_Node000006_Node000007"><a xlink:title=" ">
<path fill="none" stroke="#63b8ff" d="M279.68,-228C254.95,-228.3 227.73,-228.63 202.64,-228.93"/>
<polygon fill="#63b8ff" stroke="#63b8ff" points="279.79,-231.5 289.75,-227.88 279.71,-224.5 279.79,-231.5"/>
</a>
</g>
</g>
<!-- Node9 -->
<g id="Node000009" class="node">
<title>Node9</title>
<g id="a_Node000009"><a xlink:href="classflexxlam_1_1SetEthernetCommunicationConfigProtocol.html#a0607bafbb372a261703af725d74a2f7e" target="_top" xlink:title="Set ethernet communication config protocol constructor.">
<polygon fill="white" stroke="#666666" points="227,-191.5 0,-191.5 0,-150.5 227,-150.5 227,-191.5"/>
<text text-anchor="start" x="8" y="-179.5" font-family="Helvetica,sans-Serif" font-size="10.00">flexxlam::SetEthernetCommunication</text>
<text text-anchor="start" x="8" y="-168.5" font-family="Helvetica,sans-Serif" font-size="10.00">ConfigProtocol::SetEthernetCommunication</text>
<text text-anchor="middle" x="113.5" y="-157.5" font-family="Helvetica,sans-Serif" font-size="10.00">ConfigProtocol</text>
</a>
</g>
</g>
<!-- Node8&#45;&gt;Node9 -->
<g id="edge8_Node000008_Node000009" class="edge">
<title>Node8&#45;&gt;Node9</title>
<g id="a_edge8_Node000008_Node000009"><a xlink:title=" ">
<path fill="none" stroke="#63b8ff" d="M252.55,-171C244.13,-171 235.62,-171 227.19,-171"/>
<polygon fill="#63b8ff" stroke="#63b8ff" points="252.76,-174.5 262.76,-171 252.76,-167.5 252.76,-174.5"/>
</a>
</g>
</g>
<!-- Node11 -->
<g id="Node000011" class="node">
<title>Node11</title>
<g id="a_Node000011"><a xlink:href="classflexxlam_1_1SetMavlinkCommunicationConfigProtocol.html#a64dc6fff0dd0e1fc8ea7efba0ff91a50" target="_top" xlink:title="Set mavlink communication config protocol constructor.">
<polygon fill="white" stroke="#666666" points="226,-132.5 1,-132.5 1,-91.5 226,-91.5 226,-132.5"/>
<text text-anchor="start" x="9" y="-120.5" font-family="Helvetica,sans-Serif" font-size="10.00">flexxlam::SetMavlinkCommunication</text>
<text text-anchor="start" x="9" y="-109.5" font-family="Helvetica,sans-Serif" font-size="10.00">ConfigProtocol::SetMavlinkCommunication</text>
<text text-anchor="middle" x="113.5" y="-98.5" font-family="Helvetica,sans-Serif" font-size="10.00">ConfigProtocol</text>
</a>
</g>
</g>
<!-- Node10&#45;&gt;Node11 -->
<g id="edge10_Node000010_Node000011" class="edge">
<title>Node10&#45;&gt;Node11</title>
<g id="a_edge10_Node000010_Node000011"><a xlink:title=" ">
<path fill="none" stroke="#63b8ff" d="M253.91,-118.2C244.77,-117.79 235.5,-117.38 226.33,-116.97"/>
<polygon fill="#63b8ff" stroke="#63b8ff" points="254.04,-121.7 264.18,-118.65 254.35,-114.71 254.04,-121.7"/>
</a>
</g>
</g>
<!-- Node13 -->
<g id="Node000013" class="node">
<title>Node13</title>
<g id="a_Node000013"><a xlink:href="classflexxlam_1_1SetSerialCommunicationConfigProtocol.html#a52c7590f068f76ba55dc0e5543e23942" target="_top" xlink:title="Set serial communication config protocol constructor.">
<polygon fill="white" stroke="#666666" points="220.5,-73.5 6.5,-73.5 6.5,-32.5 220.5,-32.5 220.5,-73.5"/>
<text text-anchor="start" x="14.5" y="-61.5" font-family="Helvetica,sans-Serif" font-size="10.00">flexxlam::SetSerialCommunication</text>
<text text-anchor="start" x="14.5" y="-50.5" font-family="Helvetica,sans-Serif" font-size="10.00">ConfigProtocol::SetSerialCommunication</text>
<text text-anchor="middle" x="113.5" y="-39.5" font-family="Helvetica,sans-Serif" font-size="10.00">ConfigProtocol</text>
</a>
</g>
</g>
<!-- Node12&#45;&gt;Node13 -->
<g id="edge12_Node000012_Node000013" class="edge">
<title>Node12&#45;&gt;Node13</title>
<g id="a_edge12_Node000012_Node000013"><a xlink:title=" ">
<path fill="none" stroke="#63b8ff" d="M259.57,-62.38C246.67,-61.54 233.45,-60.69 220.5,-59.85"/>
<polygon fill="#63b8ff" stroke="#63b8ff" points="259.64,-65.89 269.84,-63.04 260.09,-58.9 259.64,-65.89"/>
</a>
</g>
</g>
</g>
</svg>

<g id="navigator" transform="translate(0 0)" fill="#404254">
  <rect fill="#f2f5e9" fill-opacity="0.5" stroke="#606060" stroke-width=".5" x="0" y="0" width="60" height="60"/>
  <use id="zoomplus" xlink:href="#zoomPlus" x="17" y="9" onmousedown="handleZoom(evt,'in')"/>
  <use id="zoomminus" xlink:href="#zoomMin" x="42" y="9" onmousedown="handleZoom(evt,'out')"/>
  <use id="reset" xlink:href="#resetDef" x="30" y="36" onmousedown="handleReset()"/>
   <use id="arrowup" xlink:href="#arrowUp" x="0" y="0" onmousedown="handlePan(0,-1)"/>
  <use id="arrowright" xlink:href="#arrowRight" x="0" y="0" onmousedown="handlePan(1,0)"/>
  <use id="arrowdown" xlink:href="#arrowDown" x="0" y="0" onmousedown="handlePan(0,1)"/>
  <use id="arrowleft" xlink:href="#arrowLeft" x="0" y="0" onmousedown="handlePan(-1,0)"/>
</g>
<svg viewBox="0 0 15 15" width="100%" height="30px" preserveAspectRatio="xMaxYMin meet">
 <g id="arrow_out" transform="scale(0.3 0.3)">
  <a xlink:href="namespaceflexxlam_1_1from__bytes_ab8c3593a8c91bb527232a403823449e9_icgraph_org.svg" target="_base">
   <rect id="button" ry="5" rx="5" y="6" x="6" height="38" width="38"
        fill="#f2f5e9" fill-opacity="0.5" stroke="#606060" stroke-width="1.0"/>
   <path id="arrow"
     d="M 11.500037,31.436501 C 11.940474,20.09759 22.043105,11.32322 32.158766,21.979434 L 37.068811,17.246167 C 37.068811,17.246167 37.088388,32 37.088388,32 L 22.160133,31.978069 C 22.160133,31.978069 26.997745,27.140456 26.997745,27.140456 C 18.528582,18.264221 13.291696,25.230495 11.500037,31.436501 z"
     style="fill:#404040;"/>
  </a>
 </g>
</svg>

<style type='text/css'>
<![CDATA[
[data-mouse-over-selected='false'] { opacity: 0.7; }
[data-mouse-over-selected='true']  { opacity: 1.0; }
]]>
</style>
<script type="application/ecmascript"><![CDATA[
document.addEventListener('DOMContentLoaded', (event) => {
  highlightEdges();
  highlightAdjacentNodes();
});
]]></script>
</svg>
