<?xml version="1.0" encoding="UTF-8" standalone="no"?>
<!DOCTYPE svg PUBLIC "-//W3C//DTD SVG 1.1//EN"
 "http://www.w3.org/Graphics/SVG/1.1/DTD/svg11.dtd">
<!-- Generated by graphviz version 2.43.0 (0)
 -->
<!-- Title: flexxlam::to_bytes::two Pages: 1 -->
<svg width="469pt" height="38pt"
 viewBox="0.00 0.00 469.00 38.00" xmlns="http://www.w3.org/2000/svg" xmlns:xlink="http://www.w3.org/1999/xlink">
<g id="graph0" class="graph" transform="scale(1 1) rotate(0) translate(4 34)">
<title>flexxlam::to_bytes::two</title>
<!-- Node1 -->
<g id="Node000001" class="node">
<title>Node1</title>
<g id="a_Node000001"><a xlink:title="Convert int to 2 bytes with little endian.">
<polygon fill="#999999" stroke="#666666" points="461,-24.5 330,-24.5 330,-5.5 461,-5.5 461,-24.5"/>
<text text-anchor="middle" x="395.5" y="-12.5" font-family="Helvetica,sans-Serif" font-size="10.00">flexxlam::to_bytes::two</text>
</a>
</g>
</g>
<!-- Node2 -->
<g id="Node000002" class="node">
<title>Node2</title>
<g id="a_Node000002"><a xlink:href="classflexxlam_1_1BaseProtocol.html#a1572edb32a2d5adc643a86295835e2b9" target="_top" xlink:title="Create whole protocol message from payload.">
<polygon fill="white" stroke="#666666" points="294,-30 165,-30 165,0 294,0 294,-30"/>
<text text-anchor="start" x="173" y="-18" font-family="Helvetica,sans-Serif" font-size="10.00">flexxlam::BaseProtocol</text>
<text text-anchor="middle" x="229.5" y="-7" font-family="Helvetica,sans-Serif" font-size="10.00">::encapsulate_</text>
</a>
</g>
</g>
<!-- Node1&#45;&gt;Node2 -->
<g id="edge1_Node000001_Node000002" class="edge">
<title>Node1&#45;&gt;Node2</title>
<g id="a_edge1_Node000001_Node000002"><a xlink:title=" ">
<path fill="none" stroke="#63b8ff" d="M319.41,-15C310.93,-15 302.35,-15 294.04,-15"/>
<polygon fill="#63b8ff" stroke="#63b8ff" points="319.68,-18.5 329.68,-15 319.68,-11.5 319.68,-18.5"/>
</a>
</g>
</g>
<!-- Node3 -->
<g id="Node000003" class="node">
<title>Node3</title>
<g id="a_Node000003"><a xlink:href="classflexxlam_1_1BaseProtocol.html#a7827875cf3d6f5d115e09a0a6097d63d" target="_top" xlink:title="Encapsulate payload into the protocol.">
<polygon fill="white" stroke="#666666" points="129,-30 0,-30 0,0 129,0 129,-30"/>
<text text-anchor="start" x="8" y="-18" font-family="Helvetica,sans-Serif" font-size="10.00">flexxlam::BaseProtocol</text>
<text text-anchor="middle" x="64.5" y="-7" font-family="Helvetica,sans-Serif" font-size="10.00">::encapsulate</text>
</a>
</g>
</g>
<!-- Node2&#45;&gt;Node3 -->
<g id="edge2_Node000002_Node000003" class="edge">
<title>Node2&#45;&gt;Node3</title>
<g id="a_edge2_Node000002_Node000003"><a xlink:title=" ">
<path fill="none" stroke="#63b8ff" d="M154.31,-15C145.86,-15 137.3,-15 129,-15"/>
<polygon fill="#63b8ff" stroke="#63b8ff" points="154.55,-18.5 164.55,-15 154.55,-11.5 154.55,-18.5"/>
</a>
</g>
</g>
</g>
</svg>
