<?xml version="1.0" encoding="UTF-8" standalone="no"?>
<!DOCTYPE svg PUBLIC "-//W3C//DTD SVG 1.1//EN"
 "http://www.w3.org/Graphics/SVG/1.1/DTD/svg11.dtd">
<!-- Generated by graphviz version 2.43.0 (0)
 -->
<!-- Title: flexxlam_msgs::Odometry::Pose Pages: 1 -->
<svg width="306pt" height="231pt"
 viewBox="0.00 0.00 306.00 231.00" xmlns="http://www.w3.org/2000/svg" xmlns:xlink="http://www.w3.org/1999/xlink">

<svg id="main" version="1.1" xmlns="http://www.w3.org/2000/svg" xmlns:xlink="http://www.w3.org/1999/xlink" xml:space="preserve" onload="init(evt)">
<style type="text/css"><![CDATA[
.node, .edge {opacity: 0.7;}
.node.selected, .edge.selected {opacity: 1;}
.edge:hover path { stroke: red; }
.edge:hover polygon { stroke: red; fill: red; }
]]></style>
<script type="application/ecmascript" xlink:href="svg.min.js"/>
<svg id="graph" class="graph">
<g id="graph0" class="graph" transform="scale(1 1) rotate(0) translate(4 227)">
<title>flexxlam_msgs::Odometry::Pose</title>
<!-- Node1 -->
<g id="Node000001" class="node">
<title>Node1</title>
<g id="a_Node000001"><a xlink:title="Pose of odometry.">
<polygon fill="#999999" stroke="transparent" points="219,-71 79,-71 79,0 219,0 219,-71"/>
<text text-anchor="start" x="84" y="-58.5" font-family="Helvetica,sans-Serif" font-size="10.00">flexxlam_msgs::Odometry</text>
<text text-anchor="start" x="134" y="-47.5" font-family="Helvetica,sans-Serif" font-size="10.00">::Pose</text>
<text text-anchor="start" x="92" y="-32.5" font-family="Helvetica,sans-Serif" font-size="10.00">+</text>
<text text-anchor="start" x="114" y="-32.5" font-family="Helvetica,sans-Serif" font-size="10.00">std::array&lt; float,</text>
<text text-anchor="start" x="114" y="-21.5" font-family="Helvetica,sans-Serif" font-size="10.00"> 36 &gt; covariance</text>
<text text-anchor="start" x="147" y="-6.5" font-family="Helvetica,sans-Serif" font-size="10.00"> </text>
<polygon fill="#666666" stroke="#666666" points="79,-42.5 79,-42.5 219,-42.5 219,-42.5 79,-42.5"/>
<polygon fill="#666666" stroke="#666666" points="79,-16.5 79,-16.5 112,-16.5 112,-16.5 79,-16.5"/>
<polygon fill="#666666" stroke="#666666" points="112,-16.5 112,-16.5 219,-16.5 219,-16.5 112,-16.5"/>
<polygon fill="none" stroke="#666666" points="79,0 79,-71 219,-71 219,0 79,0"/>
</a>
</g>
</g>
<!-- Node2 -->
<g id="Node000002" class="node">
<title>Node2</title>
<g id="a_Node000002"><a xlink:href="structflexxlam__msgs_1_1Odometry_1_1Pose_1_1Position.html" target="_top" xlink:title="Position of odometry.">
<polygon fill="white" stroke="transparent" points="140,-215.5 0,-215.5 0,-125.5 140,-125.5 140,-215.5"/>
<text text-anchor="start" x="5" y="-203.5" font-family="Helvetica,sans-Serif" font-size="10.00">flexxlam_msgs::Odometry</text>
<text text-anchor="start" x="32.5" y="-192.5" font-family="Helvetica,sans-Serif" font-size="10.00">::Pose::Position</text>
<text text-anchor="start" x="26" y="-177.5" font-family="Helvetica,sans-Serif" font-size="10.00">+</text>
<text text-anchor="start" x="61" y="-177.5" font-family="Helvetica,sans-Serif" font-size="10.00">float x</text>
<text text-anchor="start" x="26" y="-162.5" font-family="Helvetica,sans-Serif" font-size="10.00">+</text>
<text text-anchor="start" x="61" y="-162.5" font-family="Helvetica,sans-Serif" font-size="10.00">float y</text>
<text text-anchor="start" x="26" y="-147.5" font-family="Helvetica,sans-Serif" font-size="10.00">+</text>
<text text-anchor="start" x="61" y="-147.5" font-family="Helvetica,sans-Serif" font-size="10.00">float z</text>
<text text-anchor="start" x="68" y="-132.5" font-family="Helvetica,sans-Serif" font-size="10.00"> </text>
<polygon fill="#666666" stroke="#666666" points="0,-187.5 0,-187.5 140,-187.5 140,-187.5 0,-187.5"/>
<polygon fill="#666666" stroke="#666666" points="0,-142.5 0,-142.5 59,-142.5 59,-142.5 0,-142.5"/>
<polygon fill="#666666" stroke="#666666" points="59,-142.5 59,-142.5 140,-142.5 140,-142.5 59,-142.5"/>
<polygon fill="none" stroke="#666666" points="0,-125.5 0,-215.5 140,-215.5 140,-125.5 0,-125.5"/>
</a>
</g>
</g>
<!-- Node2&#45;&gt;Node1 -->
<g id="edge1_Node000001_Node000002" class="edge">
<title>Node2&#45;&gt;Node1</title>
<g id="a_edge1_Node000001_Node000002"><a xlink:title=" ">
<path fill="none" stroke="#63b8ff" d="M96.31,-125.21C104.6,-111.24 113.78,-95.79 122.12,-81.76"/>
<polygon fill="none" stroke="#63b8ff" points="122.17,-81.66 121.8,-74.46 128.3,-71.35 128.68,-78.55 122.17,-81.66"/>
</a>
</g>
<text text-anchor="middle" x="142.5" y="-92" font-family="Helvetica,sans-Serif" font-size="10.00" fill="grey"> +position</text>
</g>
<!-- Node3 -->
<g id="Node000003" class="node">
<title>Node3</title>
<g id="a_Node000003"><a xlink:href="structflexxlam__msgs_1_1Odometry_1_1Pose_1_1Orientation.html" target="_top" xlink:title="Orientation of odometry.">
<polygon fill="white" stroke="transparent" points="298,-223 158,-223 158,-118 298,-118 298,-223"/>
<text text-anchor="start" x="163" y="-210.5" font-family="Helvetica,sans-Serif" font-size="10.00">flexxlam_msgs::Odometry</text>
<text text-anchor="start" x="182.5" y="-199.5" font-family="Helvetica,sans-Serif" font-size="10.00">::Pose::Orientation</text>
<text text-anchor="start" x="183" y="-184.5" font-family="Helvetica,sans-Serif" font-size="10.00">+</text>
<text text-anchor="start" x="217" y="-184.5" font-family="Helvetica,sans-Serif" font-size="10.00">float x</text>
<text text-anchor="start" x="183" y="-169.5" font-family="Helvetica,sans-Serif" font-size="10.00">+</text>
<text text-anchor="start" x="217" y="-169.5" font-family="Helvetica,sans-Serif" font-size="10.00">float y</text>
<text text-anchor="start" x="183" y="-154.5" font-family="Helvetica,sans-Serif" font-size="10.00">+</text>
<text text-anchor="start" x="217" y="-154.5" font-family="Helvetica,sans-Serif" font-size="10.00">float z</text>
<text text-anchor="start" x="183" y="-139.5" font-family="Helvetica,sans-Serif" font-size="10.00">+</text>
<text text-anchor="start" x="217" y="-139.5" font-family="Helvetica,sans-Serif" font-size="10.00">float w</text>
<text text-anchor="start" x="226" y="-124.5" font-family="Helvetica,sans-Serif" font-size="10.00"> </text>
<polygon fill="#666666" stroke="#666666" points="158,-194.5 158,-194.5 298,-194.5 298,-194.5 158,-194.5"/>
<polygon fill="#666666" stroke="#666666" points="158,-134.5 158,-134.5 215,-134.5 215,-134.5 158,-134.5"/>
<polygon fill="#666666" stroke="#666666" points="215,-134.5 215,-134.5 298,-134.5 298,-134.5 215,-134.5"/>
<polygon fill="none" stroke="#666666" points="158,-118 158,-223 298,-223 298,-118 158,-118"/>
</a>
</g>
</g>
<!-- Node3&#45;&gt;Node1 -->
<g id="edge2_Node000001_Node000003" class="edge">
<title>Node3&#45;&gt;Node1</title>
<g id="a_edge2_Node000001_Node000003"><a xlink:title=" ">
<path fill="none" stroke="#63b8ff" d="M197.23,-117.7C190.13,-105.75 182.64,-93.13 175.73,-81.5"/>
<polygon fill="none" stroke="#63b8ff" points="175.7,-81.45 169.2,-78.34 169.57,-71.14 176.08,-74.25 175.7,-81.45"/>
</a>
</g>
<text text-anchor="middle" x="218.5" y="-92" font-family="Helvetica,sans-Serif" font-size="10.00" fill="grey"> +orientation</text>
</g>
</g>
</svg>
</svg>

<style type='text/css'>
<![CDATA[
[data-mouse-over-selected='false'] { opacity: 0.7; }
[data-mouse-over-selected='true']  { opacity: 1.0; }
]]>
</style>
<script type="application/ecmascript"><![CDATA[
document.addEventListener('DOMContentLoaded', (event) => {
  highlightEdges();
  highlightAdjacentNodes();
});
]]></script>
</svg>
