<?xml version="1.0" encoding="UTF-8" standalone="no"?>
<!DOCTYPE svg PUBLIC "-//W3C//DTD SVG 1.1//EN"
 "http://www.w3.org/Graphics/SVG/1.1/DTD/svg11.dtd">
<!-- Generated by graphviz version 2.43.0 (0)
 -->
<!-- Title: flexxlam_msgs::Odometry Pages: 1 -->
<svg width="622pt" height="379pt"
 viewBox="0.00 0.00 622.00 379.00" xmlns="http://www.w3.org/2000/svg" xmlns:xlink="http://www.w3.org/1999/xlink">
<g id="graph0" class="graph" transform="scale(1 1) rotate(0) translate(4 375)">
<title>flexxlam_msgs::Odometry</title>
<!-- Node1 -->
<g id="Node000001" class="node">
<title>Node1</title>
<g id="a_Node000001"><a xlink:title="Odometry message that is equivalent to nav_msgs/Odometry in ROS.">
<polygon fill="#999999" stroke="transparent" points="379.5,-101 234.5,-101 234.5,0 379.5,0 379.5,-101"/>
<text text-anchor="start" x="242.5" y="-88.5" font-family="Helvetica,sans-Serif" font-size="10.00">flexxlam_msgs::Odometry</text>
<text text-anchor="start" x="239" y="-73.5" font-family="Helvetica,sans-Serif" font-size="10.00">+</text>
<text text-anchor="start" x="252" y="-73.5" font-family="Helvetica,sans-Serif" font-size="10.00">uint32_t timestamp_sec</text>
<text text-anchor="start" x="239" y="-58.5" font-family="Helvetica,sans-Serif" font-size="10.00">+</text>
<text text-anchor="start" x="252" y="-58.5" font-family="Helvetica,sans-Serif" font-size="10.00">uint32_t timestamp_nsec</text>
<text text-anchor="start" x="239" y="-43.5" font-family="Helvetica,sans-Serif" font-size="10.00">+</text>
<text text-anchor="start" x="252" y="-43.5" font-family="Helvetica,sans-Serif" font-size="10.00">Odometry()</text>
<text text-anchor="start" x="239" y="-28.5" font-family="Helvetica,sans-Serif" font-size="10.00">+</text>
<text text-anchor="start" x="252" y="-28.5" font-family="Helvetica,sans-Serif" font-size="10.00">Odometry(const std</text>
<text text-anchor="start" x="252" y="-17.5" font-family="Helvetica,sans-Serif" font-size="10.00">::vector&lt; uint8_t &gt;</text>
<text text-anchor="start" x="252" y="-6.5" font-family="Helvetica,sans-Serif" font-size="10.00"> &amp;bytes)</text>
<polygon fill="#666666" stroke="#666666" points="235,-83.5 235,-83.5 380,-83.5 380,-83.5 235,-83.5"/>
<polygon fill="#666666" stroke="#666666" points="235,-53.5 235,-53.5 250,-53.5 250,-53.5 235,-53.5"/>
<polygon fill="#666666" stroke="#666666" points="250,-53.5 250,-53.5 380,-53.5 380,-53.5 250,-53.5"/>
<polygon fill="none" stroke="#666666" points="234.5,0 234.5,-101 379.5,-101 379.5,0 234.5,0"/>
</a>
</g>
</g>
<!-- Node2 -->
<g id="Node000002" class="node">
<title>Node2</title>
<g id="a_Node000002"><a xlink:href="structflexxlam__msgs_1_1Odometry_1_1Pose.html" target="_top" xlink:title="Pose of odometry.">
<polygon fill="white" stroke="transparent" points="298,-219 158,-219 158,-148 298,-148 298,-219"/>
<text text-anchor="start" x="163" y="-206.5" font-family="Helvetica,sans-Serif" font-size="10.00">flexxlam_msgs::Odometry</text>
<text text-anchor="start" x="213" y="-195.5" font-family="Helvetica,sans-Serif" font-size="10.00">::Pose</text>
<text text-anchor="start" x="171" y="-180.5" font-family="Helvetica,sans-Serif" font-size="10.00">+</text>
<text text-anchor="start" x="193" y="-180.5" font-family="Helvetica,sans-Serif" font-size="10.00">std::array&lt; float,</text>
<text text-anchor="start" x="193" y="-169.5" font-family="Helvetica,sans-Serif" font-size="10.00"> 36 &gt; covariance</text>
<text text-anchor="start" x="226" y="-154.5" font-family="Helvetica,sans-Serif" font-size="10.00"> </text>
<polygon fill="#666666" stroke="#666666" points="158,-190.5 158,-190.5 298,-190.5 298,-190.5 158,-190.5"/>
<polygon fill="#666666" stroke="#666666" points="158,-164.5 158,-164.5 191,-164.5 191,-164.5 158,-164.5"/>
<polygon fill="#666666" stroke="#666666" points="191,-164.5 191,-164.5 298,-164.5 298,-164.5 191,-164.5"/>
<polygon fill="none" stroke="#666666" points="158,-148 158,-219 298,-219 298,-148 158,-148"/>
</a>
</g>
</g>
<!-- Node2&#45;&gt;Node1 -->
<g id="edge1_Node000001_Node000002" class="edge">
<title>Node2&#45;&gt;Node1</title>
<g id="a_edge1_Node000001_Node000002"><a xlink:title=" ">
<path fill="none" stroke="#63b8ff" d="M248.96,-147.74C255.68,-136.61 263.31,-123.94 270.79,-111.54"/>
<polygon fill="none" stroke="#63b8ff" points="270.82,-111.5 270.49,-104.29 277.02,-101.22 277.34,-108.42 270.82,-111.5"/>
</a>
</g>
<text text-anchor="middle" x="283.5" y="-122" font-family="Helvetica,sans-Serif" font-size="10.00" fill="grey"> +pose</text>
</g>
<!-- Node3 -->
<g id="Node000003" class="node">
<title>Node3</title>
<g id="a_Node000003"><a xlink:href="structflexxlam__msgs_1_1Odometry_1_1Pose_1_1Position.html" target="_top" xlink:title="Position of odometry.">
<polygon fill="white" stroke="transparent" points="140,-363.5 0,-363.5 0,-273.5 140,-273.5 140,-363.5"/>
<text text-anchor="start" x="5" y="-351.5" font-family="Helvetica,sans-Serif" font-size="10.00">flexxlam_msgs::Odometry</text>
<text text-anchor="start" x="32.5" y="-340.5" font-family="Helvetica,sans-Serif" font-size="10.00">::Pose::Position</text>
<text text-anchor="start" x="26" y="-325.5" font-family="Helvetica,sans-Serif" font-size="10.00">+</text>
<text text-anchor="start" x="61" y="-325.5" font-family="Helvetica,sans-Serif" font-size="10.00">float x</text>
<text text-anchor="start" x="26" y="-310.5" font-family="Helvetica,sans-Serif" font-size="10.00">+</text>
<text text-anchor="start" x="61" y="-310.5" font-family="Helvetica,sans-Serif" font-size="10.00">float y</text>
<text text-anchor="start" x="26" y="-295.5" font-family="Helvetica,sans-Serif" font-size="10.00">+</text>
<text text-anchor="start" x="61" y="-295.5" font-family="Helvetica,sans-Serif" font-size="10.00">float z</text>
<text text-anchor="start" x="68" y="-280.5" font-family="Helvetica,sans-Serif" font-size="10.00"> </text>
<polygon fill="#666666" stroke="#666666" points="0,-335.5 0,-335.5 140,-335.5 140,-335.5 0,-335.5"/>
<polygon fill="#666666" stroke="#666666" points="0,-290.5 0,-290.5 59,-290.5 59,-290.5 0,-290.5"/>
<polygon fill="#666666" stroke="#666666" points="59,-290.5 59,-290.5 140,-290.5 140,-290.5 59,-290.5"/>
<polygon fill="none" stroke="#666666" points="0,-273.5 0,-363.5 140,-363.5 140,-273.5 0,-273.5"/>
</a>
</g>
</g>
<!-- Node3&#45;&gt;Node2 -->
<g id="edge2_Node000002_Node000003" class="edge">
<title>Node3&#45;&gt;Node2</title>
<g id="a_edge2_Node000002_Node000003"><a xlink:title=" ">
<path fill="none" stroke="#63b8ff" d="M122.61,-273.21C140.26,-258.36 159.89,-241.83 177.39,-227.11"/>
<polygon fill="none" stroke="#63b8ff" points="177.68,-226.86 179.69,-219.94 186.86,-219.13 184.84,-226.06 177.68,-226.86"/>
</a>
</g>
<text text-anchor="middle" x="189.5" y="-240" font-family="Helvetica,sans-Serif" font-size="10.00" fill="grey"> +position</text>
</g>
<!-- Node4 -->
<g id="Node000004" class="node">
<title>Node4</title>
<g id="a_Node000004"><a xlink:href="structflexxlam__msgs_1_1Odometry_1_1Pose_1_1Orientation.html" target="_top" xlink:title="Orientation of odometry.">
<polygon fill="white" stroke="transparent" points="298,-371 158,-371 158,-266 298,-266 298,-371"/>
<text text-anchor="start" x="163" y="-358.5" font-family="Helvetica,sans-Serif" font-size="10.00">flexxlam_msgs::Odometry</text>
<text text-anchor="start" x="182.5" y="-347.5" font-family="Helvetica,sans-Serif" font-size="10.00">::Pose::Orientation</text>
<text text-anchor="start" x="183" y="-332.5" font-family="Helvetica,sans-Serif" font-size="10.00">+</text>
<text text-anchor="start" x="217" y="-332.5" font-family="Helvetica,sans-Serif" font-size="10.00">float x</text>
<text text-anchor="start" x="183" y="-317.5" font-family="Helvetica,sans-Serif" font-size="10.00">+</text>
<text text-anchor="start" x="217" y="-317.5" font-family="Helvetica,sans-Serif" font-size="10.00">float y</text>
<text text-anchor="start" x="183" y="-302.5" font-family="Helvetica,sans-Serif" font-size="10.00">+</text>
<text text-anchor="start" x="217" y="-302.5" font-family="Helvetica,sans-Serif" font-size="10.00">float z</text>
<text text-anchor="start" x="183" y="-287.5" font-family="Helvetica,sans-Serif" font-size="10.00">+</text>
<text text-anchor="start" x="217" y="-287.5" font-family="Helvetica,sans-Serif" font-size="10.00">float w</text>
<text text-anchor="start" x="226" y="-272.5" font-family="Helvetica,sans-Serif" font-size="10.00"> </text>
<polygon fill="#666666" stroke="#666666" points="158,-342.5 158,-342.5 298,-342.5 298,-342.5 158,-342.5"/>
<polygon fill="#666666" stroke="#666666" points="158,-282.5 158,-282.5 215,-282.5 215,-282.5 158,-282.5"/>
<polygon fill="#666666" stroke="#666666" points="215,-282.5 215,-282.5 298,-282.5 298,-282.5 215,-282.5"/>
<polygon fill="none" stroke="#666666" points="158,-266 158,-371 298,-371 298,-266 158,-266"/>
</a>
</g>
</g>
<!-- Node4&#45;&gt;Node2 -->
<g id="edge3_Node000002_Node000004" class="edge">
<title>Node4&#45;&gt;Node2</title>
<g id="a_edge3_Node000002_Node000004"><a xlink:title=" ">
<path fill="none" stroke="#63b8ff" d="M228,-265.7C228,-254.36 228,-242.42 228,-231.29"/>
<polygon fill="none" stroke="#63b8ff" points="228,-231.14 224,-225.14 228,-219.14 232,-225.14 228,-231.14"/>
</a>
</g>
<text text-anchor="middle" x="260.5" y="-240" font-family="Helvetica,sans-Serif" font-size="10.00" fill="grey"> +orientation</text>
</g>
<!-- Node5 -->
<g id="Node000005" class="node">
<title>Node5</title>
<g id="a_Node000005"><a xlink:href="structflexxlam__msgs_1_1Odometry_1_1Twist.html" target="_top" xlink:title="Twist of odometry.">
<polygon fill="white" stroke="transparent" points="456,-219 316,-219 316,-148 456,-148 456,-219"/>
<text text-anchor="start" x="321" y="-206.5" font-family="Helvetica,sans-Serif" font-size="10.00">flexxlam_msgs::Odometry</text>
<text text-anchor="start" x="370.5" y="-195.5" font-family="Helvetica,sans-Serif" font-size="10.00">::Twist</text>
<text text-anchor="start" x="329" y="-180.5" font-family="Helvetica,sans-Serif" font-size="10.00">+</text>
<text text-anchor="start" x="351" y="-180.5" font-family="Helvetica,sans-Serif" font-size="10.00">std::array&lt; float,</text>
<text text-anchor="start" x="351" y="-169.5" font-family="Helvetica,sans-Serif" font-size="10.00"> 36 &gt; covariance</text>
<text text-anchor="start" x="384" y="-154.5" font-family="Helvetica,sans-Serif" font-size="10.00"> </text>
<polygon fill="#666666" stroke="#666666" points="316,-190.5 316,-190.5 456,-190.5 456,-190.5 316,-190.5"/>
<polygon fill="#666666" stroke="#666666" points="316,-164.5 316,-164.5 349,-164.5 349,-164.5 316,-164.5"/>
<polygon fill="#666666" stroke="#666666" points="349,-164.5 349,-164.5 456,-164.5 456,-164.5 349,-164.5"/>
<polygon fill="none" stroke="#666666" points="316,-148 316,-219 456,-219 456,-148 316,-148"/>
</a>
</g>
</g>
<!-- Node5&#45;&gt;Node1 -->
<g id="edge4_Node000001_Node000005" class="edge">
<title>Node5&#45;&gt;Node1</title>
<g id="a_edge4_Node000001_Node000005"><a xlink:title=" ">
<path fill="none" stroke="#63b8ff" d="M365.04,-147.74C358.32,-136.61 350.69,-123.94 343.21,-111.54"/>
<polygon fill="none" stroke="#63b8ff" points="343.18,-111.5 336.66,-108.42 336.98,-101.22 343.51,-104.29 343.18,-111.5"/>
</a>
</g>
<text text-anchor="middle" x="371" y="-122" font-family="Helvetica,sans-Serif" font-size="10.00" fill="grey"> +twist</text>
</g>
<!-- Node6 -->
<g id="Node000006" class="node">
<title>Node6</title>
<g id="a_Node000006"><a xlink:href="structflexxlam__msgs_1_1Odometry_1_1Twist_1_1Linear.html" target="_top" xlink:title="Linear velocity of odometry.">
<polygon fill="white" stroke="transparent" points="456,-363.5 316,-363.5 316,-273.5 456,-273.5 456,-363.5"/>
<text text-anchor="start" x="321" y="-351.5" font-family="Helvetica,sans-Serif" font-size="10.00">flexxlam_msgs::Odometry</text>
<text text-anchor="start" x="352.5" y="-340.5" font-family="Helvetica,sans-Serif" font-size="10.00">::Twist::Linear</text>
<text text-anchor="start" x="342" y="-325.5" font-family="Helvetica,sans-Serif" font-size="10.00">+</text>
<text text-anchor="start" x="377" y="-325.5" font-family="Helvetica,sans-Serif" font-size="10.00">float x</text>
<text text-anchor="start" x="342" y="-310.5" font-family="Helvetica,sans-Serif" font-size="10.00">+</text>
<text text-anchor="start" x="377" y="-310.5" font-family="Helvetica,sans-Serif" font-size="10.00">float y</text>
<text text-anchor="start" x="342" y="-295.5" font-family="Helvetica,sans-Serif" font-size="10.00">+</text>
<text text-anchor="start" x="377" y="-295.5" font-family="Helvetica,sans-Serif" font-size="10.00">float z</text>
<text text-anchor="start" x="384" y="-280.5" font-family="Helvetica,sans-Serif" font-size="10.00"> </text>
<polygon fill="#666666" stroke="#666666" points="316,-335.5 316,-335.5 456,-335.5 456,-335.5 316,-335.5"/>
<polygon fill="#666666" stroke="#666666" points="316,-290.5 316,-290.5 375,-290.5 375,-290.5 316,-290.5"/>
<polygon fill="#666666" stroke="#666666" points="375,-290.5 375,-290.5 456,-290.5 456,-290.5 375,-290.5"/>
<polygon fill="none" stroke="#666666" points="316,-273.5 316,-363.5 456,-363.5 456,-273.5 316,-273.5"/>
</a>
</g>
</g>
<!-- Node6&#45;&gt;Node5 -->
<g id="edge5_Node000005_Node000006" class="edge">
<title>Node6&#45;&gt;Node5</title>
<g id="a_edge5_Node000005_Node000006"><a xlink:title=" ">
<path fill="none" stroke="#63b8ff" d="M386,-273.21C386,-259.79 386,-245 386,-231.42"/>
<polygon fill="none" stroke="#63b8ff" points="386,-231.35 382,-225.35 386,-219.35 390,-225.35 386,-231.35"/>
</a>
</g>
<text text-anchor="middle" x="406" y="-240" font-family="Helvetica,sans-Serif" font-size="10.00" fill="grey"> +linear</text>
</g>
<!-- Node7 -->
<g id="Node000007" class="node">
<title>Node7</title>
<g id="a_Node000007"><a xlink:href="structflexxlam__msgs_1_1Odometry_1_1Twist_1_1Angular.html" target="_top" xlink:title="Angular velocity of odometry.">
<polygon fill="white" stroke="transparent" points="614,-363.5 474,-363.5 474,-273.5 614,-273.5 614,-363.5"/>
<text text-anchor="start" x="479" y="-351.5" font-family="Helvetica,sans-Serif" font-size="10.00">flexxlam_msgs::Odometry</text>
<text text-anchor="start" x="506.5" y="-340.5" font-family="Helvetica,sans-Serif" font-size="10.00">::Twist::Angular</text>
<text text-anchor="start" x="500" y="-325.5" font-family="Helvetica,sans-Serif" font-size="10.00">+</text>
<text text-anchor="start" x="535" y="-325.5" font-family="Helvetica,sans-Serif" font-size="10.00">float x</text>
<text text-anchor="start" x="500" y="-310.5" font-family="Helvetica,sans-Serif" font-size="10.00">+</text>
<text text-anchor="start" x="535" y="-310.5" font-family="Helvetica,sans-Serif" font-size="10.00">float y</text>
<text text-anchor="start" x="500" y="-295.5" font-family="Helvetica,sans-Serif" font-size="10.00">+</text>
<text text-anchor="start" x="535" y="-295.5" font-family="Helvetica,sans-Serif" font-size="10.00">float z</text>
<text text-anchor="start" x="542" y="-280.5" font-family="Helvetica,sans-Serif" font-size="10.00"> </text>
<polygon fill="#666666" stroke="#666666" points="474,-335.5 474,-335.5 614,-335.5 614,-335.5 474,-335.5"/>
<polygon fill="#666666" stroke="#666666" points="474,-290.5 474,-290.5 533,-290.5 533,-290.5 474,-290.5"/>
<polygon fill="#666666" stroke="#666666" points="533,-290.5 533,-290.5 614,-290.5 614,-290.5 533,-290.5"/>
<polygon fill="none" stroke="#666666" points="474,-273.5 474,-363.5 614,-363.5 614,-273.5 474,-273.5"/>
</a>
</g>
</g>
<!-- Node7&#45;&gt;Node5 -->
<g id="edge6_Node000005_Node000007" class="edge">
<title>Node7&#45;&gt;Node5</title>
<g id="a_edge6_Node000005_Node000007"><a xlink:title=" ">
<path fill="none" stroke="#63b8ff" d="M491.39,-273.21C473.74,-258.36 454.11,-241.83 436.61,-227.11"/>
<polygon fill="none" stroke="#63b8ff" points="436.32,-226.86 429.16,-226.06 427.14,-219.13 434.31,-219.94 436.32,-226.86"/>
</a>
</g>
<text text-anchor="middle" x="484.5" y="-240" font-family="Helvetica,sans-Serif" font-size="10.00" fill="grey"> +angular</text>
</g>
</g>
</svg>
