<?xml version="1.0" encoding="UTF-8" standalone="no"?>
<!DOCTYPE svg PUBLIC "-//W3C//DTD SVG 1.1//EN"
 "http://www.w3.org/Graphics/SVG/1.1/DTD/svg11.dtd">
<!-- Generated by graphviz version 2.43.0 (0)
 -->
<!-- Title: flexxlam_msgs::Odometry::Twist Pages: 1 -->
<svg width="306pt" height="216pt"
 viewBox="0.00 0.00 306.00 216.00" xmlns="http://www.w3.org/2000/svg" xmlns:xlink="http://www.w3.org/1999/xlink">

<svg id="main" version="1.1" xmlns="http://www.w3.org/2000/svg" xmlns:xlink="http://www.w3.org/1999/xlink" xml:space="preserve" onload="init(evt)">
<style type="text/css"><![CDATA[
.node, .edge {opacity: 0.7;}
.node.selected, .edge.selected {opacity: 1;}
.edge:hover path { stroke: red; }
.edge:hover polygon { stroke: red; fill: red; }
]]></style>
<script type="application/ecmascript" xlink:href="svg.min.js"/>
<svg id="graph" class="graph">
<g id="graph0" class="graph" transform="scale(1 1) rotate(0) translate(4 212)">
<title>flexxlam_msgs::Odometry::Twist</title>
<!-- Node1 -->
<g id="Node000001" class="node">
<title>Node1</title>
<g id="a_Node000001"><a xlink:title="Twist of odometry.">
<polygon fill="#999999" stroke="transparent" points="219,-71 79,-71 79,0 219,0 219,-71"/>
<text text-anchor="start" x="84" y="-58.5" font-family="Helvetica,sans-Serif" font-size="10.00">flexxlam_msgs::Odometry</text>
<text text-anchor="start" x="133.5" y="-47.5" font-family="Helvetica,sans-Serif" font-size="10.00">::Twist</text>
<text text-anchor="start" x="92" y="-32.5" font-family="Helvetica,sans-Serif" font-size="10.00">+</text>
<text text-anchor="start" x="114" y="-32.5" font-family="Helvetica,sans-Serif" font-size="10.00">std::array&lt; float,</text>
<text text-anchor="start" x="114" y="-21.5" font-family="Helvetica,sans-Serif" font-size="10.00"> 36 &gt; covariance</text>
<text text-anchor="start" x="147" y="-6.5" font-family="Helvetica,sans-Serif" font-size="10.00"> </text>
<polygon fill="#666666" stroke="#666666" points="79,-42.5 79,-42.5 219,-42.5 219,-42.5 79,-42.5"/>
<polygon fill="#666666" stroke="#666666" points="79,-16.5 79,-16.5 112,-16.5 112,-16.5 79,-16.5"/>
<polygon fill="#666666" stroke="#666666" points="112,-16.5 112,-16.5 219,-16.5 219,-16.5 112,-16.5"/>
<polygon fill="none" stroke="#666666" points="79,0 79,-71 219,-71 219,0 79,0"/>
</a>
</g>
</g>
<!-- Node2 -->
<g id="Node000002" class="node">
<title>Node2</title>
<g id="a_Node000002"><a xlink:href="structflexxlam__msgs_1_1Odometry_1_1Twist_1_1Linear.html" target="_top" xlink:title="Linear velocity of odometry.">
<polygon fill="white" stroke="transparent" points="140,-208 0,-208 0,-118 140,-118 140,-208"/>
<text text-anchor="start" x="5" y="-196" font-family="Helvetica,sans-Serif" font-size="10.00">flexxlam_msgs::Odometry</text>
<text text-anchor="start" x="36.5" y="-185" font-family="Helvetica,sans-Serif" font-size="10.00">::Twist::Linear</text>
<text text-anchor="start" x="26" y="-170" font-family="Helvetica,sans-Serif" font-size="10.00">+</text>
<text text-anchor="start" x="61" y="-170" font-family="Helvetica,sans-Serif" font-size="10.00">float x</text>
<text text-anchor="start" x="26" y="-155" font-family="Helvetica,sans-Serif" font-size="10.00">+</text>
<text text-anchor="start" x="61" y="-155" font-family="Helvetica,sans-Serif" font-size="10.00">float y</text>
<text text-anchor="start" x="26" y="-140" font-family="Helvetica,sans-Serif" font-size="10.00">+</text>
<text text-anchor="start" x="61" y="-140" font-family="Helvetica,sans-Serif" font-size="10.00">float z</text>
<text text-anchor="start" x="68" y="-125" font-family="Helvetica,sans-Serif" font-size="10.00"> </text>
<polygon fill="#666666" stroke="#666666" points="0,-180 0,-180 140,-180 140,-180 0,-180"/>
<polygon fill="#666666" stroke="#666666" points="0,-135 0,-135 59,-135 59,-135 0,-135"/>
<polygon fill="#666666" stroke="#666666" points="59,-135 59,-135 140,-135 140,-135 59,-135"/>
<polygon fill="none" stroke="#666666" points="0,-118 0,-208 140,-208 140,-118 0,-118"/>
</a>
</g>
</g>
<!-- Node2&#45;&gt;Node1 -->
<g id="edge1_Node000001_Node000002" class="edge">
<title>Node2&#45;&gt;Node1</title>
<g id="a_edge1_Node000001_Node000002"><a xlink:title=" ">
<path fill="none" stroke="#63b8ff" d="M97.85,-117.75C105.2,-106.08 113.14,-93.47 120.52,-81.75"/>
<polygon fill="none" stroke="#63b8ff" points="120.71,-81.44 120.52,-74.23 127.1,-71.29 127.29,-78.5 120.71,-81.44"/>
</a>
</g>
<text text-anchor="middle" x="135" y="-92" font-family="Helvetica,sans-Serif" font-size="10.00" fill="grey"> +linear</text>
</g>
<!-- Node3 -->
<g id="Node000003" class="node">
<title>Node3</title>
<g id="a_Node000003"><a xlink:href="structflexxlam__msgs_1_1Odometry_1_1Twist_1_1Angular.html" target="_top" xlink:title="Angular velocity of odometry.">
<polygon fill="white" stroke="transparent" points="298,-208 158,-208 158,-118 298,-118 298,-208"/>
<text text-anchor="start" x="163" y="-196" font-family="Helvetica,sans-Serif" font-size="10.00">flexxlam_msgs::Odometry</text>
<text text-anchor="start" x="190.5" y="-185" font-family="Helvetica,sans-Serif" font-size="10.00">::Twist::Angular</text>
<text text-anchor="start" x="184" y="-170" font-family="Helvetica,sans-Serif" font-size="10.00">+</text>
<text text-anchor="start" x="219" y="-170" font-family="Helvetica,sans-Serif" font-size="10.00">float x</text>
<text text-anchor="start" x="184" y="-155" font-family="Helvetica,sans-Serif" font-size="10.00">+</text>
<text text-anchor="start" x="219" y="-155" font-family="Helvetica,sans-Serif" font-size="10.00">float y</text>
<text text-anchor="start" x="184" y="-140" font-family="Helvetica,sans-Serif" font-size="10.00">+</text>
<text text-anchor="start" x="219" y="-140" font-family="Helvetica,sans-Serif" font-size="10.00">float z</text>
<text text-anchor="start" x="226" y="-125" font-family="Helvetica,sans-Serif" font-size="10.00"> </text>
<polygon fill="#666666" stroke="#666666" points="158,-180 158,-180 298,-180 298,-180 158,-180"/>
<polygon fill="#666666" stroke="#666666" points="158,-135 158,-135 217,-135 217,-135 158,-135"/>
<polygon fill="#666666" stroke="#666666" points="217,-135 217,-135 298,-135 298,-135 217,-135"/>
<polygon fill="none" stroke="#666666" points="158,-118 158,-208 298,-208 298,-118 158,-118"/>
</a>
</g>
</g>
<!-- Node3&#45;&gt;Node1 -->
<g id="edge2_Node000001_Node000003" class="edge">
<title>Node3&#45;&gt;Node1</title>
<g id="a_edge2_Node000001_Node000003"><a xlink:title=" ">
<path fill="none" stroke="#63b8ff" d="M200.15,-117.75C192.8,-106.08 184.86,-93.47 177.48,-81.75"/>
<polygon fill="none" stroke="#63b8ff" points="177.29,-81.44 170.71,-78.5 170.9,-71.29 177.48,-74.23 177.29,-81.44"/>
</a>
</g>
<text text-anchor="middle" x="212.5" y="-92" font-family="Helvetica,sans-Serif" font-size="10.00" fill="grey"> +angular</text>
</g>
</g>
</svg>
</svg>

<style type='text/css'>
<![CDATA[
[data-mouse-over-selected='false'] { opacity: 0.7; }
[data-mouse-over-selected='true']  { opacity: 1.0; }
]]>
</style>
<script type="application/ecmascript"><![CDATA[
document.addEventListener('DOMContentLoaded', (event) => {
  highlightEdges();
  highlightAdjacentNodes();
});
]]></script>
</svg>
